<svg xmlns="http://www.w3.org/2000/svg" xmlns:xlink="http://www.w3.org/1999/xlink" viewBox="0 0 1024 768"><defs><linearGradient id="linear-gradient" x1="-17" y1="440.96" x2="1034" y2="440.96" gradientTransform="matrix(-1, 0, 0, 1, 1017, 0)" gradientUnits="userSpaceOnUse"><stop offset="0" stop-color="#b584ff"/><stop offset="0.28" stop-color="#be8cf7"/><stop offset="0.75" stop-color="#d8a3e0"/><stop offset="1" stop-color="#e8b1d2"/></linearGradient><linearGradient id="linear-gradient-2" x1="913.15" y1="718.49" x2="1415.65" y2="718.49" gradientTransform="matrix(-1, 0, 0, 1, 1733.15, 0)" gradientUnits="userSpaceOnUse"><stop offset="0" stop-color="#b584ff"/><stop offset="0.13" stop-color="#b887fc" stop-opacity="0.97"/><stop offset="0.34" stop-color="#c18ef5" stop-opacity="0.88"/><stop offset="0.6" stop-color="#cf9be8" stop-opacity="0.75"/><stop offset="0.92" stop-color="#e2acd7" stop-opacity="0.56"/><stop offset="1" stop-color="#e8b1d2" stop-opacity="0.5"/></linearGradient></defs><title>illu4</title><g id="Layer_2" data-name="Layer 2"><path d="M-1,452.39,17.62,322.6a2.74,2.74,0,0,1,5.38-.27l14,57a2.74,2.74,0,0,0,5.37-.25L57.82,276.36a2.74,2.74,0,0,1,5.43.1L81.52,434.85l17.7-15.05a4.13,4.13,0,0,1,5.62.26l17.94,18.3,16.28-30.44a4.93,4.93,0,0,1,8.7,0L164,438.36l16.13-35.66a4.94,4.94,0,0,1,9,0l16.14,35.66,20.63-14,20.63,17.54,16-40.9a4.94,4.94,0,0,1,9.19,0l16,40.9,15.8-75.21a4.93,4.93,0,0,1,9.66,0l15.8,75.21,16.05-51.82a4.93,4.93,0,0,1,9.4-.08l15.81,48.39,16.09-73.86a4.94,4.94,0,0,1,9.62-.12l15.55,63.46,18.64-38a2.74,2.74,0,0,1,4.67-.41l18,24.41,17.76-54.35a2.75,2.75,0,0,1,5.26.14l18.24,68.24,18.2-117.54a2.74,2.74,0,0,1,5.4-.1l14.41,76a2.74,2.74,0,0,0,5.41-.17l16-127.56a2.74,2.74,0,0,1,5.43-.06l14.38,97.78a2.74,2.74,0,0,0,5.44-.14l15.89-170.21a2.74,2.74,0,0,1,5.46,0l15,147.62a2.74,2.74,0,0,0,5.46,0l15.4-162.34a2.74,2.74,0,0,1,5.45,0l14.68,139.74a2.74,2.74,0,0,0,5.46-.06l16-198a2.74,2.74,0,0,1,5.46-.08l14.8,133.35a2.74,2.74,0,0,0,5.44,0L719,109a2.74,2.74,0,0,1,5.41-.2l14.42,76a2.74,2.74,0,0,0,5.4-.06l14.71-87.55a2.74,2.74,0,0,1,5.43.18l16,157.72a2.74,2.74,0,0,0,5.45,0l14.81-131a2.75,2.75,0,0,1,5.46,0l10.15,105.31c1.25,12.95,19.89,13.65,22.11.83L841.68,211a2.74,2.74,0,0,1,5.42.13L863.28,340.4a2.74,2.74,0,0,0,5.41.17l13.93-73.41a2.74,2.74,0,0,1,5.42.22L906.7,441.87,924.63,335.2a2.74,2.74,0,0,1,5.41,0L948,441.87,966,405a2.74,2.74,0,0,1,5,.08l18.23,40.29,20.63-14L1034,430V787H-17V459Z" style="opacity:0.17;fill:url(#linear-gradient)"/></g><g id="Layer_3" data-name="Layer 3"><ellipse cx="568.75" cy="718.49" rx="251.25" ry="80.51" style="opacity:0.25;fill:url(#linear-gradient-2)"/><rect x="180.04" y="115.33" width="383.87" height="215.82" rx="4.66" style="fill:#676193"/><text transform="translate(209.41 154.05)" style="font-size:18.635684967041016px;fill:#e1e1f4;font-family:MyriadPro-Regular, Myriad Pro;letter-spacing:0.005004469592340836em">T<tspan x="9.35" y="0" style="letter-spacing:0.05400110905662023em">r</tspan><tspan x="16.46" y="0" style="letter-spacing:0.04999229310045191em">in</tspan><tspan x="33.02" y="0" style="letter-spacing:0.017004716049367555em">a</tspan><tspan x="42.32" y="0" style="letter-spacing:-0.02200918564170839em">’</tspan><tspan x="45.77" y="0" style="letter-spacing:0.04999229310045191em">s </tspan><tspan x="58.96" y="0" style="letter-spacing:0.02402669432553166em">P</tspan><tspan x="69.32" y="0" style="letter-spacing:0.04999229310045191em">a</tspan><tspan x="79.24" y="0" style="letter-spacing:0.07399278601450535em">r</tspan><tspan x="86.71" y="0" style="letter-spacing:0.05897937723748284em">t</tspan><tspan x="93.98" y="0" style="letter-spacing:0.04999229310045191em">y</tspan></text><line x1="515.7" y1="137.83" x2="538.39" y2="137.83" style="fill:#e1e1f4;stroke:#e1e1f4;stroke-miterlimit:10"/><line x1="515.7" y1="145.09" x2="538.39" y2="145.09" style="fill:#e1e1f4;stroke:#e1e1f4;stroke-miterlimit:10"/><line x1="515.7" y1="152.35" x2="538.39" y2="152.35" style="fill:#e1e1f4;stroke:#e1e1f4;stroke-miterlimit:10"/><path d="M403.4,270.78l-42.12-24.32a1,1,0,0,0-1.44.83v48.64a1,1,0,0,0,1.44.83l42.12-24.32A1,1,0,0,0,403.4,270.78Z" style="fill:#ff6cc7"/><path d="M302.4,284.72l-5.35-5a43.64,43.64,0,0,1-5.15-5.38,9.45,9.45,0,0,1-2.14-6.19,6.68,6.68,0,0,1,3.87-5.89,5.87,5.87,0,0,1,6.41.53,24,24,0,0,1,2.45,2.3c.3-.36.67-.87,1.09-1.32a6.43,6.43,0,0,1,7.31-1.66,7,7,0,0,1,4,7.85,11.17,11.17,0,0,1-2.95,5.5c-1.93,2-4,3.93-6,5.88C304.85,282.47,303.64,283.57,302.4,284.72Z" style="fill:#ff6cc7"/><path d="M465.46,271.65l-20.09-11.59a.56.56,0,0,0-.85.49v23.19a.56.56,0,0,0,.85.49l20.09-11.59A.57.57,0,0,0,465.46,271.65Z" style="fill:#fff8fc"/><line x1="466.31" y1="259.8" x2="466.31" y2="283.72" style="fill:none;stroke:#fff8fc;stroke-linejoin:round;stroke-width:2.55624936261959px"/><path d="M639.93,292.1l-32.2-39.91s-.24-27.3,25.43-11.9c0,0,30.57,34.3,39.67,58.81,0,0-15.4,14.47-60.44,26.6L615,307.15l27.42-11.9Z" style="fill:#fec9a7"/><path d="M573.56,229.35s-17.76,3.24-18.46,17c0,0-7,80.22,0,112.07,0,0,0,37.81-3.11,59.28,0,0,62.27-6.54,83.74-42,0,0-2.57-7-12.84-14.93a53,53,0,0,1-5.83-28.24s4.9-33.37,15.64-44.34c0,0,9.1-28.7.23-45.74Z" style="fill:#fec9a7"/><path d="M617.06,332.47s4.9-33.37,15.64-44.34c0,0,9.1-28.7.23-45.74l-59.37-13s-17.76,3.24-18.46,17c0,0-6.73,77.15-.39,110.17,14.64.27,45.24.43,65.36-2.2A51.9,51.9,0,0,1,617.06,332.47Z" style="fill:#f27390"/><path d="M475.64,290.93s-12.37-14-17-14c0,0-22.17,1.86-11.66,21.47,0,0,2.33,5.6,23.1,9.57,0,0,44.81,30.8,57.17,41.07,0,0,11.21,6.59,21.47,2.36,0,0,7.24-2.36,23.81-72.37,0,0,7.7-47.38-18.21-37.34,0,0-15.86,14-22.63,76.31v1.52S493.14,309.13,475.64,290.93Z" style="fill:#fec9a7"/><path d="M552,169.7s-2.84,62,31.12,56,17.5-42,17.5-42l-22.35-19.6Z" style="fill:#fec9a7"/><path d="M624.5,234.1c-.79.74-2.31,2.83-3.22,3.39a78.69,78.69,0,0,1-9,5.37c-3.93,1.89-10.29,2.47-20.87-3.5a16.21,16.21,0,0,0-7.28-4.9c-7.35-2.25-12.78,3.29-15.36,1.12-5-4.2-4.66-17.56,5.09-30.88a19.28,19.28,0,0,0-1.49-21.88c-3.15-2.27-3.6,3.33-3.6,3.33s1.44,7.87,0,8.22-6.51-5.6-6.51-5.6C560.9,181.77,552,172,552,172c.06-3.13.67-21.88,14.32-34.12A44,44,0,0,1,586.4,128a39.63,39.63,0,0,1,11.6-.7c15.18,1.52,32.1,14.46,35.44,30.8,0,0,11.6,31.51,17.23,36.76,0,0,20.34,29.64-16.54,43.41C634.13,238.31,627.48,231.32,624.5,234.1Z" style="fill:#846d7f"/><path d="M622.66,461.08s-22.4,41.86-35.35,56.21c0,0,20.49,36.06,7.09,104.67,0,0-2.36,28.7,0,44.11,0,0-10.59,32.2-16.9,33.95h-7.7s1.4-54.26,0-71.06l-9.89-105,14.44-40.26,15.58-33.6Z" style="fill:#f0be9d"/><path d="M542.85,462.45,523.6,523.13s16,120,19.25,146.09c0,0-3,42.18-20.48,56,0,0,.53,9.11,13.48-.87,0,0,11.55-4.73,17.5-14.53,0,0,10.5-5.25,10.5-23.45,0,0-1.13-50-.33-64a20.14,20.14,0,0,1,.33-3.19c1.4-5.6,2.1-63.36,0-87.16,0,0,11.55-24.51,24.16-43.76,0,0,9.45-16.8,9.45-23.45S542.85,462.45,542.85,462.45Z" style="fill:#fec9a7"/><path d="M518.58,724.76s14.94,8.86,20.3-5.14L545.65,701s7.23-22.17,11-22.4c0,0,13.07-5.13,14.7,12.37L567.59,742h-4.67l-.23-38.74s-10.27,34.77-13.77,35.7c0,0-18.44,6.77-30.34-3.73C518.58,735.26,507.84,720.09,518.58,724.76Z" style="fill:#8f7aa0"/><path d="M550.78,703.75s14.94,8.87,20.31-5.13L577.85,680s7.24-22.17,11-22.4c0,0,13.07-5.14,14.7,12.37L599.79,721h-4.67l-.23-38.74S584.62,717.06,581.12,718c0,0-18.43,6.77-30.34-3.73C550.78,714.26,540.05,699.09,550.78,703.75Z" style="fill:#8f7aa0"/><path d="M554.86,374.48s60.41,10.88,74.08-8.39c0,0,24.53,22.39,27.33,86.8,0,0-66.86,37.45-132.67,12.95C523.6,465.84,554.23,392.64,554.86,374.48Z" style="fill:#f27390"/><path d="M205.68,212c1.92-3.18,3.94-5.72,6.71-5.72,5.16,0,5.16,14.66,10.32,14.66s5.16-13.83,10.32-13.83,5.16,12.58,10.32,12.58,5.16-15.5,10.33-15.5,5.16,18.49,10.32,18.49,5.16-29.91,10.32-29.91,5.16,33.72,10.32,33.72,5.17-35.38,10.33-35.38,5.16,38.62,10.32,38.62,5.16-28.39,10.33-28.39,5.16,20.82,10.32,20.82S331.1,204,336.26,204s5.16,15.1,10.33,15.1,5.16-15.48,10.32-15.48,5.16,15.29,10.32,15.29,5.17-14.34,10.33-14.34,5.16,13.77,10.32,13.77,5.16-20.64,10.33-20.64,5.16,31.45,10.32,31.45,5.16-38.31,10.33-38.31,5.16,30.87,10.32,30.87,5.16-36.59,10.33-36.59,5.16,54.13,10.32,54.13,5.16-41.55,10.33-41.55,5.16,20.46,10.32,20.46,5.16-13.31,10.33-13.31S486,219,491.13,219s5.16-17.36,10.32-17.36,5.17,15.88,10.33,15.88,5.16-17.36,10.32-17.36c2.67,0,4.27,7.53,5.29,12" style="fill:none;stroke:#ff48c7;stroke-miterlimit:10;stroke-width:0.754235617130227px"/><line x1="186.32" y1="212.15" x2="548.54" y2="212.15" style="fill:none;stroke:#ff48c7;stroke-miterlimit:10;stroke-width:0.754235617130227px"/><path d="M169.25,212.16c1.5-1.92,3-3.85,6-3.85,6,0,6,7.69,12,7.69s6-11.82,12-11.82,6,11.82,12,11.82,6-7.69,12-7.69,6,7.69,12,7.69,6-17,12-17,6,17,12,17,6-7.69,12-7.69,6,14.92,12,14.92,6-14.92,12-14.92,6,7.69,12,7.69,6-7.69,12-7.69,6,7.69,12,7.69,6-7.69,12-7.69,6,7.69,12,7.69,6-12.85,12-12.85S373,216,379,216s6-7.69,12-7.69,6,7.69,12,7.69,6-7.69,12-7.69,6,7.69,12,7.69,6-7.69,12-7.69,6,7.69,12,7.69,6-7.69,12-7.69,6,11.83,12,11.83,6-11.83,12-11.83c3,0,4.48,1.9,6,3.82" style="fill:none;stroke:#fff8fc;stroke-linejoin:round;stroke-width:0.5px"/></g></svg>