<svg id="Layer_2" data-name="Layer 2" xmlns="http://www.w3.org/2000/svg" viewBox="0 0 800 600"><title>illu2_1</title><path d="M52.39,396.92c-5.22-37.82,4.52-91.12,39-120.51,18.82-16.05,35.37-16.75,59.72-43.63,7.29-8,19.43-21.71,27.55-42.47,11.36-29.06,4.09-44.55,9.18-66.56,8.06-34.83,39.9-55,65.43-71.16C356.66-12.92,495.42,23,507,26.18c39.7,10.84,129.14,35.24,189.38,124,27.93,41.14,39.64,79.63,43.12,93.11,5.16,20.16,17.53,70.91,1.64,133-3.48,13.64-22,82.87-82.64,132C601.39,554.55,539.64,557,418.57,559.92,290.9,563,199.29,564,122.43,502.52,100.15,484.74,59.91,451.57,52.39,396.92Z" style="fill:#fff;isolation:isolate"/><g id="_3" data-name=" 3"><path d="M52.39,396.92c-5.22-37.82,4.52-91.12,39-120.51,18.82-16.05,35.37-16.75,59.72-43.63,7.29-8,19.43-21.71,27.55-42.47,11.36-29.06,4.09-44.55,9.18-66.56,8.06-34.83,39.9-55,65.43-71.16C356.66-12.92,495.42,23,507,26.18c39.7,10.84,129.14,35.24,189.38,124,27.93,41.14,39.64,79.63,43.12,93.11,5.16,20.16,17.53,70.91,1.64,133-3.48,13.64-22,82.87-82.64,132C601.39,554.55,539.64,557,418.57,559.92,290.9,563,199.29,564,122.43,502.52,100.15,484.74,59.91,451.57,52.39,396.92Z" style="fill:#c6ddfe;opacity:0.2800000011920929;isolation:isolate"/><polygon points="581.98 505.81 584.42 518.04 588.35 518.04 628.43 518.04 633.31 505.81 581.98 505.81" style="fill:#c6defe"/><polygon points="591.76 547.38 586.86 518.04 626.32 518.04 621.09 547.38 591.76 547.38" style="fill:#b7d1fe"/><path d="M615.4,489.09s14.67-17.11,2.45-19.55A7.65,7.65,0,0,0,613,472s-2.44,0,0-4.88c0,0,7.34-9.78-2.44-14.68,0,0-4.88-2.44-9.78,4.9,0,0-2.44,2.44-2.44-2.44,0,0,7.34-12.22,4.88-17.12,0,0-2.44-4.89-7.32-2.44,0,0-2.46.89-4.66,5,0,0-3,.89-1.59-3.6,0,0,5.21-17.46-1.78-19.67,0,0-5.4-3-7.81,3.6,0,0-2.89,2.24-3.09-4.27,0,0-2.49-6-8-4.82,0,0-8,1,2.89,14.29,0,0,3.4,3.2-1.32,3.2,0,0-6.1-.9-3.6,5.8,0,0,2.65,4.39,9.79,6.9,0,0,2.8,2.19-3,3.4,0,0-6.09.69-3.49,6.79,0,0,3.49,7,13.79,7.2,0,0,4.41,2-1.32,3.59,0,0-8.31-.15-5.91,5.9,0,0,.53,3.13,11,6.63,0,0,3.45,3.35-2.81,3.86,0,0-9.72-2.19-9.93,1.89,0,0-2.49,5.11,10.55,8.76Z" style="fill:#ffc954"/><path d="M606.08,494.19s-9.86-39-25.36-60.35c0,0,19.91,50.23,19,60.71Z" style="fill:#bf973f"/><path d="M591.76,505.81s-14.68-17.1-2.46-19.55a7.59,7.59,0,0,1,4.9,2.45s2.44,0,0-4.9c0,0-7.34-9.77,2.44-14.6,0,0,4.89-2.44,9.78,4.9,0,0,2.45,2.44,2.45-2.46,0,0-7.34-12.22-4.89-17.1,0,0,2.44-4.89,7.33-2.45,0,0,2.45.89,4.66,5,0,0,3,.91,1.59-3.58,0,0-5.22-17.48,1.78-19.67,0,0,5.4-3,7.79,3.6,0,0,2.9,2.24,3.1-4.29,0,0,2.5-6,8-4.81,0,0,8,1-2.9,14.3,0,0-3.39,3.2,1.33,3.2,0,0,6.09-.9,3.6,5.8,0,0-2.66,4.39-9.8,6.89,0,0-2.8,2.2,3,3.39,0,0,6.09.71,3.49,6.81,0,0-3.49,7-13.79,7.2,0,0-4.4,2,1.33,3.59,0,0,8.31-.16,5.91,5.89,0,0-.53,3.14-11,6.64,0,0-3.45,3.33,2.82,3.86,0,0,9.71-2.2,9.91,1.87,0,0,2.51,5.13-10.54,8.78Z" style="fill:#689df6"/><path d="M603.09,506.12s9.86-39,25.36-60.35c0,0-19.9,50.24-19,60.71Z" style="fill:#3264b7;opacity:0.5899999737739563;isolation:isolate"/><g style="opacity:0.5"><polygon points="113.28 481.91 114.8 489.54 117.26 489.54 142.26 489.54 145.31 481.91 113.28 481.91" style="fill:#d5d9ff"/><polygon points="119.38 507.84 116.33 489.54 140.95 489.54 137.68 507.84 119.38 507.84" style="fill:#b7c9fe"/><path d="M134.14,471.51s9.14-10.62,1.53-12.2a4.73,4.73,0,0,0-3.06,1.53s-1.52,0,0-3.06c0,0,4.58-6.1-1.52-9.15,0,0-3.06-1.53-6.11,3.05,0,0-1.52,1.53-1.52-1.53,0,0,4.57-7.61,3.05-10.61a3.35,3.35,0,0,0-4.46-1.59l-.12.06a6.46,6.46,0,0,0-2.91,3.15s-1.89.55-1-2.25c0,0,3.25-10.91-1.11-12.27,0,0-3.37-1.87-4.87,2.24,0,0-1.81,1.39-1.93-2.65,0,0-1.56-3.76-4.94-3,0,0-5,.63,1.82,8.92,0,0,2.11,2-.82,2,0,0-3.8-.55-2.24,3.63a12.08,12.08,0,0,0,6.11,4.3s1.76,1.32-1.87,2.12a2.75,2.75,0,0,0-2.19,4.23s2.19,4.37,8.62,4.5c0,0,2.74,1.25-.81,2.25,0,0-5.19-.11-3.69,3.67,0,0,.33,1.95,6.85,4.1,0,0,2.15,2.09-1.77,2.42,0,0-6-1.33-6.18,1.17,0,0-1.57,3.2,6.57,5.46Z" style="fill:#ffc954"/><path d="M128.33,474.65s-6.16-24.31-15.84-37.65c0,0,12.45,31.35,12,37.88Z" style="fill:#bf973f"/><path d="M119.43,481.91s-9.15-10.62-1.52-12.21a4.73,4.73,0,0,1,3,1.53s1.53,0,0-3.05c0,0-4.58-6.1,1.53-9.15,0,0,3.05-1.52,6.1,3.05,0,0,1.53,1.53,1.53-1.52,0,0-4.58-7.63-3.05-10.69a3.33,3.33,0,0,1,4.45-1.58l.12.06a6.4,6.4,0,0,1,2.91,3.14s1.88.56,1-2.24c0,0-3.25-10.89,1.12-12.28,0,0,3.37-1.87,4.85,2.26,0,0,1.82,1.39,1.94-2.65,0,0,1.57-3.76,4.94-3,0,0,5,.62-1.82,8.92,0,0-2.12,2,.81,2,0,0,3.81-.56,2.26,3.62a12,12,0,0,1-6.12,4.3s-1.75,1.33,1.87,2.12c0,0,3.81.44,2.18,4.25,0,0-2.18,4.37-8.6,4.49,0,0-2.75,1.24.81,2.25,0,0,5.19-.1,3.69,3.66,0,0-.34,2-6.85,4.12,0,0-2.15,2.08,1.76,2.4,0,0,6-1.33,6.19,1.18,0,0,1.56,3.19-6.64,5.47Z" style="fill:#4e73ef"/><path d="M126.45,482.1s6.16-24.32,15.84-37.65c0,0-12.45,31.34-11.95,37.87Z" style="fill:#355ae1"/></g><g style="opacity:0.8999999761581421"><rect x="516.35" y="198.53" width="6.79" height="56.03" rx="1.75" style="fill:#c6ddfe"/><rect x="290.41" y="154.63" width="3.81" height="18.45" rx="1.75" style="fill:#c6ddfe"/><rect x="290.26" y="188.4" width="4.3" height="32.1" rx="1.75" style="fill:#c6ddfe"/><rect x="290.34" y="231.75" width="4.09" height="32.38" rx="1.75" style="fill:#c6ddfe"/><rect x="292.57" y="93.67" width="227.46" height="462.27" rx="29.93" style="fill:#fff"/><rect x="384.36" y="107.48" width="31.76" height="6.45" rx="2.97" style="fill:#e6e8ec"/><circle cx="424.58" cy="110.7" r="3.66" style="fill:#e6e8ec"/></g><path d="M487.89,105.71H461.83v3.13A14.88,14.88,0,0,1,447,123.72H364a14.88,14.88,0,0,1-14.87-14.88h0v-3.13H324.67a18,18,0,0,0-18,18.05h0V525.88a18,18,0,0,0,18,18.06H487.91A18.06,18.06,0,0,0,506,525.88V123.77a18.06,18.06,0,0,0-18.06-18.06Z" style="fill:#c6ddfe;opacity:0.2800000011920929;isolation:isolate"/><path d="M432.38,349.62v-5.38H416.19v-5.43h5.41v-5.42h5.3V328h-5.3v-5.43h5.3V311.76h-5.3v-5.31h16.13v5.31h-5.31v5.4H454v5.31h5.41v-5.31h5.39v10.76h10.76v37.76H437.79v-5.31h5.3V349.53h5.46v5.52h10.79v5.31h10.74V349.65h-5.31V355h-5.39V344.21H454v5.31h-5.4v-5.31h-5.4v5.31H432.37Zm0-10.87h16.18V322.66H432.41Zm32.33-5.3h-5.3v5.3h5.3Z" style="fill:#689df6"/><path d="M373,295.61h-5.39V284.86H362.3v10.71h-5.42v-5.31h-5.46v16.11H346v16.18h-5.39V274.1h27v5.3H373v5.45h5.3v5.3H373v5.38Zm-21.64-16.13h-5.3v5.31h5.3Z" style="fill:#689df6"/><path d="M475.52,268.59H437.81V230.9h37.71Zm-5.4-5.39V236.29H443.25V263.2Z" style="fill:#689df6"/><path d="M378.33,268.59H340.64V230.9h37.69Zm-5.41-5.39V236.29H346V263.2Z" style="fill:#689df6"/><path d="M340.65,328h37.69v37.71H340.65Zm32.27,32.32V333.47H346v26.89Z" style="fill:#689df6"/><path d="M383.8,317.2h-5.42v-5.39H367.61V306.4h10.72V301H373v-5.4h10.84v-5.31h5.39v5.4H400v5.37H389.27v5.39h5.38v5.31H400v-5.31h10.74v5.31h-5.31v10.78h-5.39v-5.41H389.25v-5.3h-5.42v5.3Z" style="fill:#689df6"/><path d="M432.37,274.1h5.39v10.75h5.37V274.1h5.43v16.15h-5.31v10.81h-5.44V290.3H427.09v5.39h5.31V301H416.23v-5.4h5.31V284.79h5.4V279.4h5.39V274Z" style="fill:#689df6"/><path d="M389.17,317.2v5.4h5.38v21.57h-5.31v5.41h5.31v5.47h-5.31v10.79h-5.31v-27h5.31v-5.31h-5.31V317.2h5.24Z" style="fill:#689df6"/><path d="M410.74,241.59V247h16.2v5.43h5.4v5.39H427v5.41h-5.42V252.45h-5.37v10.76h-5.44v5.38h-5.38v-5.38H400v-5.3h10.75v-5.45h-5.31V241.62h5.31Z" style="fill:#689df6"/><path d="M459.42,301.05v-5.39h10.7v-5.41h-5.31V274.1h5.31v10.72h5.3V301h-5.3v5.31h5.3v10.79h-5.3v-5.31H464.7V301h-5.28Z" style="fill:#689df6"/><path d="M394.57,263.24H400v5.4h5.41V279.4H400v-5.3h-5.38v5.3h-5.45v5.31h-5.37V279.4H373v-5.3h16.2v-5.44h5.43v-5.45Z" style="fill:#689df6"/><path d="M389.2,268.62h-5.31V257.84h5.31v-5.38h-5.31v-5.38H400v5.3h-5.37v10.85H389.2v5.39Z" style="fill:#689df6"/><path d="M416.19,338.81h-5.38v5.31H405.5V333.38h5.31V328H405.5v-5.41h10.83V328h5.31v5.42h-5.41v5.41Z" style="fill:#689df6"/><path d="M378.38,317.2v5.31H362.21V311.76h5.4v5.41h10.81Z" style="fill:#689df6"/><path d="M400,365.76v-16.1h10.72V355h-5.31v10.79Z" style="fill:#689df6"/><path d="M421.6,355.05v-5.39h10.78v5.39h5.39v5.31H427v-5.31H421.6Z" style="fill:#689df6"/><path d="M454,301h5.45v16.17H454v-5.4h-5.43v-5.31H454v-5.4Z" style="fill:#689df6"/><path d="M421.61,236.19h-5.4v5.4h-5.47v-5.38h-5.31V230.9h16.18v5.29Z" style="fill:#689df6"/><path d="M427,263.24h5.4V274.1H427V263.24Z" style="fill:#689df6"/><path d="M448.56,290.23H454V301h-5.42V290.23Z" style="fill:#689df6"/><path d="M399.94,241.59h-5.31V230.9h5.31Z" style="fill:#689df6"/><path d="M356.75,311.79v5.38h-5.31v-5.3h5.31Z" style="fill:#689df6"/><path d="M362.21,311.81h-5.46v-5.37h5.4v5.41Z" style="fill:#689df6"/><path d="M454,290.23v-5.3h5.31v5.3Z" style="fill:#689df6"/><path d="M459.34,274.1v5.3H454v-5.3Z" style="fill:#689df6"/><path d="M427,236.22v5.31h-5.31v-5.31H427Z" style="fill:#689df6"/><path d="M389.16,236.29v5.3h-5.31v-5.3Z" style="fill:#689df6"/><path d="M427,236.25v-5.31h5.31v5.31Z" style="fill:#689df6"/><path d="M421.57,355.05v5.31h-5.31v-5.31Z" style="fill:#689df6"/><path d="M362.21,306.43v-5.31h5.4v5.31h-5.4Z" style="fill:#689df6"/><path d="M416.17,263.21h5.43V279.4h-5.39v5.31H405.38V279.4h5.37v-5.3h5.42Z" style="fill:#689df6"/><path d="M394.57,279.4H400v10.75h-5.42Z" style="fill:#689df6"/><path d="M405.43,290.26h5.31V301h-5.31Z" style="fill:#689df6"/><path d="M421.57,311.8v5.31h-5.31V311.8Z" style="fill:#689df6"/><path d="M448.56,301v5.42h-5.43V301Z" style="fill:#689df6"/><path d="M443.12,333.38h-5.31v-5.31h5.31Z" style="fill:#689df6"/><path d="M464.71,257.8H448.56V241.69h16.1Z" style="fill:#689df6"/><path d="M367.61,257.8H351.43V241.69h16.18Z" style="fill:#689df6"/><path d="M351.43,355V338.85h16.1V355Z" style="fill:#689df6"/><polyline points="325.07 229.24 325.07 215.58 339.47 215.58" style="fill:none;stroke:#689df6;stroke-miterlimit:10;stroke-width:4px"/><polyline points="489.44 229.24 489.44 215.58 475.04 215.58" style="fill:none;stroke:#689df6;stroke-miterlimit:10;stroke-width:4px"/><polyline points="489.44 365.55 489.44 379.2 475.04 379.2" style="fill:none;stroke:#689df6;stroke-miterlimit:10;stroke-width:4px"/><polyline points="325.07 365.55 325.07 379.2 339.47 379.2" style="fill:none;stroke:#689df6;stroke-miterlimit:10;stroke-width:4px"/><path d="M266.41,340.74l.53-3.18a1.83,1.83,0,0,1,1.52-1.51l3.17-.52a1.85,1.85,0,0,0,0-3.64l-3.17-.51a1.85,1.85,0,0,1-1.52-1.52l-.53-3.18a1.83,1.83,0,0,0-3.62,0l-.53,3.18a1.85,1.85,0,0,1-1.51,1.52l-3.17.51a1.85,1.85,0,0,0,0,3.64l3.17.52a1.83,1.83,0,0,1,1.51,1.51l.53,3.18a1.83,1.83,0,0,0,3.62,0Z" style="fill:#f9fffe"/><path d="M516.5,75.69l.69-4.21a2.44,2.44,0,0,1,2-2l4.2-.69a2.43,2.43,0,0,0,0-4.79l-4.2-.69a2.43,2.43,0,0,1-2-2l-.69-4.19a2.43,2.43,0,0,0-4.79,0L511,61.3a2.41,2.41,0,0,1-2,2l-4.2.69a2.43,2.43,0,0,0,0,4.79l4.2.69a2.41,2.41,0,0,1,2,2l.71,4.21a2.43,2.43,0,0,0,4.79,0Z" style="fill:#fff"/><path d="M225.6,210l.69-4.2a2.47,2.47,0,0,1,2-2.06l4.19-.69a2.43,2.43,0,0,0,0-4.79l-4.19-.69a2.44,2.44,0,0,1-2-2l-.7-4.19a2.43,2.43,0,0,0-2.79-2,2.46,2.46,0,0,0-2,2l-.69,4.19a2.45,2.45,0,0,1-2,2l-4.21.69a2.43,2.43,0,0,0,0,4.79l4.21.69a2.44,2.44,0,0,1,2,2l.69,4.21a2.43,2.43,0,0,0,4.83.05Z" style="fill:#fee38d"/><circle cx="145.31" cy="295.9" r="5.64" style="fill:#c8dffa"/><circle cx="251.56" cy="128.18" r="5.64" style="fill:#fff"/><circle cx="542.97" cy="145.47" r="5.64" style="fill:#c8dffa"/><circle cx="144.84" cy="172.01" r="5.64" style="fill:#c8dffa"/><circle cx="647.17" cy="290.26" r="5.64" style="fill:#ffdf98"/><circle cx="542.97" cy="276.25" r="5.64" style="fill:#ffe9bb"/><circle cx="593.58" cy="319.1" r="5.64" style="fill:#f9fffe"/><circle cx="609.76" cy="177.81" r="5.64" style="fill:#f9fffe"/><rect x="348.7" y="414.61" width="114.94" height="39.34" rx="2.47" style="fill:#317af4"/><g style="isolation:isolate"><text transform="translate(383.88 441.2)" style="isolation:isolate;font-size:22.561201095581055px;fill:#fff;font-family:Arial-BoldMT, Arial;font-weight:700;letter-spacing:-0.12422806583417924em">P<tspan x="12.25" y="0" style="letter-spacing:-0.08708950120500648em">A</tspan></text><text transform="translate(413.17 441.2)" style="isolation:isolate;font-size:22.561201095581055px;fill:#fff;font-family:Arial-BoldMT, Arial;font-weight:700;letter-spacing:0.001947826816215354em">Y</text></g><path d="M304.82,560.76l.52,13.27s-6.64,1.91-8.57-2.75l-1.85-11.94Z" style="fill:#ebc0c2"/><path d="M328.36,584.17a4,4,0,0,0-1.52-4,7.58,7.58,0,0,0-3.66-1.62c-1.68-.28-4.46-.88-5.7-1.94l-11-7.13a.63.63,0,0,0-.78.07c-1.08.94-4.22,3.62-5.66,3.53a3.49,3.49,0,0,1-3.23-1.63.28.28,0,0,0-.37-.11.36.36,0,0,0-.1.11c-.66,1.22-2.36,4.73-1.87,7.61a2.05,2.05,0,0,0,1.47,1.62l21,5.44h.22c.83.12,6.47.85,9.71-.31A2.41,2.41,0,0,0,328.36,584.17Z" style="fill:#e4e4e4"/><path d="M209.43,549.09,197,544.5s.77-6.86,5.81-6.88l11.75,2.86Z" style="fill:#ebc0c2"/><path d="M202.18,547.15c-1.54-.66-6.29-3.39-.09-10.14a.58.58,0,0,0,.08-.65c-.64-1.11-3.08-4.4-9.53-4.07a1.31,1.31,0,0,0-1.25,1l-9.82,34.12a3.2,3.2,0,0,0,2.15,4h0a3.17,3.17,0,0,0,4-2l1.22-3.62a4.62,4.62,0,0,1,.75-1.4l12.67-16.53a.34.34,0,0,0,.08-.48A.35.35,0,0,0,202.18,547.15Z" style="fill:#e4e4e4"/><path d="M265.82,490.94s28.85-8,40.21-8.79a8.68,8.68,0,0,1,5.9,1.73c4.08,3.1,10.73,10.75,6.56,26l-10.17,51.28h-16S291,523.52,294.51,514c0,0-26.08,19.06-41.83,7L241.45,493.8Z" style="fill:#0057b8"/><path d="M240.4,478.91l31.44,11.32L284,560.37c-2.15,12.32-12.05,11-12.05,11-5.63,2.41-63.7-20.35-63.7-20.35l5.3-14.6c14.46-1.07,40.16,5.46,40.16,5.46l-11-24.39S227.54,491.55,240.4,478.91Z" style="fill:#0065d6"/><polygon points="239.95 479.39 243.93 475.42 263.16 484.54 257.2 497.25 239.95 479.39" style="fill:#0065d6"/><path d="M243.06,474.93c4.44,4.79,29.7,18,29.7,18-1-8.3,19.59-34.06,19.59-34.06s-5-18.15-10-23.6c0,0-5.31-10-8.69-10.62,0,0-16.1,4.67-17.65,21.81A36.82,36.82,0,0,1,243.06,475" style="fill:#fed141"/><path d="M290.41,453.42c-6.12-24.05-13.66-24.05-13.66-24.05-13.27,1-13,12.78-11.94,19.1a18.59,18.59,0,0,0,2.29,6.29l12,20.66,6.13-7.89Z" style="fill:#bf9d31;opacity:0.1599999964237213;isolation:isolate"/><path d="M349.39,440.85s.46-3.82,9.06-4.34c0,0,9.56-2,14.78-6.75,0,0,4.84-4-13.51-1a.47.47,0,0,1-.53-.33c-.2-.69,0-2,2.26-5.31.37-.54-.27-1.33-.76-1.33-1.23,0-3.51.89-6.63,5.52,0,0-8.58,6.73-12.4,6.27Z" style="fill:#ebc0c2"/><path d="M266.08,447.33c-1-5.64-1.32-15.93,8.28-18.58a8,8,0,0,1,8.24,2.43c2.66,3,6,9,9.08,21a1.73,1.73,0,0,0,2.1,1.24,1.26,1.26,0,0,0,.34-.13l55.16-27.36v31.85S287,483.5,281.13,475.46l-12.84-22.08A18.21,18.21,0,0,1,266.08,447.33Z" style="fill:#fed141"/><path d="M288.51,409.15s3.36,9.47,3,14.2c0,0,.35,5-9.89,2.37l-1.47,7.49-10.9-6.94L277,407.62Z" style="fill:#ebc0c2"/><path d="M288.17,406.65s-.3,8.25-6.41,9c0,0-4.65.93,1,3.91,0,0-3.72,7.8,1.33,12.46a1.23,1.23,0,0,1,.15,1.7c-1.54,1.75-6.64,4.22-23.12-4.08,0,0-9.16-5.31-.61-14.06a17.19,17.19,0,0,0,1.87-2.12C265.76,409.26,278,395.71,288.17,406.65Z" style="fill:#2c4488"/></g></svg>