<svg id="Layer_3" data-name="Layer 3" xmlns="http://www.w3.org/2000/svg" xmlns:xlink="http://www.w3.org/1999/xlink" viewBox="0 0 800 600"><defs><linearGradient id="linear-gradient" x1="1083.76" y1="95.83" x2="1482.03" y2="95.83" gradientTransform="translate(1735.15 602) rotate(180)" gradientUnits="userSpaceOnUse"><stop offset="0" stop-color="#b584ff"/><stop offset="0.13" stop-color="#b887fc" stop-opacity="0.97"/><stop offset="0.34" stop-color="#c18ef5" stop-opacity="0.88"/><stop offset="0.6" stop-color="#cf9be8" stop-opacity="0.75"/><stop offset="0.92" stop-color="#e2acd7" stop-opacity="0.56"/><stop offset="1" stop-color="#e8b1d2" stop-opacity="0.5"/></linearGradient></defs><title>illu3_1</title><ellipse cx="452.25" cy="506.17" rx="199.14" ry="63.81" style="fill:#fff;isolation:isolate"/><g id="Layer_3-2" data-name="Layer 3"><ellipse cx="452.25" cy="506.17" rx="199.14" ry="63.81" style="opacity:0.62;isolation:isolate;fill:url(#linear-gradient)"/><rect x="144.17" y="28.11" width="304.25" height="171.05" rx="3.69" style="fill:#676193"/><g style="isolation:isolate"><text transform="translate(167.45 58.8)" style="isolation:isolate;font-size:14.770243644714355px;fill:#e1e1f4;font-family:MyriadPro-Regular, Myriad Pro;letter-spacing:0.004991824815048668em">T</text><text transform="translate(174.86 58.8)" style="isolation:isolate;font-size:14.770243644714355px;fill:#e1e1f4;font-family:MyriadPro-Regular, Myriad Pro;letter-spacing:0.054017495018473666em">r</text><text transform="translate(180.49 58.8)" style="isolation:isolate;font-size:14.770243644714355px;fill:#e1e1f4;font-family:MyriadPro-Regular, Myriad Pro;letter-spacing:0.04899261176094123em">in</text><text transform="translate(193.62 58.8)" style="isolation:isolate;font-size:14.770243644714355px;fill:#e1e1f4;font-family:MyriadPro-Regular, Myriad Pro;letter-spacing:0.01699203943665573em">a</text><text transform="translate(200.99 58.8)" style="isolation:isolate;font-size:14.770243644714355px;fill:#e1e1f4;font-family:MyriadPro-Regular, Myriad Pro;letter-spacing:-0.10800193159446356em">’</text><text transform="translate(203.72 58.8)" style="isolation:isolate;font-size:14.770243644714355px;fill:#e1e1f4;font-family:MyriadPro-Regular, Myriad Pro;letter-spacing:0.04899261176094123em">s </text><text transform="translate(214.18 58.8)" style="isolation:isolate;font-size:14.770243644714355px;fill:#e1e1f4;font-family:MyriadPro-Regular, Myriad Pro;letter-spacing:0.024000429243214126em">P</text><text transform="translate(222.39 58.8)" style="isolation:isolate;font-size:14.770243644714355px;fill:#e1e1f4;font-family:MyriadPro-Regular, Myriad Pro;letter-spacing:0.04899261176094123em">a</text><text transform="translate(230.25 58.8)" style="isolation:isolate;font-size:14.770243644714355px;fill:#e1e1f4;font-family:MyriadPro-Regular, Myriad Pro;letter-spacing:0.07302609944663913em">r</text><text transform="translate(236.17 58.8)" style="isolation:isolate;font-size:14.770243644714355px;fill:#e1e1f4;font-family:MyriadPro-Regular, Myriad Pro;letter-spacing:0.05801756655900935em">t</text><text transform="translate(241.93 58.8)" style="isolation:isolate;font-size:14.770243644714355px;fill:#e1e1f4;font-family:MyriadPro-Regular, Myriad Pro;letter-spacing:0.049025670203425em">y</text></g><line x1="410.21" y1="45.95" x2="428.19" y2="45.95" style="fill:none;stroke:#e1e1f4;stroke-miterlimit:10"/><line x1="410.21" y1="51.7" x2="428.19" y2="51.7" style="fill:none;stroke:#e1e1f4;stroke-miterlimit:10"/><line x1="410.21" y1="57.46" x2="428.19" y2="57.46" style="fill:none;stroke:#e1e1f4;stroke-miterlimit:10"/><path d="M321.2,151.32l-33.38-19.27a.78.78,0,0,0-1.06.36.6.6,0,0,0-.08.29v38.55a.78.78,0,0,0,.84.74.67.67,0,0,0,.3-.08l33.38-19.27a.8.8,0,0,0,.22-1.1A.77.77,0,0,0,321.2,151.32Z" style="fill:#ff6cc7"/><path d="M241.15,162.37l-4.24-4a34.29,34.29,0,0,1-4.08-4.27,7.48,7.48,0,0,1-1.7-4.9,5.28,5.28,0,0,1,3.07-4.67,4.65,4.65,0,0,1,5.08.42,18.56,18.56,0,0,1,1.94,1.82c.24-.28.53-.69.86-1a5.1,5.1,0,0,1,5.8-1.32,5.55,5.55,0,0,1,3.17,6.22,8.82,8.82,0,0,1-2.34,4.36c-1.53,1.59-3.17,3.12-4.75,4.66C243.09,160.59,242.13,161.46,241.15,162.37Z" style="fill:#ff6cc7"/><path d="M370.39,152l-15.93-9.19a.45.45,0,0,0-.61.15.53.53,0,0,0-.06.24v18.38a.45.45,0,0,0,.44.46.48.48,0,0,0,.23-.07l15.93-9.18a.47.47,0,0,0,.17-.62A.46.46,0,0,0,370.39,152Z" style="fill:#fff8fc"/><line x1="371.06" y1="142.62" x2="371.06" y2="161.58" style="fill:none;stroke:#fff8fc;stroke-linejoin:round;stroke-width:2.5562493801116943px"/><path d="M508.67,168.22l-25.52-31.63S483,115,503.3,127.16c0,0,24.23,27.18,31.44,46.61,0,0-12.2,11.47-47.9,21.08l2.07-14.7,21.73-9.43Z" style="fill:#fec9a7"/><path d="M456.07,118.48S442,121.05,441.43,132c0,0-5.54,63.58,0,88.82,0,0,0,30-2.46,47,0,0,49.35-5.19,66.37-33.29,0,0-2-5.55-10.18-11.83a42,42,0,0,1-4.62-22.39s3.89-26.45,12.4-35.14c0,0,7.21-22.75.18-36.25Z" style="fill:#fec9a7"/><path d="M490.54,200.22s3.89-26.45,12.4-35.15c0,0,7.21-22.74.18-36.25l-47.05-10.3S442,121.08,441.43,132c0,0-5.33,61.15-.3,87.32,11.6.21,35.85.34,51.8-1.75A41.11,41.11,0,0,1,490.54,200.22Z" style="fill:#f27390"/><path d="M378.46,167.29S368.65,156.2,365,156.2c0,0-17.57,1.47-9.24,17,0,0,1.85,4.44,18.31,7.59,0,0,35.51,24.41,45.31,32.55,0,0,8.89,5.22,17,1.87,0,0,5.74-1.87,18.87-57.36,0,0,6.1-37.55-14.43-29.59,0,0-12.57,11.09-17.94,60.48V190S392.33,181.72,378.46,167.29Z" style="fill:#fec9a7"/><path d="M439,71.21s-2.25,49.14,24.66,44.38S477.51,82.3,477.51,82.3L459.8,66.77Z" style="fill:#fec9a7"/><path d="M496.44,122.25a28.36,28.36,0,0,1-2.55,2.69,63.37,63.37,0,0,1-7.14,4.25c-3.11,1.5-8.15,2-16.54-2.77a12.84,12.84,0,0,0-5.77-3.89c-5.82-1.78-10.13,2.61-12.17.89-4-3.33-3.69-13.92,4-24.47a15.25,15.25,0,0,0-1.18-17.34c-2.49-1.8-2.85,2.64-2.85,2.64s1.14,6.23,0,6.51-5.16-4.44-5.16-4.44C446,80.77,439,73,439,73c0-2.48.53-17.34,11.35-27a34.79,34.79,0,0,1,15.91-7.83,31.22,31.22,0,0,1,9.2-.56c12,1.21,25.44,11.46,28.08,24.41,0,0,9.2,25,13.66,29.14,0,0,16.12,23.49-13.11,34.4C504.07,125.59,498.8,120.05,496.44,122.25Z" style="fill:#846d7f"/><path d="M495,302.15s-17.75,33.18-28,44.55c0,0,16.24,28.58,5.62,83,0,0-1.87,22.75,0,35,0,0-8.39,25.52-13.39,26.91h-6.1s1.1-43,0-56.32L445.25,352l11.44-31.91L469,293.45Z" style="fill:#f0be9d"/><path d="M431.73,303.23l-15.26,48.1s12.68,95.11,15.26,115.79c0,0-2.38,33.43-16.24,44.38,0,0,.42,7.22,10.69-.69,0,0,9.15-3.75,13.87-11.52,0,0,8.32-4.16,8.32-18.58,0,0-.9-39.63-.26-50.73a15.28,15.28,0,0,1,.26-2.52c1.11-4.44,1.66-50.22,0-69.09,0,0,9.15-19.42,19.15-34.68,0,0,7.49-13.31,7.49-18.58S431.73,303.23,431.73,303.23Z" style="fill:#fec9a7"/><path d="M412.49,511.14s11.84,7,16.09-4.08l5.36-14.76s5.73-17.57,8.72-17.75c0,0,10.36-4.07,11.65,9.8l-3,40.45h-3.7l-.18-30.7s-8.14,27.55-10.91,28.29c0,0-14.62,5.37-24.05-3C412.49,519.46,404,507.43,412.49,511.14Z" style="fill:#8f7aa0"/><path d="M438,494.48s11.84,7,16.1-4.06l5.36-14.76s5.73-17.57,8.71-17.75c0,0,10.36-4.08,11.65,9.8l-3,40.45h-3.7L473,477.45s-8.14,27.58-10.91,28.33c0,0-14.61,5.36-24.05-3C438,502.81,429.51,490.79,438,494.48Z" style="fill:#8f7aa0"/><path d="M441.24,233.51s47.88,8.62,58.72-6.65c0,0,19.44,17.75,21.66,68.8,0,0-53,29.68-105.15,10.26C416.47,305.92,440.74,247.9,441.24,233.51Z" style="fill:#f27390"/><path d="M164.49,104.73c1.52-2.52,3.12-4.53,5.32-4.53,4.09,0,4.09,11.62,8.18,11.62s4.09-11,8.18-11,4.09,10,8.18,10,4.09-12.29,8.19-12.29,4.08,14.66,8.17,14.66,4.09-23.71,8.18-23.71,4.09,26.73,8.18,26.73,4.1-28,8.19-28,4.09,30.61,8.18,30.61,4.09-22.51,8.19-22.51,4.09,16.51,8.18,16.51,4.09-14.4,8.18-14.4,4.09,12,8.18,12,4.09-12.27,8.18-12.27,4.09,12.12,8.18,12.12,4.1-11.37,8.19-11.37,4.09,10.92,8.18,10.92S313,93.4,317.09,93.4s4.09,24.93,8.18,24.93S329.36,88,333.45,88s4.09,24.47,8.18,24.47,4.09-29,8.19-29,4.09,42.9,8.18,42.9,4.09-32.93,8.19-32.93,4.09,16.22,8.18,16.22,4.09-10.55,8.18-10.55,4.12,11.21,8.18,11.21,4.09-13.76,8.18-13.76,4.1,12.59,8.19,12.59,4.09-13.76,8.18-13.76c2.12,0,3.38,6,4.19,9.51" style="fill:none;stroke:#ff48c7;stroke-miterlimit:10;stroke-width:0.7542356252670288px"/><line x1="149.15" y1="104.85" x2="436.23" y2="104.85" style="fill:none;stroke:#ff48c7;stroke-miterlimit:10;stroke-width:0.7542356252670288px"/><path d="M135.62,104.86c1.19-1.52,2.38-3,4.75-3,4.76,0,4.76,6.09,9.51,6.09s4.76-9.36,9.52-9.36,4.75,9.36,9.51,9.36,4.75-6.09,9.51-6.09,4.75,6.09,9.51,6.09,4.75-13.47,9.51-13.47,4.75,13.47,9.51,13.47,4.76-6.09,9.51-6.09,4.76,11.82,9.51,11.82,4.76-11.82,9.51-11.82,4.76,6.09,9.51,6.09,4.76-6.09,9.51-6.09,4.76,6.09,9.52,6.09,4.75-6.09,9.51-6.09,4.75,6.09,9.51,6.09,4.75-10.18,9.51-10.18,4.56,10.18,9.31,10.18,4.76-6.09,9.51-6.09,4.76,6.09,9.51,6.09,4.76-6.09,9.51-6.09,4.76,6.09,9.51,6.09,4.76-6.09,9.52-6.09,4.75,6.09,9.51,6.09,4.75-6.09,9.51-6.09,4.75,9.38,9.51,9.38,4.75-9.38,9.51-9.38c2.38,0,3.55,1.5,4.76,3" style="fill:none;stroke:#fff8fc;stroke-linejoin:round;stroke-width:0.5px"/></g></svg>