<svg xmlns="http://www.w3.org/2000/svg" viewBox="0 0 700 500"><defs><style>.cls-1{isolation:isolate;}.cls-2,.cls-4{fill:#c6ddfe;}.cls-2{opacity:0.28;}.cls-3{opacity:0.9;}.cls-5{fill:#fff;}.cls-6{fill:#e6e8ec;}.cls-7{fill:#4285f4;}.cls-8{fill:#ebc0c2;}.cls-9{fill:#e4e4e4;}.cls-10{fill:#0057b8;}.cls-11{fill:#0065d6;}.cls-12{fill:#fed141;}.cls-13{fill:#2c4488;}.cls-14{fill:#c6defe;}.cls-15{fill:#b7d1fe;}.cls-16{fill:#ffc954;}.cls-17{fill:#bf973f;}.cls-18{fill:#689df6;}.cls-19{fill:#3264b7;opacity:0.59;}.cls-20{opacity:0.5;}.cls-21{fill:#d5d9ff;}.cls-22{fill:#b7c9fe;}.cls-23{fill:#4e73ef;}.cls-24{fill:#355ae1;}.cls-25,.cls-26{fill:snow;}.cls-25,.cls-33{opacity:0.1;}.cls-27,.cls-29{fill:none;stroke:snow;stroke-linecap:round;stroke-linejoin:round;}.cls-27{stroke-width:2.75px;}.cls-28{fill:#c8dffa;}.cls-29{stroke-width:1.79px;}.cls-30{fill:#96c4fa;}.cls-31{fill:#5678d9;}.cls-32{fill:#f3f4f5;}.cls-34{fill:#000100;}.cls-35{fill:#313133;}.cls-36{fill:#5d66d3;}.cls-37{fill:#f9fffe;}.cls-38{fill:#ffe9bb;}.cls-39{fill:#fee38d;}.cls-40{fill:#ffdf98;}.cls-41{fill:#fffffe;}.cls-42{mix-blend-mode:soft-light;}</style></defs><title>jiomoney_1</title><g class="cls-1"><g id="_1" data-name="1"><path class="cls-2" d="M82.55,321.22C78.62,292.72,86,252.56,112,230.41c14.18-12.09,26.65-12.62,45-32.87,5.49-6.06,14.64-16.36,20.76-32,8.56-21.9,3.08-33.57,6.92-50.16,6.07-26.24,30.06-41.44,49.3-53.63C311.82,12.4,416.38,39.5,425.05,41.86,455,50,522.36,68.42,567.75,135.27,581,154.71,623,222.6,601.48,305.65c-3.41,13.19-17,62.77-62.27,99.47-43,34.87-89.53,36.69-180.76,38.92-96.2,2.34-165.23,3.06-223.14-43.25C118.54,387.38,88.23,362.4,82.55,321.22Z"/><g class="cls-3"><rect class="cls-4" x="423.08" y="175.06" width="5.12" height="42.22" rx="1.32"/><rect class="cls-4" x="252.83" y="141.98" width="2.87" height="13.9" rx="1.32"/><rect class="cls-4" x="252.72" y="167.43" width="3.24" height="24.19" rx="1.32"/><rect class="cls-4" x="252.78" y="200.09" width="3.08" height="24.4" rx="1.32"/><rect class="cls-5" x="254.46" y="96.05" width="171.39" height="348.32" rx="22.55"/><rect class="cls-6" x="323.62" y="106.45" width="23.93" height="4.86" rx="2.24"/><circle class="cls-6" cx="353.93" cy="108.88" r="2.76"/></g><path class="cls-7" d="M401.63,105.12H382v2.36a11.21,11.21,0,0,1-11.21,11.21H308.27a11.21,11.21,0,0,1-11.21-11.21h0v-2.36H278.65a13.6,13.6,0,0,0-13.6,13.6h0v303a13.59,13.59,0,0,0,13.6,13.61h123a13.61,13.61,0,0,0,13.61-13.61V118.73A13.61,13.61,0,0,0,401.63,105.12Z"/><path class="cls-8" d="M278,425l3.68,9.28s-4.24,3-6.78.2l-4.31-8Z"/><path class="cls-8" d="M195,357.27l-7.33-6.79s2.52-4.55,6-3.1l7.35,5.38Z"/><path class="cls-9" d="M281.47,432.27c-.15,1.26-1.13,5.27-7.31,2.2a.43.43,0,0,0-.49.08c-.68.7-2.54,3.16-.94,7.75a1,1,0,0,0,1,.7l26.72-.07a2.42,2.42,0,0,0,2.41-2.39h0a2.41,2.41,0,0,0-2.32-2.44l-2.88-.12a3.81,3.81,0,0,1-1.16-.24l-14.63-5.69A.27.27,0,0,0,281.47,432.27Z"/><path class="cls-9" d="M190.52,353.83c-.88-.91-3.4-4.19,2.87-7.08a.42.42,0,0,0,.25-.43c-.13-1-.87-4-5.46-5.59a1,1,0,0,0-1.15.32l-16.69,20.86a2.41,2.41,0,0,0,.35,3.37h0a2.41,2.41,0,0,0,3.36-.27l1.89-2.17a3.69,3.69,0,0,1,.92-.75l13.6-7.84A.26.26,0,0,0,190.52,353.83Z"/><path class="cls-10" d="M236.42,324.81s-11.47,8.48-12,41.89l-22.94-16.46-7.48,9s18,27.43,31.91,28.43c0,0,12,5.48,27.93-57.85Z"/><path class="cls-11" d="M247.4,323.81s-13.47,13.47-4,35.41c0,0,21.94,46.88,25.43,68.32h12.47s-16-95.25-18.46-99.24Z"/><path class="cls-8" d="M308.71,264.12s-1.34-2.58,3.8-6.55c0,0,5.12-5.27,6.34-10.48,0,0,1.34-4.5-8.82,5.14a.36.36,0,0,1-.47,0c-.42-.34-.83-1.28-.83-4.24,0-.49-.7-.69-1-.47-.76.54-1.82,2-1.76,6.23,0,0-2.48,7.83-5.06,9.16Z"/><path class="cls-8" d="M184.79,299.53s-6.08-2.27-13,9c0,0-5.77.61-1.38-7.45l3.49-5.63s.9-2.43-2.75-3.79c0,0-2-2.12.91-2.43,0,0,4.41,3,7.3,2.72l5.32.6"/><path class="cls-12" d="M302.25,257c-8.36,19.12-24,31.24-30,35.34a2.72,2.72,0,0,1-2.84.14c-10.24-5.57-18.89-4.38-23.46-3a15.61,15.61,0,0,0-4.58,2.24c-4.34,3.11-22.36,13-58.78-2.82v26.93s39.39,4,59.84-10.48v-.5a21.79,21.79,0,0,1-6,19.95l30.42,12c0-17.45,3.91-24.1,4.9-30.07l.09.65c35.41-8.48,44.38-35.91,44.38-35.91Z"/><path class="cls-8" d="M267.21,273s5.07,5.63,6.19,9c0,0,1.69,3.38-6.19,4.51l1.12,5.63-9.58-1.69V275.23Z"/><path class="cls-13" d="M267.77,271.29s.56,6.19-3.94,7.32c0,0-3.39,1.13,1.12,2.82,0,0-2.06,6.18,2.2,9.19a.92.92,0,0,1,.26,1.26c-1,1.45-4.57,3.77-17.67-.87,0,0-7.35-3.15-1.78-10.47a17.47,17.47,0,0,0,1.2-1.75C251.27,275.35,259.11,264.07,267.77,271.29Z"/><polygon class="cls-14" points="465.53 407.6 467.37 416.81 470.33 416.81 500.53 416.81 504.21 407.6 465.53 407.6"/><polygon class="cls-15" points="472.9 438.92 469.21 416.81 498.94 416.81 495 438.92 472.9 438.92"/><path class="cls-16" d="M490.71,395s11.06-12.89,1.85-14.73a5.71,5.71,0,0,0-3.69,1.84s-1.84,0,0-3.68c0,0,5.53-7.37-1.84-11.06,0,0-3.68-1.84-7.37,3.69,0,0-1.84,1.84-1.84-1.84,0,0,5.53-9.21,3.68-12.9,0,0-1.84-3.68-5.52-1.84,0,0-1.85.67-3.51,3.8,0,0-2.29.67-1.2-2.71,0,0,3.93-13.16-1.34-14.82,0,0-4.07-2.26-5.88,2.71,0,0-2.18,1.69-2.33-3.22,0,0-1.88-4.54-6-3.63,0,0-6,.75,2.18,10.77,0,0,2.56,2.41-1,2.41,0,0-4.59-.68-2.71,4.37,0,0,2,3.31,7.38,5.2,0,0,2.11,1.65-2.26,2.56,0,0-4.59.52-2.63,5.12,0,0,2.63,5.27,10.39,5.42,0,0,3.32,1.51-1,2.71,0,0-6.26-.12-4.45,4.44,0,0,.4,2.36,8.26,5,0,0,2.6,2.52-2.12,2.91,0,0-7.32-1.65-7.48,1.42,0,0-1.88,3.85,7.95,6.6Z"/><path class="cls-17" d="M483.69,398.84s-7.43-29.36-19.11-45.47c0,0,15,37.85,14.35,45.74Z"/><path class="cls-18" d="M472.9,407.6s-11.06-12.89-1.85-14.73a5.71,5.71,0,0,1,3.69,1.84s1.84,0,0-3.69c0,0-5.53-7.36,1.84-11,0,0,3.68-1.84,7.37,3.69,0,0,1.84,1.84,1.84-1.85,0,0-5.53-9.21-3.68-12.89,0,0,1.84-3.68,5.52-1.84,0,0,1.85.67,3.51,3.79,0,0,2.29.68,1.2-2.7,0,0-3.93-13.17,1.34-14.82,0,0,4.07-2.26,5.87,2.71,0,0,2.19,1.69,2.34-3.23,0,0,1.88-4.53,5.95-3.63,0,0,6,.76-2.18,10.78,0,0-2.56,2.41,1,2.41,0,0,4.59-.68,2.71,4.37,0,0-2,3.31-7.38,5.19,0,0-2.11,1.66,2.26,2.56,0,0,4.59.53,2.63,5.13,0,0-2.63,5.27-10.39,5.42,0,0-3.32,1.51,1,2.71,0,0,6.26-.12,4.45,4.44,0,0-.4,2.36-8.26,5,0,0-2.6,2.51,2.12,2.91,0,0,7.32-1.66,7.47,1.41,0,0,1.89,3.86-7.94,6.61Z"/><path class="cls-19" d="M481.44,407.83s7.43-29.36,19.11-45.47c0,0-15,37.85-14.35,45.74Z"/><g class="cls-20"><polygon class="cls-21" points="132.36 389.59 133.51 395.34 135.36 395.34 154.2 395.34 156.5 389.59 132.36 389.59"/><polygon class="cls-22" points="136.96 409.13 134.66 395.34 153.21 395.34 150.75 409.13 136.96 409.13"/><path class="cls-16" d="M148.08,381.75s6.89-8,1.15-9.19a3.56,3.56,0,0,0-2.3,1.15s-1.15,0,0-2.3c0,0,3.45-4.6-1.15-6.9,0,0-2.3-1.15-4.6,2.3,0,0-1.15,1.15-1.15-1.15,0,0,3.45-5.74,2.3-8a2.52,2.52,0,0,0-3.45-1.15,4.84,4.84,0,0,0-2.19,2.37s-1.43.42-.74-1.69c0,0,2.45-8.22-.84-9.25,0,0-2.54-1.41-3.67,1.69,0,0-1.36,1.05-1.45-2,0,0-1.18-2.83-3.72-2.27,0,0-3.76.47,1.37,6.72,0,0,1.59,1.51-.62,1.51,0,0-2.86-.42-1.69,2.73a9.07,9.07,0,0,0,4.61,3.24s1.32,1-1.41,1.6a2.07,2.07,0,0,0-1.65,3.19s1.65,3.29,6.49,3.39c0,0,2.07.94-.61,1.69,0,0-3.91-.08-2.78,2.77,0,0,.25,1.47,5.16,3.09,0,0,1.62,1.57-1.33,1.82,0,0-4.56-1-4.66.88,0,0-1.18,2.41,4.95,4.12Z"/><path class="cls-17" d="M143.7,384.12s-4.64-18.32-11.93-28.37c0,0,9.38,23.62,9,28.54Z"/><path class="cls-23" d="M137,389.59s-6.9-8-1.15-9.2a3.56,3.56,0,0,1,2.3,1.15s1.15,0,0-2.3c0,0-3.45-4.59,1.15-6.89,0,0,2.3-1.15,4.6,2.3,0,0,1.15,1.15,1.15-1.15,0,0-3.45-5.75-2.3-8.05a2.52,2.52,0,0,1,3.45-1.15,4.84,4.84,0,0,1,2.19,2.37s1.42.42.74-1.69c0,0-2.45-8.21.84-9.25,0,0,2.54-1.41,3.66,1.7,0,0,1.37,1.05,1.46-2,0,0,1.18-2.83,3.72-2.26,0,0,3.76.47-1.37,6.72,0,0-1.6,1.5.61,1.5,0,0,2.87-.42,1.7,2.73a9,9,0,0,1-4.61,3.24s-1.32,1,1.41,1.6c0,0,2.87.33,1.64,3.2,0,0-1.64,3.29-6.48,3.38,0,0-2.07.94.61,1.7,0,0,3.91-.08,2.78,2.76,0,0-.25,1.48-5.16,3.1,0,0-1.62,1.57,1.33,1.81,0,0,4.56-1,4.66.89,0,0,1.18,2.4-5,4.12Z"/><path class="cls-24" d="M142.29,389.73s4.64-18.32,11.93-28.37c0,0-9.38,23.62-9,28.54Z"/></g><path class="cls-25" d="M393.65,170.63h0a4.92,4.92,0,0,0-4.92-4.92H358.84a4.91,4.91,0,0,1-4.91-4.91h0a4.92,4.92,0,0,1,4.91-4.92h23.88a4.91,4.91,0,0,0,4.92-4.91h0a4.91,4.91,0,0,0-4.92-4.91H304.35a4.91,4.91,0,0,0-4.91,4.91h0a4.91,4.91,0,0,0,4.91,4.91H317a4.92,4.92,0,0,1,4.91,4.92h0a4.91,4.91,0,0,1-4.91,4.91H292a4.92,4.92,0,0,0-4.91,4.92h0a4.91,4.91,0,0,0,4.91,4.91H331.9a4.92,4.92,0,0,1,4.92,4.92h0a4.91,4.91,0,0,1-4.92,4.91H320.84a4.92,4.92,0,0,0-4.92,4.92h0a4.91,4.91,0,0,0,4.92,4.91h62.49a4.91,4.91,0,0,0,4.91-4.91h0a4.92,4.92,0,0,0-4.91-4.92H373a4.91,4.91,0,0,1-4.91-4.91h0a4.92,4.92,0,0,1,4.91-4.92h15.74A4.91,4.91,0,0,0,393.65,170.63Z"/><path class="cls-25" d="M404.14,392.52H364.25a4.91,4.91,0,0,1-4.91-4.91h0a4.91,4.91,0,0,1,4.91-4.92h33.89a4.91,4.91,0,0,0,4.91-4.91h0a4.91,4.91,0,0,0-4.91-4.92H383a5.29,5.29,0,0,0-.81-.08H371.86a4.91,4.91,0,0,1-4.91-4.92h0a4.91,4.91,0,0,1,4.91-4.91H387.6a4.92,4.92,0,0,0,0-9.83H337.71a4.91,4.91,0,0,1-4.92-4.91h0a4.91,4.91,0,0,1,4.92-4.91h43.88a4.91,4.91,0,0,0,4.91-4.91h0a4.91,4.91,0,0,0-4.91-4.92H303.22a4.92,4.92,0,0,0-4.92,4.92h0a4.91,4.91,0,0,0,4.92,4.91h12.61a4.91,4.91,0,0,1,4.92,4.91h0a4.91,4.91,0,0,1-4.92,4.91H290.9a4.92,4.92,0,0,0,0,9.83h39.87a4.91,4.91,0,0,1,4.91,4.91h0a4.91,4.91,0,0,1-4.91,4.92H319.7a5,5,0,0,0,.06,9.91h12.62a4.91,4.91,0,0,1,4.91,4.92h0a4.91,4.91,0,0,1-4.91,4.91H287.45a4.92,4.92,0,1,0,0,9.83h59.86a4.92,4.92,0,0,1,4.92,4.92h0a4.91,4.91,0,0,1-4.92,4.91H326.25a4.92,4.92,0,1,0,0,9.83h72.49a4.92,4.92,0,1,0,0-9.83H388.41a4.91,4.91,0,0,1-4.92-4.91h0a4.92,4.92,0,0,1,4.92-4.92h15.73a4.92,4.92,0,1,0,0-9.83Z"/><polygon class="cls-26" points="334.49 204.6 307.64 227.22 320.84 229.57 306.9 254.61 339.06 227.11 323.17 224.28 334.49 204.6"/><g id="insurance"><path class="cls-26" d="M339.86,162.48s5.74-19.87,27.1-17.35c0,0,20.08,2.58,20.74,24.6,0,0-6.25-5.51-15.41.68,0,0-6.6-10.69-17.9-2.71C354.39,167.7,349.59,159.1,339.86,162.48Z"/><path class="cls-27" d="M364.22,163.18l-3.68,24.28a4.61,4.61,0,0,1-.68,1.83,3.77,3.77,0,0,1-4.35,1.51,3.58,3.58,0,0,1-2.67-4.51,1.87,1.87,0,0,1,.07-.22"/><path class="cls-28" d="M367,145.13c-11.54,5.82-12.57,22.57-12.57,22.57,11.3-8,17.9,2.71,17.9,2.71C376.14,150.88,367,145.13,367,145.13Z"/></g><g id="wifi"><rect class="cls-26" x="357.34" y="260.9" width="15.54" height="11.43" transform="translate(-38.51 62.95) rotate(-9.36)"/><path class="cls-29" d="M368.24,256.28a7.21,7.21,0,0,0-9.53,1.5"/><path class="cls-29" d="M370.35,252.68a10.19,10.19,0,0,0-14.55,2"/><path class="cls-29" d="M372.4,249a13.42,13.42,0,0,0-11-3,13.28,13.28,0,0,0-8.27,5.2"/><path class="cls-28" d="M357.65,270.39h22.86a0,0,0,0,1,0,0v32.28a7.19,7.19,0,0,1-7.19,7.19h-8.48a7.19,7.19,0,0,1-7.19-7.19V270.39a0,0,0,0,1,0,0Z" transform="translate(-42.28 63.91) rotate(-9.36)"/><rect class="cls-7" x="358.99" y="263.25" width="4.15" height="1.21" transform="translate(-38.11 62.25) rotate(-9.36)"/><rect class="cls-7" x="365.89" y="262.11" width="4.15" height="1.21" transform="translate(-37.84 63.36) rotate(-9.36)"/></g><g id="gas_tank" data-name="gas tank"><rect class="cls-28" x="298.79" y="363.9" width="19.16" height="6.12" rx="0.73" transform="translate(-40.14 37.88) rotate(-6.6)"/><rect class="cls-28" x="300.67" y="324" width="6.98" height="10.61" transform="translate(-35.84 37.14) rotate(-6.6)"/><rect class="cls-28" x="293.7" y="325.09" width="2.05" height="10.61" transform="translate(-36.02 36.07) rotate(-6.6)"/><rect class="cls-28" x="312.73" y="322.89" width="2.05" height="10.61" transform="translate(-35.64 38.24) rotate(-6.6)"/><path class="cls-26" d="M298.16,330h16.63a6,6,0,0,1,6,6v24a6.62,6.62,0,0,1-6.62,6.62H298.8a6.62,6.62,0,0,1-6.62-6.62V336A6,6,0,0,1,298.16,330Z" transform="translate(-38 37.54) rotate(-6.6)"/><rect class="cls-26" x="290.7" y="320.8" width="25.09" height="3.63" rx="1.82" transform="translate(-35.07 36.99) rotate(-6.6)"/><polygon class="cls-28" points="291.75 345.39 292.8 354.44 321.16 350.89 320.16 342.25 291.75 345.39"/></g><path class="cls-26" d="M401,425.07a3.15,3.15,0,0,1,.69-6.26h0l.12-1.05h0a3.15,3.15,0,1,1,.69-6.26h0l.24-2.15h0a3.14,3.14,0,1,1,.7-6.25h0l.2-1.78h0a3.14,3.14,0,1,1,.69-6.25h0l.21-2-62.41-6.89-.2,1.81v.15a3.14,3.14,0,1,1-.7,6.25l-.19,1.78a3.15,3.15,0,0,1-.69,6.26l-.24,2.15a3.14,3.14,0,0,1-.69,6.25l-.12,1.05a3.15,3.15,0,0,1-.69,6.26l-.29,2.61,62.41,6.9.29-2.62Z"/><rect class="cls-28" x="359.69" y="393.81" width="32.81" height="27.87" transform="translate(47.06 -38.84) rotate(6.31)"/><path class="cls-30" d="M358.72,414.76l16.28,1.9a3.93,3.93,0,0,0,4.37-3.45l1.28-10.93a3.93,3.93,0,0,0-3.46-4.36L360.91,396Z"/><ellipse class="cls-31" cx="369.18" cy="416.16" rx="3.56" ry="3.56" transform="translate(-178.57 318.91) rotate(-38.36)"/><path class="cls-32" d="M368.72,414.65a1.58,1.58,0,1,1-1.06,2A1.59,1.59,0,0,1,368.72,414.65Z"/><g class="cls-33"><path class="cls-34" d="M368.28,415.46a1.25,1.25,0,0,0-.43.78.88.88,0,0,1,.13-.83,1.37,1.37,0,0,1,.2-.22l.25-.19a.94.94,0,0,1,.82,0c-.09,0-.37.11-.44.15A2.32,2.32,0,0,0,368.28,415.46Z"/></g><path class="cls-30" d="M371.46,396.28l-4.27-.5a.74.74,0,0,0-.79.5l-1,3,7,.81-.27-3.18A.74.74,0,0,0,371.46,396.28Z"/><path class="cls-31" d="M374.17,400.18h3.06a2.29,2.29,0,0,1,2.29,2.29v3a0,0,0,0,1,0,0h-5.35a0,0,0,0,1,0,0v-5.3A0,0,0,0,1,374.17,400.18Z" transform="translate(49.27 -40.99) rotate(6.66)"/><rect class="cls-31" x="367.84" y="399.44" width="5.3" height="5.3" transform="translate(49.14 -40.26) rotate(6.66)"/><rect class="cls-31" x="361.43" y="398.69" width="5.3" height="5.3" transform="translate(49.01 -39.52) rotate(6.66)"/><rect class="cls-28" x="377.92" y="408.96" width="1.83" height="1.83" transform="translate(50.1 -41.18) rotate(6.66)"/><g class="cls-33"><path class="cls-35" d="M370.55,399.63l-2.21-.26-.25,2.15A2.19,2.19,0,0,1,370.55,399.63Z"/></g><g class="cls-33"><path class="cls-35" d="M367.58,404.41l5.23.61.42-3.6S372.32,405,367.58,404.41Z"/></g><g class="cls-33"><path class="cls-35" d="M364.13,398.88l-2.21-.26-.25,2.15A2.19,2.19,0,0,1,364.13,398.88Z"/></g><g class="cls-33"><path class="cls-35" d="M361.18,403.66l5.22.61.42-3.6S365.92,404.22,361.18,403.66Z"/></g><line class="cls-31" x1="360.65" y1="398.27" x2="358.88" y2="413.37"/><g class="cls-33"><line class="cls-31" x1="358.83" y1="413.36" x2="359.22" y2="409.97"/></g><g class="cls-33"><path class="cls-35" d="M376.85,400.37l-2.22-.26-.25,2.15A2.19,2.19,0,0,1,376.85,400.37Z"/></g><g class="cls-33"><path class="cls-35" d="M376.19,405.42l3,.35.24-2.07S378.91,405.74,376.19,405.42Z"/></g><path class="cls-36" d="M379.66,410.73h0a.12.12,0,0,1-.11-.14l.14-1.23a.12.12,0,0,1,.14-.11h0a.12.12,0,0,1,.11.14l-.14,1.23A.12.12,0,0,1,379.66,410.73Z"/><path class="cls-5" d="M130.57,300.55l.4,2.4a1.36,1.36,0,0,0,1.14,1.14l2.4.4a1.38,1.38,0,0,1,0,2.73l-2.4.39a1.38,1.38,0,0,0-1.14,1.15l-.4,2.39a1.38,1.38,0,0,1-2.73,0l-.39-2.39a1.4,1.4,0,0,0-1.15-1.15l-2.39-.39a1.38,1.38,0,0,1,0-2.73l2.39-.4a1.38,1.38,0,0,0,1.15-1.14l.39-2.4A1.38,1.38,0,0,1,130.57,300.55Z"/><path class="cls-37" d="M261.75,104.12l.4,2.4a1.38,1.38,0,0,0,1.14,1.14l2.39.39a1.39,1.39,0,0,1,0,2.74l-2.39.39a1.38,1.38,0,0,0-1.14,1.14l-.4,2.4a1.38,1.38,0,0,1-2.73,0l-.4-2.4a1.38,1.38,0,0,0-1.14-1.14l-2.39-.39a1.39,1.39,0,0,1,0-2.74l2.39-.39a1.38,1.38,0,0,0,1.14-1.14l.4-2.4A1.38,1.38,0,0,1,261.75,104.12Z"/><path class="cls-5" d="M512.52,307.75l.52,3.17a1.84,1.84,0,0,0,1.51,1.51l3.16.52a1.83,1.83,0,0,1,0,3.61l-3.16.52a1.83,1.83,0,0,0-1.51,1.51l-.52,3.16a1.83,1.83,0,0,1-3.61,0l-.52-3.16a1.84,1.84,0,0,0-1.51-1.51l-3.17-.52a1.83,1.83,0,0,1,0-3.61l3.17-.52a1.85,1.85,0,0,0,1.51-1.51l.52-3.17A1.83,1.83,0,0,1,512.52,307.75Z"/><path class="cls-38" d="M575.88,271.54l.52,3.17a1.85,1.85,0,0,0,1.51,1.51l3.17.52a1.83,1.83,0,0,1,0,3.61l-3.17.52a1.84,1.84,0,0,0-1.51,1.51l-.52,3.16a1.83,1.83,0,0,1-3.61,0l-.52-3.16a1.83,1.83,0,0,0-1.51-1.51l-3.16-.52a1.83,1.83,0,0,1,0-3.61l3.16-.52a1.84,1.84,0,0,0,1.51-1.51l.52-3.17A1.83,1.83,0,0,1,575.88,271.54Z"/><path class="cls-39" d="M217,212.62l.52,3.17A1.85,1.85,0,0,0,219,217.3l3.16.52a1.83,1.83,0,0,1,0,3.61L219,222a1.85,1.85,0,0,0-1.51,1.51l-.52,3.17a1.83,1.83,0,0,1-3.61,0l-.52-3.17a1.85,1.85,0,0,0-1.51-1.51l-3.17-.52a1.83,1.83,0,0,1,0-3.61l3.17-.52a1.85,1.85,0,0,0,1.51-1.51l.52-3.17A1.83,1.83,0,0,1,217,212.62Z"/><circle class="cls-28" cx="151.31" cy="173.6" r="4.25"/><circle class="cls-28" cx="228.21" cy="163.18" r="4.25"/><circle class="cls-28" cx="456.14" cy="261.27" r="4.25"/><circle class="cls-40" cx="404.42" cy="77.31" r="4.25"/><circle class="cls-38" cx="456.14" cy="162.72" r="4.25"/><circle class="cls-37" cx="494.27" cy="130.43" r="4.25"/><circle class="cls-37" cx="506.46" cy="236.89" r="4.25"/><circle class="cls-41" cx="178.18" cy="268.28" r="4.25"/></g></g></svg>