<svg id="Layer_7" data-name="Layer 7" xmlns="http://www.w3.org/2000/svg" viewBox="0 0 986.28 926.13"><title>my logo</title><path d="M143.1,268.33s112.23-194.69,497-135.14c0,0,251.94,34.36,217.59,203.85,0,0-2.29,75.58-80.17,116.81,0,0,185.52-27.48,226.75,190.1,0,0,34.36,254.24-334.4,300,0,0-224.46,13.74-471.82-183.24C198.07,760.76-40.13,579.82,143.1,268.33Z" transform="translate(-18.86 -18.07)"/><path d="M214,663.67,433.84,114S469-9.74,564.4,23.86c0,0,75.58,36.64,11.45,146.59L276.55,717.12l-10.68,18.32s-6.11,7.13-17.31,0L202.75,712s-11.2-7.89,0-23.16Z" transform="translate(-18.86 -18.07)" style="fill:#fff"/><path d="M595.53,127.28C619.7,50.69,564.4,23.86,564.4,23.86,469-9.74,433.84,114,433.84,114l-4.61,11.52C477.17,120.5,532.32,120.31,595.53,127.28Z" transform="translate(-18.86 -18.07)"/><path d="M562.11,207.1s172.55,4.58,168,132.85c0,0,22.9,135.9-145.07,172.55l129.8,239.74s18.32,62.61,183.24,106.89c0,0-106.89,102.31-285.55-56.5,0,0-35.12-33.59-42.76-64.13L443,465.16s-9.67-9.67,8.65-7.63c0,0,110,19.34,142.52-43.78,0,0-60.06-16.28-60.06-78.38,0,0,1-25.45,12.22-34.62l-40.72-4.07,50.17-89.58Z" transform="translate(-18.86 -18.07)" style="fill:#fff"/><circle cx="248.53" cy="242.98" r="48.23" style="fill:#fff"/><circle cx="791.36" cy="636.18" r="89.06" style="fill:#fff"/><circle cx="145.46" cy="395.68" r="36.52" style="fill:#fff"/><circle cx="153.09" cy="545.33" r="30.03" style="fill:#fff"/><path d="M127.8,759.88s21.5-33.13,84.62-16.57c0,0,60.06,16.57,52.94,70.52,0,0-12.22,58-175.1,90.6,0,0-47.85,7.13-71.26,7.13,0,0-1.53-3.56,5.6-4.58,0,0,39.19-4.07,60.06-20.87,0,0,17.31-10.69,21.89-38.18C106.55,847.93,105.49,775.94,127.8,759.88Z" transform="translate(-18.86 -18.07)"/><path d="M212.42,743.31c-15-3.94-27.68-5-38.26-4.47,14.1,14.47,23.91,21.92,23.91,21.92Q232.29,788,265.74,810C269.64,759.1,212.42,743.31,212.42,743.31Z" transform="translate(-18.86 -18.07)" style="fill:#fff"/><path d="M458.27,90.28l28.63,14.13S488.05,82.65,524.69,41c0,0,7.26-7.64-7.82-4C516.87,37,467.62,47,458.27,90.28Z" transform="translate(-18.86 -18.07)" style="fill:#fff"/></svg>