<svg xmlns="http://www.w3.org/2000/svg" viewBox="0 0 1024 768"><title>illu5</title><g id="Layer_3" data-name="Layer 3"><rect x="-4" y="-3" width="1030.32" height="775" style="fill:#ede3ff"/></g><g id="Layer_1" data-name="Layer 1"><path d="M-104.18,175.34l189-25.62,288.94,28.36L327,236.57a106,106,0,0,0-22.35,52.95l-8.95,71.14s-26.56,60.54-31.9,102.81L-57,444l-47.17-9.36Z" style="fill:#ab85ff;opacity:0.78"/><path d="M-104,772l2-234,384-67.44s-7,176.61-3.49,301.27" style="fill:#ab85ff;opacity:0.78"/><path d="M-31.16,259.23l-9.52,32.15a8.89,8.89,0,0,0,.16,5.56l.83,2.31a54,54,0,0,1,1.85,30.3l-3.89,17.12a8.56,8.56,0,0,0-.22,2.2l.71,29.26a8.92,8.92,0,0,0,7.42,8.58L27.07,397.1a8.93,8.93,0,0,0,7.81-2.48h0A8.75,8.75,0,0,0,37.32,390c2.86-15.74,14.31-31.48,16.19-47.22,1.33-11.08,8-22.17,9.29-33.25,1.63-13.63-5.08-23.81-5.82-37.49-.38-6.94,6.05-17.42,5.12-24.31-3.18-23.44-1.41-39.29,1.42-50.16.55-2.09,1.23-4.4.32-7.06-7.77-22.68-110.76-4.92-126-2.16a9,9,0,0,0-3.47,1.44l-34.64,23.89a8.93,8.93,0,0,0,2.45,15.88l60.76,18.6A8.92,8.92,0,0,1-31.16,259.23Z" style="fill:#ab85ff"/><path d="M271,175.11A22.45,22.45,0,0,1,289.58,206l-3,7.29a83.47,83.47,0,0,0-5.77,22.45,19.14,19.14,0,0,1-.31,2L241.25,423.23A22.46,22.46,0,0,1,217.89,441l-16.28-1a22.44,22.44,0,0,1-21-22.46l.12-51.43a24.27,24.27,0,0,1,.47-4.4,51.35,51.35,0,0,0,.72-5.25,22.19,22.19,0,0,0-.44-6.45l-8.63-40.58a22.37,22.37,0,0,1,.65-11.73c3.34-10,10.15-28.43,10.47-30.37l2.92-17.42a74.22,74.22,0,0,0-8.42-48.47h0a22.45,22.45,0,0,1,21.8-33.29Z" style="fill:#ab85ff"/><path d="M301.05,470.56,305.91,504a61.63,61.63,0,0,1-.49,15.35L278,772l-72-2,45.42-177.13,4.08-50.39a71.86,71.86,0,0,0-3.8-29.59l-7.37-21.06-14.18-28.36Z" style="fill:#ab85ff"/><path d="M-100.15,263.64c8.13-1.37,17.62-2.73,29-4,25.93-3,42.23-3.38,42.55-7.09.54-6.36-46.5-12.85-46.09-17.73.33-3.9,30.89-5.72,113.45-3.54,5.32.46,11.71.22,14.18-3.55,2-3,0-6.15,1.77-8.86,3.36-5.2,16.2-2.45,19.5-1.78,42.12,8.66,67.49-3.26,94-1.77,1.22.07,4.54.29,7.09-1.77s3.35-6,3.54-7.09c.52-3-.2-4.3,0-5.32,1.77-9,78-12,115.22-10.63,1.24,0,6.35.23,7.09-1.78,1.15-3.11-9.51-7.91-8.86-10.63,1.68-7.09,76.35,15.23,88.63-5.32,6.63-11.1-7.61-30.22-8.86-31.91-11.35-15.24-30.36-18.08-39-19.5-77.9-12.72-135.74-11.19-191.44-30.13-3-1-18.1-7.39-37.23-16-15.55-7-26-7.49-33.68-16C33,18,48.17,7.77,33.39-2.73H-104.18" style="fill:#d5c1ff"/><path d="M-101.87,580.83c118.2,8.63,135.07,3.89,137-7.46.82-4.74-6.61-11-3.54-19.5,5.3-14.76,36.09-20,56.72-19.5,15.7.41,19.9,4,28.36,0,12.78-6.08,12.58-18.8,24.82-23,6.9-2.4,10.35.48,24.81,3.54,4.63,1,78.81,9.56,85.09-1.77,4.14-7.47-9.61-18.22-5.32-24.82,3.87-5.95,16.83,0,37.23-1.77,13.75-1.22,16.84-6.47,17.72-14.18,1.21-10.56-52-30.12-92.17-35.45-32.3-4.29-56.33,1.8-74.45-16-6.26-6.13-6.82-10.21-14.18-14.18-20.43-11-46.85,3.89-49.64-1.77-1.71-3.48,8.4-8.81,7.09-14.18-1.74-7.19-22.11-7.2-47.86-8.86-16-1-35.47-3.65-74.45-8.87C-73.2,369.23-92.14,363.1-104,355Z" style="fill:#d5c1ff"/></g><g id="Layer_2" data-name="Layer 2"><path d="M244.23,452s23.69,13.44,22.33,17.4c0,0-6.75,14.49-39.71,2.28l-10.53-5.39s-9.25-1.4-14.49-6.74c0,0-7.82-13.3,6.82-22.43Z" style="fill:#ffd000"/><path d="M368.87,437.4S396,435,397.13,439c0,0,2.68,15.75-31.38,24.43L354,465s-8.41,4.09-15.76,2.67c0,0-14-6.51-7.13-22.33Z" style="fill:#e8bd00"/><path d="M355.75,150.28s22.39-6.23,37.33,6.58c0,0,4.27,6.41,0,8.54,0,0-19.21-6.4-21.35-4.27,0,0-10.67,6.41-19.22,2.14l-2.13-10.68,5.37-2.31" style="fill:#ff9395"/><path d="M345.88,168.38s22.39-6.23,37.33,6.58c0,0,4.27,6.41,0,8.54,0,0-19.21-6.4-21.35-4.27,0,0-10.68,6.41-19.22,2.14l-2.13-10.68,5.37-2.31" style="fill:#ff9395"/><polygon points="282.08 142.5 358.79 147.04 355.24 168.43 273.24 161.85 271.59 143.75 282.08 142.5" style="fill:#9e2043"/><path d="M243.62,130.59s-18.09,11.52-21.38,23c0,0-7.53,25.59.46,60.93a48.22,48.22,0,0,1,1.18,10.5v38.8h75.68s1.65-50.45-2.47-71.29h0S281,148.27,271.37,136.14s-27.75-5.55-27.75-5.55" style="fill:#ff2e57"/><path d="M246.92,263.85h52.64l43.28,72.65a25.28,25.28,0,0,1,3.4,10.09l10.9,96.59-28,9.87-21-98.53a52.12,52.12,0,0,0-8-18.53L270,291.82Z" style="fill:#633edb"/><path d="M293,87.6s5.14,50.27-20.33,40.22l-1.34,10.05s-21,6.48-27.71-8c0,0,3.13-20.11,6.71-21.67l7.59-19.22,13.19-4.47L280.44,82Z" style="fill:#ffadae"/><path d="M273.91,128.71c.59-.6-15.37-5.58-19.16-13.52,0,0,3.35,15.76,16.75,22.57C271.5,137.76,270.51,132.18,273.91,128.71Z" style="fill:#ff9395"/><path d="M304.18,62.63s9.89,29.16-14.75,25.64c0,0-14.74-5-16.59,2.68,0,0-8,32.39-26.6,26,0,0-3.73.46-4.23-19.48,0,0-4.36-32.68,18.6-29.5,1.17-.17,6.7,1.34,8.38-2.68,0,0,6.7-6.2,12.57.17,0,0,9.55,4.3,11.39-2.88C293,62.6,297.65,56.09,304.18,62.63Z" style="fill:#1f1440"/><path d="M243.62,153.62s-11.51-1.64-14.8,13.17c0,0-4.94,16.45,9.87,21.38,0,0,57.58,9.87,113.52,0,0,0-4.94-19.74-3.29-24.67Z" style="fill:#bc2650"/><path d="M225.53,263.85,224,347.47a21.49,21.49,0,0,1-.4,3.74l-17.83,92,28,4.93c7.44-29.74,24.28-85,27.45-95.37a18.5,18.5,0,0,0,.72-3.46c1.15-9.94,6.91-59.46,11.32-85.43Z" style="fill:#7348ff"/><path d="M242.13,101c-.58-.15,2.47-1.62,1.11-2.24-.59-.27-6.7.82-7,1.42-.39.94-.93,2.34-1.52,4a1.1,1.1,0,0,1-.5.62,14.14,14.14,0,0,0-3.12,2.24s-1.16-.13.56,5.06a1.22,1.22,0,0,1,.06.46A110.24,110.24,0,0,1,229,129.48a1.14,1.14,0,0,0,1.9,1.12l8.9-8.66a1.13,1.13,0,0,0,.33-.64c.22-1.45.95-6.81.22-9.66,0,0-.67-1.28.47-4.37a7.1,7.1,0,0,1,4.14-4.79l-2.53-1.42A1.17,1.17,0,0,0,242.13,101Z" style="fill:#d6af00"/><path d="M243.56,107.05c.68,3.31,1,10.12-5.83,14.68a1.24,1.24,0,0,0-.22.18c-1.08,1.14-11.4,12.09-14,15.76a1.45,1.45,0,0,0,.11,1.8,16.22,16.22,0,0,1,3.27,5.18,1.45,1.45,0,0,0,2.41.56c5.2-5.23,18.58-19.37,20.53-28.52,0,0,.53-1.15-.81-3.71a26.37,26.37,0,0,1-2.35-6.33,1.51,1.51,0,0,0-1.3-1.3l-.21,0A1.45,1.45,0,0,0,243.56,107.05Z" style="fill:#f5c800"/><path d="M242.76,103.86s-3.11-4.76.28-6.4c0,0,14.57-5.62,20.28-5.86h.14a120.09,120.09,0,0,1,13.45,1.46s9.54,1,11.57.84l5.49,0a1.52,1.52,0,0,1,1.44,2,9.55,9.55,0,0,1-1.23,2.43,1.51,1.51,0,0,0-.24.57,2.8,2.8,0,0,0,.59,2.16,1.34,1.34,0,0,1,.32,1l-.18,1.69a1.49,1.49,0,0,0,.23,1c.2.3.48.73.75,1.19a1.49,1.49,0,0,1-1.25,2.26c-8.94.22-42.35.79-51-2.57Z" style="fill:#ffd000"/></g><g id="Layer_4" data-name="Layer 4"><rect x="411.56" y="2.09" width="612.67" height="367.91" style="fill:#e7dcff"/><path d="M871.54,85.41h98.17s1-24.46-26.39-22.85c0,0-11.27-22.21-38.47-12.07,0,0-12.23,5.63-14,18.67C890.85,69.16,875.88,68.19,871.54,85.41Z" style="fill:#ab85ff;opacity:0.31"/><path d="M542.47,66.63h61.75S606.58,48,588.66,42.38c0,0-15.77-3.44-23.39,11.26C565.27,53.64,545.42,46,542.47,66.63Z" style="fill:#ab85ff;opacity:0.31"/><path d="M871.54,293.88h77.14s.91-11.11-15.1-13.92c0,0-5.28-19.92-26.93-16.65,0,0-11.46,3.1-14.55,11.83C892.1,275.14,871.36,272.77,871.54,293.88Z" style="fill:#ab85ff;opacity:0.31"/><path d="M515.23,109.52s-6.81-9.33-7.65-20.72a4.06,4.06,0,0,0-1.38-2.87,3.6,3.6,0,0,0-1.82-.83,2.84,2.84,0,0,0-3,2.89v35h-3.28l.78,13.7s14.66,1.59,16.39-.36l2.32-23.18Z" style="fill:#ffd000"/><path d="M501.71,222.41s-11.4-1.89-20-9.44a4.09,4.09,0,0,0-3-1.08,3.59,3.59,0,0,0-1.88.69,2.82,2.82,0,0,0-.14,4.18l24.52,25-2.34,2.3L509,253.32s11.58-9.14,11.45-11.74l-14.56-18.17Z" style="fill:#ffd000"/><path d="M693.06,176.17,628.89,129.9a22.52,22.52,0,0,0-10.38-4.09l-101-12.63-2.32,23.18,88.86,14.69a24.55,24.55,0,0,1,12,5.72l56.14,49.17,34.71,12.92Z" style="fill:#633edb"/><path d="M696.22,205.94,603.12,173a8.55,8.55,0,0,0-6.89.53l-90.3,49.87,14.56,18.17,79.41-37.44a6.85,6.85,0,0,1,6.94.64l47.55,34.32c1.54,1.18,3.42,2.56,5.49,4a54.18,54.18,0,0,0,31.66,9.46l7.27-.12Z" style="fill:#7348ff"/><path d="M780.81,151.85s-14.25-11.43-22-12.68l-65.75,37s-7,50.75,5.75,76.25c0,0,19.5,1.75,54.25-15.25l51-21.27s3-40.48-4.46-51.23Z" style="fill:#ff2e57"/><path d="M805.56,106.8s-41.36,25.1-19,38.75l-6.91,6.83s7.18,19.78,22.14,16.51c0,0,13.55-14,12.68-17.63l10.29-16.9-4.2-12.64-3.54-8.59Z" style="fill:#ffadae"/><path d="M785.16,145.08c.12-.8,13.14,8.51,21.39,6.83,0,0-14,6.54-26.91.23C779.64,152.14,784.48,149.68,785.16,145.08Z" style="fill:#ff9395"/><path d="M818.15,83.81s-28,9.29-11.07,26.07c0,0,12.35,8.36,7.53,14.21,0,0-20.11,24.82-4.51,35.34,0,0,1.8,3.11,17.32-8,0,0,27.47-15.54,11.79-31.23-.55-1-4.9-4.34-2.79-8,0,0,.86-8.69-7.39-9.5,0,0-8.8-4.8-4.38-10.36C824.65,92.37,826.91,85,818.15,83.81Z" style="fill:#1f1440"/><path d="M658.75,77.73s-16.25-14-14.67-34.22c0,0,14.2-20.1,26.26,28.42Z" style="fill:#ffadae"/><path d="M758.81,139.17l-55.5-18a11.71,11.71,0,0,1-6.72-5.65l-25-47.25-16.5,8.69,26.38,54.89a10.41,10.41,0,0,0,5,4.92l42.13,19.46S748.56,153.42,758.81,139.17Z" style="fill:#bc2650"/><path d="M916.7,209.79S938.11,211,951,195.26c0,0,3.68-24.34-38.62,2.32Z" style="fill:#ffadae"/><path d="M804.3,186l50.77,24.57a10.19,10.19,0,0,0,7.59.5l51.38-17,5.89,17.69-58.1,21.73a7.54,7.54,0,0,1-4.92.13l-54.67-17.2S794.81,205.67,804.3,186Z" style="fill:#bc2650"/></g><g id="Layer_5" data-name="Layer 5"><rect x="411.35" y="370.37" width="614" height="397.63" style="fill:#bc9dff"/><path d="M814.52,448.41c10.35-19.41,3.55-47-16.3-49.16,0,0-9.83-2.59-20.57,16.19,0,0-10.62,15.72-1.12,37.66L760,483.21s-6,10.89-17.57,6.58c-17.26-6.44-34.7,1.71-45.11,8.5a55.28,55.28,0,0,0-15.76,15.65c-11.35,17-32.95,58.25-15.22,105.55l10.41-9.28s-12.12-38,9.38-78.26c0,0,16.48-30.72,45.55-26.4l7.09,1.87c7,.73,15.58,0,21.82-4.63a30.92,30.92,0,0,0,8.1-7.73l17.93-32.63s17.32,5.31,27.7-13.62Zm-23.82-4c-5.22-2.87-7.14-14.07-3.75-20.24s9.46-9,14.68-6.14,7.11,13.26,3.72,19.43S795.92,447.25,790.7,444.38Z" style="fill:#fbb70e;opacity:0.7000000000000001"/><path d="M804.92,443.13c10.36-19.4,3.55-47-16.3-49.16,0,0-9.82-2.58-20.56,16.19,0,0-10.62,15.72-1.12,37.66l-16.56,30.11s-6,10.89-17.57,6.59c-17.25-6.44-34.69,1.71-45.11,8.5A55.12,55.12,0,0,0,672,508.67c-11.36,17-33,58.24-15.23,105.54l10.41-9.27s-12.12-38,9.39-78.26c0,0,16.47-30.73,45.55-26.41l7.09,1.87c7,.73,15.57,0,21.81-4.62,2.72-2,5.52-4,8.1-7.73L777,457.16s17.31,5.3,27.69-13.63C804.78,443.4,804.85,443.27,804.92,443.13Zm-23.82-4c-5.22-2.87-7.14-14.07-3.75-20.24s9.46-9,14.68-6.14,7.11,13.27,3.72,19.44S786.32,442,781.1,439.1Z" style="fill:#fcd517"/><path d="M814.53,370.45l-27,49.16a4.19,4.19,0,0,0,1.65,5.7h0a4.2,4.2,0,0,0,5.7-1.66l29.25-53.21Z" style="fill:#efddce"/><path d="M587.08,566.35s16-24.32-3.32-32.1h0l-7.61-.46,1.43,31.74" style="fill:#ff9395"/><path d="M887.81,608.18s6.45-5.77-.44-13.69A65.42,65.42,0,0,0,869.82,579l-7.9-5.84s-7.13-9.89-8.29-10.5-5.47-2.59-8.27.59a17.26,17.26,0,0,0-3.56,5.7l11,13.56,10.28,13.77,14.89,11,9.81.95" style="fill:#9b57a7"/><path d="M885.8,611.05s-2.57,1.63-19.57-7.27c0,0-17.43-8.42-20.3-6.59L833,576.11l2.12-5.66s5.12-7.77,10.25-7.2c0,0-3.78,3.41.57,8.59,0,0,15.74,13.83,16.5,17.9,0,0,10.4,15,25.38,18.44Z" style="fill:#9462c8"/><path d="M841.28,698.52s-13.72,19.34-11.18,23c0,0,15.06,12,41.32-20.91,0,0,7.63-2.79,10.2-7.6,0,0,9.63-14.38-10.29-22.12l-16.58,9.67Z" style="fill:#9462c8"/><path d="M701.76,554.87s25.17,5.78,50.52,46.51a6.07,6.07,0,0,0,7.61,2.37l75.22-33.3s3.7,24.43,16.78,27.67l-87.81,40.59a13.55,13.55,0,0,1-15.74-3.21l-43.47-48.11-3.11-32.52" style="fill:#633edb"/><path d="M707.05,643.2l42.81,40.51a24.16,24.16,0,0,0,14,6.48l78.29,8.43s30.59-17.93,29.14-27.77c0,0-69.25-13.38-90.51-11.83a16.6,16.6,0,0,1-9.14-1.86,9.47,9.47,0,0,1-3.39-2.7L740.3,613s-11.57-19.93-25.62-24.48l-7.63,54.64" style="fill:#7348ff"/><path d="M598.08,509.56s40.93-11.92,67.84-13.22c0,0,8.12-1.53,9.56,54l-22.19-12.45-1.62-10.75-16.39,2.13-37.2-19.67" style="fill:#bc2650"/><path d="M526.1,563.26l.69.41c3.64,2.12,27,14.75,41.27,11.05l4.77-6.61a8.64,8.64,0,0,0,6.08-7.47L580.4,552a24.66,24.66,0,0,0,0-8.61l-2.62-8.94-41.87-.33" style="fill:#ffadae"/><path d="M506.07,559.7a6.06,6.06,0,0,0,4.8,6.62,25.22,25.22,0,0,0,21.45-4.44s16.89-.82,19.57,1.42c0,0,3.43-.92-4.1-6.78,0,0-1.76-4.63,7.4-2.66,0,0,13.32,1.47,17.34-3.41,0,0,6.23-4.5,6.57-12.37a5,5,0,0,0-4.81-5.19c-2.29-.1-5-.61-6.81-2.3,0,0-12.16-17.57-29.32-15.14-.88-.13-12.68-1.65-19.38,6.61a16.87,16.87,0,0,0-2.29,3.72,11.51,11.51,0,0,0-.44,7.66c.56,2.17,2.6,3.93,1.61,5.54-1.57,2.56-5.22,2.81-5.24,5.47,0,3.74,2.71,5.43,1.87,8.85s-7.06,2.26-8.07,5.7A4.37,4.37,0,0,0,506.07,559.7Z" style="fill:#1f1440"/><path d="M584.87,564c-1.86-32.13-2-30.93-2-30.93-1.7-19.39,15.21-23.48,15.21-23.48,30.41,1.75,67.22,34.36,67.22,34.36,9.86,8.66,37.78,11.09,37.78,11.09,29.32,40.78,4,88.19,4,88.19C668.73,606,619.11,606,619.11,606S586.93,599.44,584.87,564Z" style="fill:#ff2e57"/><path d="M616.08,686.93s-12.1,14.94-2.2,23.73a9.53,9.53,0,0,0,4,2.07c3.73.93,11.63,2.36,13.26-1.77,0,0,3.49-4.91-.69-6.67a4.21,4.21,0,0,1-2.58-4.08l.4-8.6Z" style="fill:#ffadae"/><path d="M629,697.05c-3.69-1-11.76-4.19-13.73-11.93a3.5,3.5,0,0,1,0-1.76c1.64-6.32,11.41-45.6,3.58-56.18l-5.11-6.91c-.28-.37-.55-.76-.81-1.15l-14.47-21.87a12.78,12.78,0,0,1-.07-14.07c2.28-3.46,5.87-6.63,11.34-6.53a15.37,15.37,0,0,1,10,4.19c9.38,8.58,38.35,38.7,27.59,74.9l-15.82,40.07A2.09,2.09,0,0,1,629,697.05Z" style="fill:#bc2650"/><path d="M679.19,576.41l1.2-9.46c3.3,1.73,21.88,11.92,21.88,11.92,13.05,24,21.59-4.13,21.59-4.13L754.7,536l2.94-.14,9.31.37-18.41,34.32a45.78,45.78,0,0,1-61.79,18.79s-7.36-4.55-9.35-7.06,6.58-2.78,6.58-2.78Z" style="fill:#fbb70e"/><path d="M679,566.26s24.92,26.93,45.85,3.13a62.93,62.93,0,0,0,12.26-18.51l-18.52,2.69-3.25-14.66L757.57,536l-18.24,33.2a42.34,42.34,0,0,1-57.49,16.7h0c-3.34-1.84-15.76-14.2-13.92-17.55Z" style="fill:#fcd517"/><path d="M663.88,560.14s3.29,10,5.5,13L682,569.05l-1.2-2S669.54,561.64,663.88,560.14Z" style="fill:#fcd517"/></g></svg>