<svg id="Layer_5" data-name="Layer 5" xmlns="http://www.w3.org/2000/svg" viewBox="0 0 800 600"><title>illu5_1</title><rect x="-13" y="-6" width="381" height="610" style="fill:#fff"/><path d="M-60.25,141.27l147.5-20L312.79,143.4l-36.45,45.66a82.78,82.78,0,0,0-17.45,41.33l-7,55.53S231.18,333.18,227,366.17L-23.44,351l-36.81-7.31Z" style="fill:#ab85ff;opacity:0.78"/><path d="M-60.11,607l1.56-182.65L241.19,371.7s-5.45,137.86-2.72,235.17" style="fill:#ab85ff;opacity:0.78"/><path d="M-3.26,206.75l-7.43,25.09a6.93,6.93,0,0,0,.13,4.34l.65,1.81a42.17,42.17,0,0,1,1.44,23.65l-3,13.36a6.66,6.66,0,0,0-.17,1.72l.56,22.84a7,7,0,0,0,5.79,6.69l47.52,8.12a7,7,0,0,0,6.1-1.94h0a6.84,6.84,0,0,0,1.91-3.6c2.23-12.28,11.17-24.57,12.64-36.86,1-8.65,6.21-17.3,7.25-26,1.27-10.64-4-18.59-4.55-29.27-.29-5.41,4.73-13.59,4-19-2.48-18.3-1.1-30.67,1.11-39.16a8.91,8.91,0,0,0,.25-5.5c-6.07-17.71-86.46-3.85-98.39-1.69a7,7,0,0,0-2.71,1.12l-27,18.65a7,7,0,0,0,1.92,12.39L-7.9,198.11A7,7,0,0,1-3.26,206.75Z" style="fill:#ab85ff"/><path d="M232.62,141.09a17.52,17.52,0,0,1,14.48,24.1l-2.34,5.69a65.21,65.21,0,0,0-4.5,17.52c-.06.52-.14,1-.25,1.56l-30.63,144.8a17.53,17.53,0,0,1-18.24,13.86l-12.7-.79A17.53,17.53,0,0,1,162,330.3l.1-40.15a18.84,18.84,0,0,1,.36-3.43,38.09,38.09,0,0,0,.56-4.1,17.07,17.07,0,0,0-.33-5L156,245.91a17.49,17.49,0,0,1,.5-9.16c2.61-7.82,7.93-22.19,8.18-23.7l2.28-13.6a58,58,0,0,0-6.57-37.84h0a17.52,17.52,0,0,1,17-26Z" style="fill:#ab85ff"/><path d="M256.06,371.7l3.79,26.09a48.63,48.63,0,0,1-.38,12L238.07,607l-56.21-1.56,35.46-138.27,3.19-39.33a56.31,56.31,0,0,0-3-23.1l-5.76-16.43-11.07-22.14Z" style="fill:#ab85ff"/><path d="M-57.11,210.19c6.35-1.07,13.76-2.13,22.6-3.14,20.24-2.31,33-2.63,33.21-5.53.42-5-36.3-10-36-13.84.25-3.05,24.11-4.46,88.55-2.77,4.16.37,9.14.18,11.07-2.77,1.54-2.35,0-4.8,1.38-6.91,2.62-4.06,12.65-1.92,15.22-1.39,32.88,6.76,52.68-2.54,73.34-1.38a8,8,0,0,0,5.53-1.38c2.11-1.71,2.62-4.68,2.77-5.54.4-2.35-.16-3.35,0-4.15,1.38-7,60.89-9.34,89.93-8.3,1,0,5,.18,5.54-1.39.9-2.42-7.42-6.17-6.92-8.3,1.31-5.53,59.6,11.9,69.18-4.15,5.18-8.66-5.93-23.58-6.92-24.9-8.86-11.9-23.69-14.12-30.44-15.22C220.16,89.2,175,90.39,131.53,75.6c-2.32-.78-14.12-5.77-29.06-12.45C90.33,57.72,82.2,57.31,76.19,50.7,46.83,18.45,58.67,6.47,47.13-1.73H-60.25" style="fill:#d5c1ff"/><path d="M-58.45,457.78c92.27,6.74,105.43,3,107-5.83.64-3.7-5.16-8.55-2.76-15.22C49.88,425.21,73.92,421.1,90,421.51c12.26.32,15.53,3.15,22.14,0,10-4.75,9.82-14.67,19.37-18,5.39-1.87,8.08.37,19.37,2.76,3.61.77,61.52,7.46,66.42-1.38,3.23-5.83-7.5-14.22-4.15-19.37,3-4.65,13.14,0,29.05-1.38,10.74-1,13.15-5.05,13.84-11.07.94-8.25-40.58-23.51-71.95-27.68-25.21-3.34-44,1.41-58.11-12.45-4.89-4.79-5.33-8-11.07-11.07-16-8.58-36.57,3-38.74-1.38-1.34-2.72,6.55-6.88,5.53-11.07-1.36-5.61-17.26-5.62-37.36-6.92-12.48-.81-27.69-2.84-58.11-6.92-22.32-3-37.1-7.77-46.36-14.1Z" style="fill:#d5c1ff"/><path d="M211.7,357.19s18.5,10.5,17.43,13.58c0,0-5.26,11.31-31,1.79l-8.22-4.21s-7.22-1.1-11.31-5.27c0,0-6.1-10.38,5.32-17.5Z" style="fill:#ffd000"/><path d="M309,345.82s21.18-1.87,22.06,1.28c0,0,2.09,12.3-24.49,19.07l-9.16,1.21s-6.56,3.19-12.3,2.09c0,0-10.92-5.08-5.56-17.43Z" style="fill:#e8bd00"/><path d="M298.75,121.71s17.48-4.87,29.15,5.13c0,0,3.33,5,0,6.67,0,0-15-5-16.67-3.33,0,0-8.33,5-15,1.66l-1.67-8.33,4.19-1.8" style="fill:#ff9395"/><path d="M291.05,135.83S308.52,131,320.19,141c0,0,3.33,5,0,6.67,0,0-15-5-16.67-3.34,0,0-8.33,5-15,1.67l-1.66-8.33,4.19-1.81" style="fill:#ff9395"/><polygon points="241.25 115.63 301.13 119.18 298.36 135.87 234.35 130.74 233.06 116.61 241.25 115.63" style="fill:#9e2043"/><path d="M211.23,106.34s-14.12,9-16.69,18c0,0-5.88,20,.36,47.56a37.53,37.53,0,0,1,.92,8.19v30.29H254.9S256.18,171,253,154.71h0s-12.54-34.58-20.08-44-21.66-4.33-21.66-4.33" style="fill:#ff2e57"/><path d="M213.8,210.36h41.1l33.78,56.7a19.86,19.86,0,0,1,2.65,7.88l8.51,75.39L278,358l-16.4-76.92a40.79,40.79,0,0,0-6.21-14.46l-23.62-34.47Z" style="fill:#633edb"/><path d="M249.74,72.78s4,39.24-15.87,31.39L232.82,112s-16.4,5.06-21.63-6.28c0,0,2.44-15.7,5.23-16.92l5.93-15,10.3-3.48L240,68.42Z" style="fill:#ffadae"/><path d="M234.87,104.87c.46-.47-12-4.36-15-10.55,0,0,2.62,12.29,13.08,17.61C233,111.93,232.22,107.57,234.87,104.87Z" style="fill:#ff9395"/><path d="M258.5,53.29s7.72,22.76-11.51,20c0,0-11.51-3.92-13,2.09,0,0-6.25,25.29-20.77,20.31,0,0-2.91.36-3.3-15.2,0,0-3.4-25.51,14.52-23,.92-.13,5.23,1.05,6.54-2.09,0,0,5.23-4.84,9.81.13,0,0,7.46,3.36,8.9-2.24C249.74,53.27,253.4,48.19,258.5,53.29Z" style="fill:#1f1440"/><path d="M211.23,124.32s-9-1.29-11.56,10.27c0,0-3.85,12.84,7.71,16.69,0,0,45,7.71,88.61,0,0,0-3.85-15.41-2.57-19.26Z" style="fill:#bc2650"/><path d="M197.11,210.36l-1.18,65.26a16.82,16.82,0,0,1-.31,2.92L181.7,350.33l21.83,3.85c5.8-23.21,18.95-66.36,21.42-74.44a15.63,15.63,0,0,0,.57-2.7c.89-7.76,5.39-46.42,8.83-66.68Z" style="fill:#7348ff"/><path d="M210.07,83.21c-.45-.12,1.92-1.27.86-1.75-.45-.22-5.23.64-5.42,1.11-.3.73-.73,1.82-1.19,3.15a1,1,0,0,1-.39.49A11.32,11.32,0,0,0,201.49,88s-.9-.1.44,4a.9.9,0,0,1,0,.36,86.63,86.63,0,0,1-2.19,13.21.89.89,0,0,0,1.48.87l6.95-6.76a.88.88,0,0,0,.25-.5c.18-1.13.74-5.31.17-7.53,0,0-.52-1,.37-3.42a5.52,5.52,0,0,1,3.23-3.73l-2-1.11A.84.84,0,0,0,210.07,83.21Z" style="fill:#d6af00"/><path d="M211.18,88a10.6,10.6,0,0,1-4.55,11.46.75.75,0,0,0-.17.14c-.84.89-8.9,9.44-10.94,12.3a1.14,1.14,0,0,0,.09,1.41,12.5,12.5,0,0,1,2.55,4,1.13,1.13,0,0,0,1.88.44c4.06-4.08,14.5-15.12,16-22.26,0,0,.41-.9-.63-2.9a20.81,20.81,0,0,1-1.84-4.94,1.18,1.18,0,0,0-1-1h-.16A1.13,1.13,0,0,0,211.18,88Z" style="fill:#f5c800"/><path d="M210.55,85.47s-2.42-3.71.23-5c0,0,11.37-4.38,15.82-4.57h.12A96.54,96.54,0,0,1,237.21,77s7.45.8,9,.66l4.28,0a1.18,1.18,0,0,1,1.12,1.55,7.56,7.56,0,0,1-1,1.89,1,1,0,0,0-.19.45,2.15,2.15,0,0,0,.46,1.69,1,1,0,0,1,.25.75l-.14,1.32a1.14,1.14,0,0,0,.18.76c.16.24.37.58.59.94a1.17,1.17,0,0,1-1,1.76c-7,.17-33.06.62-39.83-2Z" style="fill:#ffd000"/><rect x="362.32" width="478.23" height="293.21" style="fill:#e7dcff"/><path d="M721.36,71.07H798s.76-19.09-20.6-17.84c0,0-8.79-17.33-30-9.42,0,0-9.55,4.4-10.93,14.57C736.44,58.38,724.75,57.63,721.36,71.07Z" style="fill:#ab85ff;opacity:0.31"/><path d="M464.51,56.41H512.7s1.85-14.58-12.14-18.93c0,0-12.31-2.68-18.26,8.79C482.3,46.27,466.81,40.33,464.51,56.41Z" style="fill:#ab85ff;opacity:0.31"/><path d="M721.36,233.79h60.21s.71-8.67-11.78-10.86c0,0-4.12-15.55-21-13,0,0-8.95,2.41-11.36,9.23C737.41,219.17,721.22,217.32,721.36,233.79Z" style="fill:#ab85ff;opacity:0.31"/><path d="M423.24,89.89s-5.32-7.28-6-16.18a3.14,3.14,0,0,0-1.08-2.23,2.83,2.83,0,0,0-1.42-.65,2.21,2.21,0,0,0-2.37,2.26v27.34h-2.56l.6,10.69s11.45,1.24,12.8-.28l1.81-18.09Z" style="fill:#ffd000"/><path d="M412.69,178s-8.9-1.48-15.59-7.37a3.15,3.15,0,0,0-2.34-.84,2.72,2.72,0,0,0-1.47.53,2.22,2.22,0,0,0-.11,3.27l19.14,19.53-1.83,1.79,7.92,7.21s9-7.13,8.94-9.16L416,178.79Z" style="fill:#ffd000"/><path d="M562.05,141.91,512,105.8a17.6,17.6,0,0,0-8.1-3.2l-78.81-9.85-1.81,18.09,69.36,11.47a19.16,19.16,0,0,1,9.36,4.46l43.82,38.38,27.1,10.09Z" style="fill:#633edb"/><path d="M564.52,165.15l-72.68-25.7a6.65,6.65,0,0,0-5.38.41L416,178.79,427.35,193l62-29.23a5.35,5.35,0,0,1,5.41.51L531.86,191c1.21.91,2.68,2,4.29,3.1a42.23,42.23,0,0,0,24.71,7.38l5.67-.09Z" style="fill:#7348ff"/><path d="M630.54,122.93S619.42,114,613.37,113l-51.32,28.88s-5.47,39.61,4.48,59.52c0,0,15.22,1.36,42.35-11.91l39.78-16.6s2.37-31.6-3.48-40Z" style="fill:#ff2e57"/><path d="M649.86,87.77S617.58,107.36,635.05,118l-5.39,5.33s5.61,15.44,17.28,12.89c0,0,10.58-10.93,9.9-13.76l8-13.19-3.27-9.87-2.77-6.7Z" style="fill:#ffadae"/><path d="M633.94,117.65c.09-.63,10.25,6.64,16.69,5.33,0,0-10.9,5.1-21,.18C629.63,123.16,633.41,121.23,633.94,117.65Z" style="fill:#ff9395"/><path d="M659.69,69.82s-21.84,7.25-8.64,20.35c0,0,9.64,6.52,5.88,11.09,0,0-15.7,19.37-3.52,27.59,0,0,1.4,2.43,13.52-6.26,0,0,21.44-12.13,9.19-24.38-.42-.78-3.82-3.39-2.17-6.2,0,0,.67-6.79-5.77-7.42,0,0-6.87-3.75-3.42-8.09C664.76,76.5,666.53,70.77,659.69,69.82Z" style="fill:#1f1440"/><path d="M535.27,65.08s-12.69-10.92-11.45-26.72c0,0,11.08-15.69,20.49,22.19Z" style="fill:#ffadae"/><path d="M613.37,113,570.05,99a9.13,9.13,0,0,1-5.25-4.41L545.26,57.66l-12.88,6.78L553,107.29a8,8,0,0,0,3.9,3.83l32.88,15.2S605.37,124.15,613.37,113Z" style="fill:#bc2650"/><path d="M736.61,168.16s16.71.91,26.76-11.35c0,0,2.87-19-30.15,1.82Z" style="fill:#ffadae"/><path d="M648.88,149.56l39.63,19.17a7.85,7.85,0,0,0,5.92.39l40.11-13.23,4.6,13.81-45.35,17a6,6,0,0,1-3.84.1l-42.68-13.43S641.47,164.94,648.88,149.56Z" style="fill:#bc2650"/><rect x="362.16" y="293.5" width="479.27" height="310.37" style="fill:#bc9dff"/><path d="M656.85,354.41c8.09-15.14,2.77-36.68-12.72-38.37,0,0-7.67-2-16,12.64,0,0-8.29,12.27-.88,29.39l-12.92,23.51s-4.71,8.5-13.71,5.14c-13.47-5-27.08,1.33-35.21,6.63a43,43,0,0,0-12.3,12.22C544.2,418.85,527.34,451,541.18,488l8.12-7.23s-9.46-29.67,7.32-61.09c0,0,12.86-24,35.56-20.62l5.53,1.46c5.45.58,12.16,0,17-3.6a24.31,24.31,0,0,0,6.33-6l14-25.47s13.51,4.14,21.61-10.63C656.74,354.62,656.8,354.52,656.85,354.41Zm-18.59-3.14c-4.07-2.24-5.57-11-2.92-15.8s7.38-7,11.45-4.79,5.55,10.35,2.91,15.17S642.34,353.51,638.26,351.27Z" style="fill:#fbb70e;opacity:0.7000000000000001"/><path d="M649.36,350.3c8.09-15.15,2.77-36.69-12.72-38.38,0,0-7.67-2-16,12.64,0,0-8.29,12.27-.88,29.39l-12.92,23.51s-4.71,8.5-13.72,5.14c-13.46-5-27.08,1.34-35.21,6.64a43.05,43.05,0,0,0-12.29,12.21c-8.86,13.29-25.73,45.47-11.88,82.39l8.12-7.24s-9.46-29.67,7.32-61.09c0,0,12.86-24,35.56-20.61l5.53,1.46c5.45.57,12.16,0,17-3.61a24.13,24.13,0,0,0,6.32-6l14-25.47s13.52,4.15,21.62-10.63Zm-18.59-3.15c-4.07-2.24-5.57-11-2.92-15.8s7.38-7,11.45-4.79,5.55,10.35,2.9,15.17S634.85,349.39,630.77,347.15Z" style="fill:#fcd517"/><path d="M656.86,293.56l-21.09,38.37a3.28,3.28,0,0,0,1.29,4.45h0a3.28,3.28,0,0,0,4.45-1.29l22.84-41.54Z" style="fill:#efddce"/><path d="M479.32,446.47s12.47-19-2.58-25.05h0l-5.95-.36,1.12,24.77" style="fill:#ff9395"/><path d="M714.06,479.13s5-4.5-.34-10.69A51.2,51.2,0,0,0,700,456.35l-6.16-4.56s-5.57-7.72-6.48-8.19-4.26-2-6.45.46a13.37,13.37,0,0,0-2.78,4.45l8.61,10.58,8,10.75,11.63,8.54,7.65.75" style="fill:#9b57a7"/><path d="M712.5,481.36s-2,1.28-15.28-5.67c0,0-13.6-6.57-15.85-5.14l-10.1-16.45,1.66-4.42s4-6.07,8-5.62c0,0-2.95,2.66.44,6.7,0,0,12.29,10.8,12.89,14,0,0,8.11,11.74,19.8,14.4Z" style="fill:#9462c8"/><path d="M677.75,549.65S667,564.74,669,567.57c0,0,11.75,9.37,32.25-16.32,0,0,6-2.18,8-5.94,0,0,7.52-11.22-8-17.27l-12.94,7.55Z" style="fill:#9462c8"/><path d="M568.84,437.52s19.64,4.51,39.44,36.3a4.73,4.73,0,0,0,5.94,1.85l58.71-26s2.88,19.06,13.1,21.6L617.49,503a10.58,10.58,0,0,1-12.29-2.51L571.27,462.9l-2.43-25.38" style="fill:#633edb"/><path d="M573,506.46l33.42,31.63a18.92,18.92,0,0,0,11,5l61.12,6.58s23.87-14,22.74-21.68c0,0-54.05-10.44-70.65-9.23a13,13,0,0,1-7.14-1.45,7.42,7.42,0,0,1-2.64-2.11l-21.85-32.33s-9-15.56-20-19.11L573,506.46" style="fill:#7348ff"/><path d="M487.91,402.15s31.95-9.3,52.95-10.32c0,0,6.34-1.2,7.47,42.12L531,424.23l-1.27-8.39L517,417.5l-29-15.35" style="fill:#bc2650"/><path d="M431.73,444.06l.54.33c2.83,1.65,21.09,11.51,32.21,8.62l3.72-5.16A6.75,6.75,0,0,0,473,442l1.16-6.72a19.45,19.45,0,0,0,0-6.72l-2.05-7-32.68-.25" style="fill:#ffadae"/><path d="M416.09,441.28a4.73,4.73,0,0,0,3.75,5.17A19.71,19.71,0,0,0,436.58,443s13.19-.64,15.27,1.11c0,0,2.68-.73-3.19-5.29,0,0-1.38-3.62,5.77-2.08,0,0,10.4,1.15,13.54-2.67a13.5,13.5,0,0,0,5.12-9.65,3.93,3.93,0,0,0-3.75-4.05,8.35,8.35,0,0,1-5.31-1.79s-9.5-13.72-22.89-11.82c-.69-.1-9.9-1.3-15.13,5.15a13.32,13.32,0,0,0-1.79,2.91,9,9,0,0,0-.34,6c.43,1.69,2,3.06,1.26,4.32-1.23,2-4.08,2.2-4.09,4.27,0,2.92,2.11,4.24,1.46,6.91s-5.52,1.77-6.3,4.45A5.23,5.23,0,0,0,416.09,441.28Z" style="fill:#1f1440"/><path d="M477.6,444.61c-1.45-25.07-1.56-24.13-1.56-24.13-1.33-15.14,11.87-18.33,11.87-18.33,23.74,1.36,52.47,26.82,52.47,26.82,7.7,6.76,29.49,8.65,29.49,8.65,22.89,31.84,3.1,68.84,3.1,68.84-29.92-29-68.65-29-68.65-29S479.21,472.31,477.6,444.61Z" style="fill:#ff2e57"/><path d="M502,540.6s-9.45,11.66-1.72,18.52a7.39,7.39,0,0,0,3.13,1.62c2.9.72,9.07,1.84,10.35-1.39,0,0,2.72-3.83-.54-5.2a3.3,3.3,0,0,1-2-3.19l.32-6.71Z" style="fill:#ffadae"/><path d="M512.07,548.5c-2.88-.82-9.19-3.27-10.72-9.32a2.76,2.76,0,0,1,0-1.37c1.28-4.93,8.91-35.59,2.79-43.86l-4-5.38q-.33-.45-.63-.9L488.26,470.6a10,10,0,0,1-.07-11c1.79-2.69,4.59-5.17,8.86-5.09a12,12,0,0,1,7.8,3.27c7.32,6.7,29.93,30.21,21.53,58.46L514,547.53A1.63,1.63,0,0,1,512.07,548.5Z" style="fill:#bc2650"/><path d="M551.22,454.33l.94-7.39c2.58,1.36,17.07,9.31,17.07,9.31C579.43,475,586.09,453,586.09,453l24.07-30.21,2.3-.1,7.26.29-14.37,26.79a35.72,35.72,0,0,1-48.23,14.66s-5.74-3.55-7.29-5.51,5.13-2.17,5.13-2.17Z" style="fill:#fbb70e"/><path d="M551.07,446.4s19.45,21,35.79,2.45a49.37,49.37,0,0,0,9.57-14.45L582,436.5l-2.54-11.44,33-2.26-14.24,25.91a33,33,0,0,1-44.87,13h0c-2.61-1.43-12.3-11.08-10.87-13.69Z" style="fill:#fcd517"/><path d="M539.27,441.63s2.57,7.81,4.29,10.14l9.82-3.19-.93-1.55S543.69,442.8,539.27,441.63Z" style="fill:#fcd517"/></svg>