<svg id="Layer_4" data-name="Layer 4" xmlns="http://www.w3.org/2000/svg" xmlns:xlink="http://www.w3.org/1999/xlink" viewBox="0 0 800 600"><defs><linearGradient id="linear-gradient" x1="80.7" y1="113.02" x2="719.3" y2="113.02" gradientTransform="matrix(1, 0, 0, -1, 0, 602)" gradientUnits="userSpaceOnUse"><stop offset="0" stop-color="#b584ff"/><stop offset="0.13" stop-color="#b887fc" stop-opacity="0.97"/><stop offset="0.34" stop-color="#c18ef5" stop-opacity="0.88"/><stop offset="0.6" stop-color="#cf9be8" stop-opacity="0.75"/><stop offset="0.92" stop-color="#e2acd7" stop-opacity="0.56"/><stop offset="1" stop-color="#e8b1d2" stop-opacity="0.5"/></linearGradient></defs><title>illu4_1</title><ellipse cx="400" cy="488.98" rx="319.3" ry="75.01" style="fill:#fff;isolation:isolate"/><path d="M686.6,492.6s6.29,2.9,9.92-4.67a52.34,52.34,0,0,0,5.79-17.81l1.78-7.65s5-8.39,5.08-9.43.16-4.83-3.07-5.88a13.89,13.89,0,0,0-5.31-.8l-6.45,12.42-6.85,11.91-3.3,14.42,2.38,7.5" style="fill:#bc978e"/><path d="M683.86,492s-2-1.37-.89-16.68c0,0,.66-15.47-1.58-17l11.34-16.19,4.83-.25s7.34,1.3,8.54,5.24c0,0-3.7-1.69-6.12,3.18,0,0-5.16,16-7.9,17.81,0,0-7.73,12.41-5.48,24.49Z" style="fill:#d1b6ad"/><ellipse cx="400" cy="488.98" rx="319.3" ry="75.01" style="opacity:0.62;isolation:isolate;fill:url(#linear-gradient)"/><path d="M231,408.29v57.82c0,17.09,75.33,31,168.25,31s168.24-13.85,168.24-31V408.29Z" style="fill:#676193"/><ellipse cx="399.2" cy="408.29" rx="168.24" ry="30.94" style="fill:#7871ab"/><ellipse cx="306.89" cy="379.5" rx="28.66" ry="5.51" style="fill:#3e3b44"/><rect x="278.24" y="369.21" width="57.31" height="10.3" style="fill:#3e3b44"/><ellipse cx="306.89" cy="369.21" rx="28.66" ry="5.51" style="fill:#5b5260"/><ellipse cx="306.89" cy="368.3" rx="21.65" ry="3.69" style="fill:#a8a1b2"/><rect x="285.24" y="361.4" width="43.31" height="6.9" style="fill:#a8a1b2"/><ellipse cx="306.89" cy="361.4" rx="21.65" ry="3.69" style="fill:#d5cae0"/><path d="M623.62,259.29s21.87,3.82,21.44-12.06h0l-2-5.46-21.8,10.62" style="fill:#f0be9d"/><path d="M605.63,488.09s-18.56-4-20.41-.91c0,0-4,14.86,28.48,23.69,0,0,4.47,4.71,8.82,5.08,0,0,13.62,2.49,13-14.59l-12.37-9.1Z" style="fill:#d1b6ad"/><path d="M666.76,340s3.76,20.31-18.09,51.88a4.85,4.85,0,0,0,.68,6.35l48.36,44.65S681,453.34,682.72,464L625,412.41a10.85,10.85,0,0,1-2.62-12.6l21.52-47.21L666.79,340" style="fill:#6f738e"/><path d="M603.59,371.94l-16.14,44.31a19.27,19.27,0,0,0-.3,12.37l18.69,60.17s22.91,16.76,29.66,12.57c0,0-12.18-55.1-20.08-70.22a13.19,13.19,0,0,1-1.54-7.31,7.51,7.51,0,0,1,.9-3.34l21.52-33.72s11-14.83,9.84-26.59l-42.55,11.76" style="fill:#7b7f9a"/><path d="M667.09,249.45s21.75,26.27,31.26,45.61c0,0,3.71,5.48-36.58,24.18L663.86,299l7.37-4.6L664.49,283l2.62-33.56" style="fill:#f0cf81"/><path d="M606.68,216a3.49,3.49,0,0,1-.08.61c-.38,3.18-1.71,18.09,5.21,26.95l5.64,6.64a6.59,6.59,0,0,0,7.08,2l6.47-1.58a19.24,19.24,0,0,0,6-2.64l7-4.63L630,214" style="fill:#fec9a7"/><path d="M602,206.54a12.71,12.71,0,0,0,7.5,13.37s5.71,11.58,4.91,14.16c0,0,1.69,2.13,3.51-4.92,0,0,2.71-2.64,4.11,4.38,0,0,3,9.78,7.65,11.12,0,0,7.39,4.4,14.24-1.28,0,0-3.14-4.76-1.87-8.27,0,0,8.63-13.86,1.72-25.14,0,0-7.21-11.39-22.83-7.94C621,202,604.21,209,602,206.54Z" style="fill:#846d7f"/><path d="M622.94,257C646,245.47,645,245.75,645,245.75c13.7-7.42,22.08,3.7,22.08,3.7,8.38,22.89-3.87,60.28-3.87,60.28-3.22,10,3.87,31.27,3.87,31.27-20.65,34.49-63.5,31-63.5,31,15.14-40-.65-76.39-.65-76.39S597.54,269.81,622.94,257Z" style="fill:#ffdc89"/><path d="M542.56,319.06s-14.81-4.14-18.12,5.92a7.58,7.58,0,0,0-.25,3.6c.5,3,2,9.29,5.52,9.17,0,0,4.7,1,4.68-2.62a3.37,3.37,0,0,1,2.17-3.18l6.45-2.44Z" style="fill:#fec9a7"/><path d="M539.24,331.77c-.39-3-.66-10,4.4-13.88a2.7,2.7,0,0,1,1.31-.53c5.16-.8,37.1-6.12,42.39-15.24l3.44-5.94c.19-.32.38-.64.59-1l11.46-17.58a10.22,10.22,0,0,1,10.33-4.52c3.26.58,6.73,2.2,8.39,6.26a12.24,12.24,0,0,1,.11,8.66c-3.32,9.62-16.24,40.46-46.24,44.07L541,333.22A1.67,1.67,0,0,1,539.24,331.77Z" style="fill:#f0cf81"/><path d="M265.7,438.32,280,439.91c2.78.3,5,2.44,5,4.76l-.41,31.77c0,2.32-2.32,4-5.1,3.66l-14.34-1.59c-2.78-.3-5-2.44-5-4.76l.4-31.77C260.62,439.66,262.92,438,265.7,438.32Z" style="fill:#fff;fill-rule:evenodd"/><path d="M262.94,442.17l19.56,2.12a.09.09,0,0,1,.07.06l-.46,31.9a.06.06,0,0,1-.06.05h0l-19.56-2.11a.06.06,0,0,1-.06-.07l.46-31.9a0,0,0,0,1,0-.05Z" style="fill:#e0bdff;fill-rule:evenodd"/><path d="M269.14,439.69l7.41.8a.38.38,0,0,1,.37.34h0a.3.3,0,0,1-.35.26h0l-7.41-.8a.36.36,0,0,1-.36-.34h0a.3.3,0,0,1,.33-.26Z" style="fill:#e0bdff;fill-rule:evenodd"/><path d="M272.39,476.32a1.29,1.29,0,0,1,1.22,1.17,1,1,0,0,1-1.13.91l-.12,0a1.28,1.28,0,0,1-1.22-1.16,1,1,0,0,1,1.12-.92Z" style="fill:#e0bdff;fill-rule:evenodd"/><path d="M336.38,446.4c-13-.25-23.73,8.59-23.92,19.76s10.19,20.43,23.2,20.65,23.72-8.58,23.92-19.76S349.39,446.66,336.38,446.4Zm10.32,29.39a1.57,1.57,0,0,1-2,.38c-5.48-3-12.43-3.8-20.65-2.38a1.49,1.49,0,0,1-1.74-1,1.27,1.27,0,0,1,1-1.47h.12c9-1.59,16.68-.68,22.85,2.7a1.17,1.17,0,0,1,.52,1.57,1.27,1.27,0,0,1-.13.19Zm3-5.45a2,2,0,0,1-2.54.47c-6.28-3.46-15.89-4.62-23.44-2.82a1.9,1.9,0,0,1-2.27-1.1,1.53,1.53,0,0,1,1.07-1.89l.19,0c8.6-2.07,19.22-.8,26.42,3.17a1.46,1.46,0,0,1,.71,1.94,1.23,1.23,0,0,1-.14.25Zm.34-5.73c-7.52-4-20-4.63-27.33-2.88a2.29,2.29,0,0,1-2.76-1.29,1.87,1.87,0,0,1,1.31-2.3l.2,0c8.36-2,22.19-1.31,30.85,3.31a1.77,1.77,0,0,1,.89,2.34c-.05.09-.1.19-.16.28a2.44,2.44,0,0,1-3.07.58Z" style="fill:#e0bdff"/><path d="M381.85,478h0a1.75,1.75,0,0,0,.84,1.54,2.39,2.39,0,0,0,1.74.36,2.12,2.12,0,0,0,1.21-.58A2.2,2.2,0,0,0,386,478l-.17-7.45a1.73,1.73,0,0,0-.63-1.34,2.09,2.09,0,0,0-1.47-.54,2,2,0,0,0-1.43.57,1.79,1.79,0,0,0-.58,1.36Zm6.49,3.1a1.3,1.3,0,0,0,.6,1.12,3.16,3.16,0,0,0,3,0,1.27,1.27,0,0,0,.55-1.13l-.39-17.4a1.77,1.77,0,0,0-.63-1.32,2.09,2.09,0,0,0-1.48-.53,2,2,0,0,0-1.43.57,1.75,1.75,0,0,0-.57,1.33Zm6.42.75a1.24,1.24,0,0,0,.61,1.11,2.75,2.75,0,0,0,1.51.36,2.69,2.69,0,0,0,1.46-.39,1.26,1.26,0,0,0,.55-1.13L398.54,466a1.84,1.84,0,0,0-.63-1.35,2,2,0,0,0-1.45-.55,2.05,2.05,0,0,0-1.47.58,1.75,1.75,0,0,0-.58,1.37l.35,15.89Zm6.42,0c0,.95.72,1.41,2.09,1.39s2.06-.49,2-1.44l-.54-25.68c0-1.45-.53-2.25-1.48-2.43a2,2,0,0,0-1.8.51,2.26,2.26,0,0,0-.85,2l.55,25.69Zm7.26,0-.62-28c0-.89.27-1.42.8-1.59a17.77,17.77,0,0,1,11.7,1.31,16,16,0,0,1,6.07,5,14.38,14.38,0,0,1,2.79,7,9.78,9.78,0,0,1,3.62-.72,9.67,9.67,0,0,1,6.74,2.46,8.1,8.1,0,0,1,2.91,6.09,7.91,7.91,0,0,1-2.64,6.17,9.37,9.37,0,0,1-6.6,2.62l-24.3.27a.66.66,0,0,1-.38-.28.75.75,0,0,1-.13-.35Z" style="fill:#e0bdff"/><path d="M526.88,463.84a24.14,24.14,0,0,0-3.89.26,12.69,12.69,0,0,0-4.18,1.15,10.62,10.62,0,0,0-2.71,1.42c-.3.21-.55.45-.44.8s.49.24.8.19l3.73-.72h0c1.25-.12,2.49-.3,3.75-.31,1.51,0,2.08.48,1.9,1.83-.11.79-.37,1.59-.55,2.38L523.62,475c-.13.33-.38.69,0,.91s.67-.1,1-.33a10.72,10.72,0,0,0,2.77-3.5h0a1.26,1.26,0,0,0,.22-.24,14.86,14.86,0,0,0,1.75-5.43C529.53,464.27,529.23,464,526.88,463.84Z" style="fill:#e0bdff"/><path d="M519.93,457.26a8,8,0,0,0,4.85.69,10.58,10.58,0,0,0,3-.86.79.79,0,0,0,.55-1,.35.35,0,0,0-.06-.14c-.12-.33-.4-.31-.7-.19a12.55,12.55,0,0,1-4.07.68,3.7,3.7,0,0,1-4-2.39,11.82,11.82,0,0,1-.43-3.65,3.56,3.56,0,0,1,.13-.65,4.7,4.7,0,0,1,2.48-3.76,8.4,8.4,0,0,1,4.16-.83c.51,0,1,.09,1.52.12a.73.73,0,0,0,.72-.26.64.64,0,0,0,0-.68,1,1,0,0,0-.79-.51c-.49-.06-1-.1-1.45-.12a9.14,9.14,0,0,0-5.56,1.4,6.5,6.5,0,0,0-3,5.2h0a9.56,9.56,0,0,0,0,2.39A5.22,5.22,0,0,0,519.93,457.26Zm-2.49-7.15a.28.28,0,0,1-.13.24Z" style="fill:#e0bdff"/><path d="M483.13,458.36c.07,2.17,1.44,3.37,3.76,3.34a9.74,9.74,0,0,0,5.12-1.45,3.07,3.07,0,0,0,.9-.46c.75-.49.75-.49.88.23,0,.27.11.58.5.58s.86.14,1.11-.38a.66.66,0,0,0,.06-.2.76.76,0,0,0,0-.21v-12.2c0-.48-.21-.71-.79-.65-.88.08-1.05.21-1.05,1v10h0a29.2,29.2,0,0,1-2.69,1.59h0a14.43,14.43,0,0,1-3,.66,2.57,2.57,0,0,1-2.55-1A3.73,3.73,0,0,1,485,458v-8.89a3.53,3.53,0,0,0,0-.65c-.08-.64-.66-.46-1.13-.42s-.7.23-.69.67v5.21h0C483.13,455.39,483.08,456.88,483.13,458.36Z" style="fill:#e0bdff"/><path d="M512,458.21c0,.6.38.67,1,.62s.85-.25.85-.79V445.79c0-.58-.33-.67-.88-.6s-.92.2-.91.79v4.77h0C512,453.23,512,455.71,512,458.21Z" style="fill:#e0bdff"/><path d="M521.26,469.06c-.42.18-.79.38-1.25.57l-3.87,1.7h0l-5,1.82H511l-4.85,1.41c-1.43.39-2.89.57-4.31,1h0A108,108,0,0,1,491.09,477h0l-4.87.21h0l-5.52-.11h0c-2-.18-4.08-.33-6.09-.62l-3.75-.57c-2.93-.6-5.8-1.34-8.63-2.17-.87-.32-1.75-.62-2.62-.95s-1.59-.61-2.38-.92a.82.82,0,0,0-.92.22c-.25.31-.11.57.11.8a2,2,0,0,0,.29.22c1,.61,1.91,1.25,2.9,1.83a43.08,43.08,0,0,0,8.74,4h0a12.83,12.83,0,0,0,2.09.7,43.55,43.55,0,0,0,6.25,1.45h0a34.33,34.33,0,0,0,3.48.51,46.94,46.94,0,0,0,6.27.31,22.34,22.34,0,0,0,4.4-.19h.39a52.11,52.11,0,0,0,8.69-1.31,35.76,35.76,0,0,0,5.66-1.5h0c1.37-.24,2.58-1,3.91-1.33h0a30.39,30.39,0,0,0,4.58-2,2.86,2.86,0,0,0,.8-.3c1.27-.61,2.48-1.33,3.68-2.05a28.31,28.31,0,0,0,4-2.61c.49-.38.69-.84.35-1.29A1.2,1.2,0,0,0,521.26,469.06Z" style="fill:#e0bdff"/><path d="M499.28,459.88a10.33,10.33,0,0,0,3.18.31,9.25,9.25,0,0,0,4.14-.89h0a3.71,3.71,0,0,0,1.59-1.11c1.37-1.44,1.59-4.17-.71-5.21a10.3,10.3,0,0,0-1.45-.49c-1.35-.35-2.75-.57-4-1-1.78-.64-2-2.49-.37-3.74a8.75,8.75,0,0,1,3.5-.66,22.08,22.08,0,0,1,2.44.19c.31,0,.68,0,.8-.35s.17-.74-.31-.91a3.58,3.58,0,0,0-.73-.2,14.72,14.72,0,0,0-3.18-.16,6.82,6.82,0,0,0-3.33,1.09h0c-2.42,1.53-2.7,4.39-.54,5.77a8.74,8.74,0,0,0,2.76.93,17,17,0,0,1,3.52,1,1.53,1.53,0,0,1,.92,1.47A2.67,2.67,0,0,1,506.2,458a12,12,0,0,1-6.65.48c-.3-.05-.62-.19-.87.1a.84.84,0,0,0-.1.86C498.62,459.78,499,459.82,499.28,459.88Z" style="fill:#e0bdff"/><path d="M458.87,463.08v-4.67h0v-4.68a1,1,0,0,1,.53-.93c.59-.32,1.17-.68,1.75-1,.24-.06.48-.14.72-.22a8,8,0,0,1,2.78-.59,2.12,2.12,0,0,1,2.33,1.28,4.67,4.67,0,0,1,.26,1.78v8.23a1.3,1.3,0,0,0,.11.8c.85.36,1.66.09,1.66-.58v-5h0v-4.85a1,1,0,0,1,.43-.84c.48-.38,1.07-.59,1.59-.93a15,15,0,0,1,3.41-.92c1.75-.14,2.68.47,2.94,2,.12.7.06,1.41.12,2.11v7.27c0,.3-.15.72.27.79a1.42,1.42,0,0,0,1.38-.28h0a.67.67,0,0,0,.12-.47v-9.83a3.18,3.18,0,0,0-3.23-3.13h-.1a10.22,10.22,0,0,0-5.56,1.59h0a5.66,5.66,0,0,0-1.25.8c-.31.23-.5.28-.73-.05a2.71,2.71,0,0,0-1.78-1.2,8.83,8.83,0,0,0-6.26,1.41c-.25.15-.51.27-.79.44-.69.45-.7.45-.79-.25,0-.39-.13-.69-.68-.67-.79,0-1,.17-1,.91v12a1,1,0,0,0,.12.68C458.31,464.45,458.87,464.11,458.87,463.08Z" style="fill:#e0bdff"/><path d="M512.94,442.33a1.33,1.33,0,0,0,1.32-1.33h0a1.11,1.11,0,0,0-1.06-1.15.7.7,0,0,0-.29,0,1.53,1.53,0,0,0-1.36,1.43,1.13,1.13,0,0,0,1.18,1.06A.76.76,0,0,0,512.94,442.33Z" style="fill:#e0bdff"/><ellipse cx="308.87" cy="356.85" rx="9.52" ry="1.88" style="fill:#cad3e2"/><ellipse cx="400.25" cy="405.99" rx="45.74" ry="11.22" style="fill:#efc0ff"/><ellipse cx="400.25" cy="405.99" rx="12.18" ry="2.99" style="fill:#fff"/><path d="M474.07,271.45s9.67,16.73,6.09,23.89c0,0-13.33,48-18.35,70.92a40.76,40.76,0,0,0,.71,20.31c1.7,5.81,3.91,12.49,5.45,14.24l-.62,7.07-11.81-2.25-11.19-27.94s7.15-7.15,5.37-23.28,3.58-43,3.58-43l3.59-16.12-13.16-27.89Z" style="fill:#f0be9d"/><path d="M449.72,263.11s7.35,22,9.89,33.72a16.23,16.23,0,0,1-1,10l-30.14,69.33a18.25,18.25,0,0,0,0,14.49l6.07,14.17L424,410.15,411.63,378a60.89,60.89,0,0,0,5.56-15c.12-.49.22-1,.31-1.42,1.79-8.95,5.37-44.76,21.49-55.5A150.09,150.09,0,0,0,424.69,281Z" style="fill:#fec9a7"/><path d="M374.52,53.62s-.93-12.53,1.76-16.11c1.44-1.93,4-1.59,6-1.21a3.64,3.64,0,0,1,2.94,3.76c-.26,4.86-1.06,12.91-3.51,15.36,0,0,0,27.46,4.61,34.82a30.37,30.37,0,0,1,1.55,2.64c3.46,7.15,18.1,35.55,36.81,44.89l-15.79,17.38s-19.56-16-35.35-56.33a28.84,28.84,0,0,1-2-11.91C372,76.62,373.19,56.28,374.52,53.62Z" style="fill:#fec9a7"/><polygon points="446.14 127.03 447.93 135.99 440.77 148.52 428.24 153.89 426.45 137.77 435.4 127.03 446.14 127.03" style="fill:#f0be9d"/><path d="M445.46,142.9s15.43-59,13.56-78.06a6,6,0,0,0-2-3.9c-2.38-2.09-7.15-5.16-12.78-2.82a1.28,1.28,0,0,1-1.66-.71,1.26,1.26,0,0,1-.08-.64c.26-2.16,1.48-5.38,6-7.28a11.51,11.51,0,0,1,8.52-.05c4.64,1.81,11.77,5.8,10.54,13.14,0,0,3.59,80.57-17.9,93.1l-7.15-9,2.91-3.83" style="fill:#fec9a7"/><path d="M408.54,153.89s10,36.63-.53,52.09a32.2,32.2,0,0,0-2.92,5c-3.64,8.21-11.12,29.72,1.66,46.74l21.45,28.65s8.95-21.49,46.55-14.3a189.55,189.55,0,0,1-22.48-61.24c-.45-2.59-1-5.17-1.5-7.75-1.09-5.21-2.43-17,4.28-27.7,0,0,9-12.54-10.74-39.39L435.4,146.7l-16.12-16.11S413.92,155.68,408.54,153.89Z" style="fill:#bb96ff"/><path d="M456.89,109.13s0,30.44-19.7,21.49c0,0-16.12-17.91-3.58-32.23C433.61,98.39,449.72,80.48,456.89,109.13Z" style="fill:#fec9a7"/><path d="M445.46,142.9c-1.13-4.94-3.35-6.42-7.36-15.79a107.26,107.26,0,0,1-3.88-10.59,15.24,15.24,0,0,1-.69-5c.16-4.77,1.7-13.62,10.82-14.92,1.11-.42,5-1.77,6.72,0,.72.74.7,1.73.67,5.4a11.14,11.14,0,0,0,1.11,4.57c.48,1.11.7,1.22,1.14,2.38a15.54,15.54,0,0,1,.91,4,21,21,0,0,1,.19,5.25c-.23,2-.56,2.58-1.95,6.35s-4.71,12.89-2.07,15.09c1.37,1.11,3-.95,5.56,0,3.83,1.42,3,7.15,6,8.46,4.62,2,14-8.06,13-9.58-.79-1.21-8.05,3.23-9.53,1.28-1.19-1.53,2.75-4.84,2.38-9.42-.15-2-1.22-4.82-5.56-8,1.31-1.4,2.88-3.53,2.59-5.87-.47-3.61-4.93-4.42-5.45-8.1-.42-3,2.32-4.13,2.86-7.31.43-2.52-.52-6.28-6.7-11.71a6.22,6.22,0,0,1-1.54-2,10,10,0,0,0-4.77-5.18c-4.4-2.06-6.4,2-14.47,1.29-3.44-.31-7-1.41-10.93.57a6.59,6.59,0,0,0-1.2.7c-3.24,2.38-4,6.88-4.13,10.2a7.12,7.12,0,0,0,.62,3.18c1.92,4.36,1.52,6.64.65,7.94-1.59,2.27-4.52,1.3-6.92,4a8.43,8.43,0,0,0-1.49,8.3c1.29,3.32,5,5.52,9.05,5.29-1.86,1.29-4,3.23-4.06,5.66-.13,3.77,4.77,5.36,7.15,10.75a16.36,16.36,0,0,1,.85,9.58c-4.77,3.32-5.64,4.92-5.32,5.74.7,1.85,7.23-2.81,12.64.51,4.64,2.84,4.09,9.48,6.29,9.53C442.14,165.22,447.9,153.58,445.46,142.9Z" style="fill:#846d7f"/><path d="M433.8,403.15s-6.75,9.28-12.27-.11c0,0-6.49-11.56-6.8-22.37,0,0-.63-7.41-.41-9.31,0,0-6,.85-5.8,9.95l1.38,24.13h2.81v-18.5s1.59,8,2.27,13.71a16.09,16.09,0,0,0,4.77,9.8c3.06,2.93,9.09,2.39,17.18,4a.29.29,0,0,0,.33-.21.28.28,0,0,0,0-.09C437.13,413.07,436.61,409.48,433.8,403.15Z" style="fill:#f1e3ff"/><path d="M468,400.81s-6.76,9.28-12.28-.11c0,0-6.49-11.56-6.79-22.37,0,0-.64-7.41-.43-9.31,0,0-6,.85-5.79,10l1.39,24.12h2.79V384.59s1.59,8,2.28,13.72a16.09,16.09,0,0,0,4.77,9.8c3,2.93,9.09,2.38,17.18,4a.27.27,0,0,0,.33-.2.25.25,0,0,0,0-.08C471.29,410.72,470.77,407.13,468,400.81Z" style="fill:#f1e3ff"/><path d="M154.77,492.74l46.32-61.4a13.86,13.86,0,0,1,2.58-2.61c8.29-6.41,49.19-37.82,58.1-40.79l34.16,6.63s1.14,11.06-33.05,25.36l-41.26,15.73a11.72,11.72,0,0,0-6.45,5.91c-2.9,6.06-11.91,19.42-39.93,42.43-3.5,2.88-7.54,7.8-11.65,10.95C163.59,495,154.77,500.46,154.77,492.74Z" style="fill:#f0be9d"/><path d="M176.35,480.68S176,483,177,484h0s-5.47,12.3-17.32,18.64h0s-7.78,5.9-10.16-4.82h0l7.83-8.42Z" style="fill:#f0be9d"/><path d="M241.94,381.33s-58.78,32.4-60.67,39.71c0,0-4.09-2.05.52,60.73a33.3,33.3,0,0,1-2.3,14.84l-3.24,8s9.54,14.43,17.15-11.91c0,0,3.9-35.09,3.83-53.48a14.81,14.81,0,0,1,7.38-12.87l55-31.82Z" style="fill:#fec9a7"/><polygon points="269.49 290.88 266.18 310.73 266.18 326.17 276.11 326.17 292.65 303.01 288.25 274.33 269.49 290.88" style="fill:#f0be9d"/><path d="M258.46,358.17,256.24,367,275,373.61l18.27-3.75a43.64,43.64,0,0,1-1.73-12.8c0-7.72-19.85-2.2-19.85-2.2l-13.24,3.31" style="fill:#fec9a7"/><path d="M256.24,365.92a18.85,18.85,0,0,0-2.2,7.72,16.3,16.3,0,0,0,0,2.21c-8.29,4.76-15,5.69-19.86,5.51-6.77-.25-11.48-2.69-15.45,0-3.44,2.33-5.75,7.15-4.41,9.93,1.21,2.53,4.49,1.67,7.72,4.41,4.09,3.46,4,9.21,4.42,11,1.19,5.68,14.9,11.91,72.8,13.24v-5.56c.07-21.68,1-26.46-1.1-34.15,0,0-1.11-6.62-5.52-11C292.65,369.19,267.29,373.61,256.24,365.92Z" style="fill:#f27390"/><path d="M266.18,296.39s-12.52,9-22.24,29.19c0,0-9.74,23.56-29.22,20.2l-23.66-5.61s-11.12-1.13-13.92,3.37c-2.8,3.78-2.34,6.82-2.38,10a2.39,2.39,0,0,0,2.41,2.36,2.54,2.54,0,0,0,1-.24c1.64-.85,3.55-2,5.56-3.17a15.73,15.73,0,0,1,14.92-.47,142.3,142.3,0,0,0,14.77,6.46,21.48,21.48,0,0,0,14.37,0c10.28-3.63,30.41-12.78,36.54-30.08Z" style="fill:#fec9a7"/><path d="M291.55,297.49s-11,26.48-23.16,25.38c0,0-1.1-16.55,3.31-22.06v-6.62l-4.41,1.1-2.21,2.2s-8.84,22.07-12.13,25.38c0,0-4.42,7.72,3.3,15.44,0,0,4.42,15.44,2.21,19.86l33.09,1.1a104.86,104.86,0,0,1,17.65-50.74S296,296.39,291.55,297.49Z" style="fill:#f27390"/><path d="M307.41,306.94a8.62,8.62,0,0,0-4.34,0,8.17,8.17,0,0,0-3.39,1.82c-2.87,2.57-5.68,6.77-4.21,10.33a36.89,36.89,0,0,0,2.59,5.86c6.9,11.17,8.31,13.22,11.31,16.68,6.18,7.15,17.77,24,26.1,40.26.6,1.18,3.11,2.21,4.25,2.89a29.42,29.42,0,0,0,3.54,1.8h.09a16.23,16.23,0,0,0,15.35-1.46l5.64-3.76s2.21-5.51-4.41-3.31c0,0-6.42.58-10.33.48a4.41,4.41,0,0,1-3.86-2.51C340.43,364.89,314.89,311.85,307.41,306.94Z" style="fill:#fec9a7"/><path d="M262.88,258.89s-8.83,35.3,9.92,34.19c0,0,12.13,0,16.55-16.54l1.1-14.34-11-9.93H270.6Z" style="fill:#fec9a7"/><path d="M287.09,266.64c8.51,1.09-8.23,20.38-4.26,27.57,4.46,8.06,30.39,7.38,36.25-4.41,4.52-9.09-4.85-20.85-18.13-37.51-3-3.76-8.9-10.36-17.2-12-.36-.07-.67-.12-.92-.15-9.09-1.19-16.17,4-18.13,5.51-9.39,7.46-10.48,19.07-10.65,21a55.37,55.37,0,0,0,1.06,16.54c.66,2.7,1.71,5.75,1.06,9.93-.5,3.32-1.76,4.62-1.06,5.51,1.63,2.07,11.29-1.24,11.73-5.51.18-1.85-1.48-2.54-3.18-5.52-2.46-4.26-2.32-8.48-2.13-14.34,0-1.32.63-14.87,4.26-15.44C265.77,257.79,270,264.4,287.09,266.64Z" style="fill:#846d7f"/><path d="M176.23,504.62s6.36,8.86,11.64,0c0,0,6.26-10.9,6.64-21.14,0,0,.66-7,.47-8.83,0,0,5.69.86,5.4,9.49L198.87,507h-2.66l.2-17.55s-1.59,7.59-2.28,13a15.2,15.2,0,0,1-4.61,9.24c-3,2.79-7.85,5.82-15.7,7.36C173.83,519,171.05,519.9,176.23,504.62Z" style="fill:#8f7aa0"/><path d="M149.47,497.82s1.59,9.38,9.53,5.2c0,0,9.53-5.28,14-12.71a66,66,0,0,0,4-6.35s4.3,3.17.57,9.44L167,509.68l-2.17-1.18,7.27-12.92s-4.38,4.91-7.15,8.61a12.47,12.47,0,0,1-7.51,4.76c-3.55.74-8.73.8-15.81-1.59C141.66,507.42,139,506.81,149.47,497.82Z" style="fill:#8f7aa0"/></svg>