<svg xmlns="http://www.w3.org/2000/svg" xmlns:xlink="http://www.w3.org/1999/xlink" viewBox="0 0 1024 768"><defs><linearGradient id="linear-gradient" x1="-17" y1="440.96" x2="1034" y2="440.96" gradientUnits="userSpaceOnUse"><stop offset="0" stop-color="#b584ff"/><stop offset="0.28" stop-color="#be8cf7"/><stop offset="0.75" stop-color="#d8a3e0"/><stop offset="1" stop-color="#e8b1d2"/></linearGradient><linearGradient id="linear-gradient-2" x1="110" y1="691.94" x2="914" y2="691.94" gradientUnits="userSpaceOnUse"><stop offset="0" stop-color="#b584ff"/><stop offset="0.13" stop-color="#b887fc" stop-opacity="0.97"/><stop offset="0.34" stop-color="#c18ef5" stop-opacity="0.88"/><stop offset="0.6" stop-color="#cf9be8" stop-opacity="0.75"/><stop offset="0.92" stop-color="#e2acd7" stop-opacity="0.56"/><stop offset="1" stop-color="#e8b1d2" stop-opacity="0.5"/></linearGradient></defs><title>illu3</title><g id="Layer_2" data-name="Layer 2"><path d="M1018,452.39,999.38,322.6a2.74,2.74,0,0,0-5.38-.27l-14,57a2.74,2.74,0,0,1-5.37-.25L959.18,276.36a2.74,2.74,0,0,0-5.43.1L935.48,434.85l-17.7-15.05a4.13,4.13,0,0,0-5.62.26l-17.94,18.3-16.28-30.44a4.93,4.93,0,0,0-8.7,0L853,438.36,836.83,402.7a4.94,4.94,0,0,0-9,0L811.7,438.36l-20.63-14-20.63,17.54-16-40.9a4.94,4.94,0,0,0-9.19,0l-16,40.9-15.8-75.21a4.93,4.93,0,0,0-9.66,0l-15.8,75.21-16-51.82a4.93,4.93,0,0,0-9.4-.08l-15.81,48.39L630.58,364.5a4.94,4.94,0,0,0-9.62-.12l-15.55,63.46-18.64-38a2.74,2.74,0,0,0-4.67-.41l-18,24.41-17.76-54.35a2.75,2.75,0,0,0-5.26.14l-18.24,68.24L504.69,310.3a2.74,2.74,0,0,0-5.4-.1l-14.41,76a2.74,2.74,0,0,1-5.41-.17l-16-127.56a2.74,2.74,0,0,0-5.43-.06l-14.38,97.78a2.74,2.74,0,0,1-5.44-.14L422.36,185.81a2.74,2.74,0,0,0-5.46,0l-15,147.62a2.74,2.74,0,0,1-5.46,0l-15.4-162.34a2.74,2.74,0,0,0-5.45,0L360.94,310.78a2.74,2.74,0,0,1-5.46-.06l-16-198a2.74,2.74,0,0,0-5.46-.08l-14.8,133.35a2.74,2.74,0,0,1-5.44,0L298,109a2.74,2.74,0,0,0-5.41-.2l-14.42,76a2.74,2.74,0,0,1-5.4-.06L258.08,97.21a2.74,2.74,0,0,0-5.43.18l-16,157.72a2.74,2.74,0,0,1-5.45,0l-14.81-131a2.75,2.75,0,0,0-5.46,0L200.78,229.52c-1.25,12.95-19.89,13.65-22.11.83L175.32,211a2.74,2.74,0,0,0-5.42.13L153.72,340.4a2.74,2.74,0,0,1-5.41.17l-13.93-73.41a2.74,2.74,0,0,0-5.42.22L110.3,441.87,92.37,335.2a2.74,2.74,0,0,0-5.41,0L69,441.87,51,405a2.74,2.74,0,0,0-5,.08L27.78,445.37l-20.63-14L-17,430V787H1034V459Z" style="opacity:0.17;fill:url(#linear-gradient)"/></g><g id="Layer_1" data-name="Layer 1"><path d="M872.84,696.5s7.91,3.65,12.48-5.88a65.91,65.91,0,0,0,7.3-22.43l2.24-9.63s6.29-10.56,6.39-11.87.2-6.09-3.86-7.41a17.43,17.43,0,0,0-6.69-1l-8.12,15.63-8.62,15-4.16,18.15,3,9.45" style="fill:#bc978e"/><path d="M869.39,695.79s-2.54-1.72-1.12-21c0,0,.82-19.48-2-21.41L880.55,633l6.09-.31s9.23,1.63,10.75,6.6c0,0-4.66-2.13-7.71,4,0,0-6.49,20.08-9.94,22.42,0,0-9.74,15.62-6.9,30.84Z" style="fill:#d1b6ad"/><ellipse cx="512" cy="691.94" rx="402" ry="94.44" style="opacity:0.25;fill:url(#linear-gradient-2)"/><path d="M299.16,590.34v72.8c0,21.52,94.84,39,211.83,39s211.82-17.44,211.82-39v-72.8Z" style="fill:#676193"/><ellipse cx="510.99" cy="590.34" rx="211.82" ry="38.96" style="fill:#7871ab"/><ellipse cx="394.77" cy="554.1" rx="36.08" ry="6.94" style="fill:#3e3b44"/><rect x="358.7" y="541.14" width="72.15" height="12.97" style="fill:#3e3b44"/><ellipse cx="394.77" cy="541.14" rx="36.08" ry="6.94" style="fill:#5b5260"/><ellipse cx="394.77" cy="540" rx="27.26" ry="4.65" style="fill:#a8a1b2"/><rect x="367.51" y="531.31" width="54.53" height="8.69" style="fill:#a8a1b2"/><ellipse cx="394.77" cy="531.31" rx="27.26" ry="4.65" style="fill:#d5cae0"/><path d="M793.54,402.75s27.54,4.81,27-15.18h0l-2.5-6.88-27.44,13.37" style="fill:#f0be9d"/><path d="M770.89,690.82s-23.37-5-25.7-1.15c0,0-5.08,18.71,35.86,29.82,0,0,5.63,5.94,11.11,6.4,0,0,17.15,3.14,16.34-18.37l-15.58-11.46Z" style="fill:#d1b6ad"/><path d="M847.86,504.35s4.73,25.58-22.78,65.32a6.11,6.11,0,0,0,.86,8l60.88,56.21s-21.1,13.19-18.87,26.59l-72.66-64.94A13.66,13.66,0,0,1,792,579.67l27.09-59.44,28.81-15.88" style="fill:#6f738e"/><path d="M768.32,544.58,748,600.37a24.34,24.34,0,0,0-.38,15.57l23.54,75.76S800,712.8,808.5,707.52c0,0-15.34-69.37-25.28-88.41a16.59,16.59,0,0,1-1.94-9.2,9.49,9.49,0,0,1,1.13-4.2l27.1-42.46s13.8-18.67,12.38-33.48l-53.57,14.81" style="fill:#7b7f9a"/><path d="M848.27,390.36s27.39,33.08,39.36,57.43c0,0,4.67,6.9-46.06,30.44l2.64-25.51,9.28-5.79L845,432.62l3.3-42.26" style="fill:#f0cf81"/><path d="M772.22,348.21s0,.27-.1.77c-.48,4-2.16,22.78,6.55,33.93l7.11,8.36a8.3,8.3,0,0,0,8.91,2.51l8.15-2a23.9,23.9,0,0,0,7.58-3.32l8.75-5.83-17.55-36.94" style="fill:#fec9a7"/><path d="M766.37,336.34a16,16,0,0,0,9.44,16.83S783,367.75,782,371c0,0,2.13,2.68,4.42-6.19,0,0,3.41-3.33,5.17,5.51,0,0,3.79,12.31,9.63,14,0,0,9.31,5.54,17.93-1.61,0,0-3.95-6-2.35-10.42,0,0,10.86-17.44,2.16-31.64,0,0-9.08-14.34-28.74-10C790.24,330.58,769.1,339.44,766.37,336.34Z" style="fill:#846d7f"/><path d="M792.68,399.92c29-14.57,27.79-14.22,27.79-14.22,17.25-9.34,27.8,4.66,27.8,4.66,10.55,28.82-4.87,75.9-4.87,75.9-4.06,12.58,4.87,39.36,4.87,39.36-26,43.43-79.95,39-79.95,39,19.07-50.32-.81-96.18-.81-96.18S760.71,416,792.68,399.92Z" style="fill:#ffdc89"/><path d="M691.49,478s-18.65-5.21-22.82,7.46a9.52,9.52,0,0,0-.31,4.53c.63,3.81,2.47,11.69,6.95,11.55,0,0,5.92,1.26,5.89-3.31a4.23,4.23,0,0,1,2.73-4l8.12-3.07Z" style="fill:#fec9a7"/><path d="M687.31,494c-.5-3.83-.83-12.55,5.54-17.47a3.49,3.49,0,0,1,1.64-.67c6.5-1,46.72-7.7,53.37-19.18l4.34-7.48c.24-.41.48-.81.74-1.21l14.43-22.13a12.86,12.86,0,0,1,13-5.7c4.11.73,8.48,2.78,10.57,7.88a15.47,15.47,0,0,1,.13,10.91c-4.18,12.11-20.44,50.94-58.21,55.48l-43.37,1.4A2.09,2.09,0,0,1,687.31,494Z" style="fill:#f0cf81"/><path d="M342.91,628.15l18,2c3.5.39,6.33,3.08,6.29,6l-.51,40c0,2.92-2.93,5-6.43,4.61l-18.05-2c-3.5-.38-6.33-3.08-6.29-6l.51-40C336.52,629.84,339.41,627.76,342.91,628.15Z" style="fill:#fff;fill-rule:evenodd"/><path d="M339.44,633l24.62,2.67a.09.09,0,0,1,.09.08l-.58,40.16a.07.07,0,0,1-.09.06l-24.62-2.66s-.08,0-.08-.08l.58-40.17A.06.06,0,0,1,339.44,633Z" style="fill:#e0bdff;fill-rule:evenodd"/><path d="M347.25,629.88l9.33,1a.48.48,0,0,1,.46.43h0a.39.39,0,0,1-.47.33l-9.33-1a.47.47,0,0,1-.45-.43h0A.38.38,0,0,1,347.25,629.88Z" style="fill:#e0bdff;fill-rule:evenodd"/><path d="M351.33,676a1.62,1.62,0,0,1,1.54,1.47,1.29,1.29,0,0,1-1.57,1.12,1.62,1.62,0,0,1-1.54-1.46A1.29,1.29,0,0,1,351.33,676Z" style="fill:#e0bdff;fill-rule:evenodd"/><path d="M431.9,638.33c-16.39-.32-29.87,10.81-30.12,24.88s12.83,25.72,29.22,26,29.86-10.81,30.11-24.88S448.28,638.66,431.9,638.33Zm13,37a2,2,0,0,1-2.55.48c-6.9-3.8-15.65-4.79-26-3a1.89,1.89,0,0,1-2.19-1.24,1.59,1.59,0,0,1,1.43-1.87c11.33-2,21-.85,28.76,3.4A1.47,1.47,0,0,1,444.85,675.32Zm3.76-6.86a2.56,2.56,0,0,1-3.2.59c-7.9-4.36-20-5.82-29.51-3.55a2.4,2.4,0,0,1-2.86-1.38,1.94,1.94,0,0,1,1.59-2.44c10.82-2.6,24.19-1,33.26,4a1.84,1.84,0,0,1,.72,2.75Zm.43-7.21c-9.47-5.07-25.24-5.83-34.41-3.63A2.89,2.89,0,0,1,411.2,656a2.35,2.35,0,0,1,1.9-2.94c10.53-2.52,27.94-1.65,38.85,4.17a2.22,2.22,0,0,1,.91,3.29A3.06,3.06,0,0,1,449,661.25Z" style="fill:#e0bdff"/><path d="M489.15,678.16h0a2.2,2.2,0,0,0,1.06,1.94,3,3,0,0,0,2.19.45,2.58,2.58,0,0,0,1.52-.73,2.73,2.73,0,0,0,.4-1.72l-.21-9.38a2.24,2.24,0,0,0-.79-1.69,2.7,2.7,0,0,0-1.86-.68,2.57,2.57,0,0,0-1.8.72,2.23,2.23,0,0,0-.72,1.71Zm8.17,3.91a1.61,1.61,0,0,0,.75,1.4,3.94,3.94,0,0,0,3.73,0,1.57,1.57,0,0,0,.69-1.42L502,660.15a2.21,2.21,0,0,0-.79-1.66,2.62,2.62,0,0,0-1.86-.67,2.54,2.54,0,0,0-1.8.71,2.2,2.2,0,0,0-.72,1.68Zm8.08.94a1.57,1.57,0,0,0,.77,1.4,3.43,3.43,0,0,0,1.9.45,3.39,3.39,0,0,0,1.84-.49,1.57,1.57,0,0,0,.69-1.42l-.44-20a2.28,2.28,0,0,0-.79-1.7,2.57,2.57,0,0,0-1.83-.69,2.66,2.66,0,0,0-1.85.73,2.23,2.23,0,0,0-.73,1.73l.44,20Zm8.08,0c0,1.19.91,1.77,2.64,1.75s2.59-.62,2.57-1.81L518,650.61c0-1.82-.66-2.83-1.86-3.06a2.63,2.63,0,0,0-2.27.65,2.87,2.87,0,0,0-1.07,2.47l.7,32.34Zm9.14,0-.77-35.2c0-1.12.33-1.79,1-2a21.91,21.91,0,0,1,4.66-.57,22.27,22.27,0,0,1,10.07,2.21,20.47,20.47,0,0,1,7.65,6.27,18.18,18.18,0,0,1,3.51,8.84,12.34,12.34,0,0,1,4.55-.9,12.14,12.14,0,0,1,8.49,3.1,10.2,10.2,0,0,1,3.67,7.66,10,10,0,0,1-3.33,7.77,11.82,11.82,0,0,1-8.31,3.3l-30.59.34a.87.87,0,0,1-.48-.35.94.94,0,0,1-.17-.45Z" style="fill:#e0bdff"/><path d="M671.75,660.28a30,30,0,0,0-4.9.33,16.25,16.25,0,0,0-5.27,1.45,13.06,13.06,0,0,0-3.41,1.79c-.37.26-.69.56-.55,1s.62.31,1,.24c1.57-.29,3.13-.6,4.7-.9h0c1.57-.15,3.14-.38,4.72-.39,1.91,0,2.62.6,2.39,2.3-.13,1-.46,2-.69,3-.7,1.75-1.39,3.49-2.1,5.24-.16.41-.48.86,0,1.14s.85-.13,1.2-.41a13.88,13.88,0,0,0,3.49-4.41h0a1.88,1.88,0,0,0,.27-.3,18.79,18.79,0,0,0,2.21-6.84C675.08,660.83,674.7,660.53,671.75,660.28Z" style="fill:#e0bdff"/><path d="M663,652a10.06,10.06,0,0,0,6.1.87,13.44,13.44,0,0,0,3.79-1.08,1,1,0,0,0,.62-1.42c-.15-.41-.5-.39-.88-.23a15.68,15.68,0,0,1-5.13.85,4.67,4.67,0,0,1-5-3,15.14,15.14,0,0,1-.54-4.6c0-.28.11-.55.16-.82.38-1.88,1-3.7,3.13-4.73a10.57,10.57,0,0,1,5.23-1.05c.65,0,1.28.11,1.92.15a.93.93,0,0,0,.91-.32.81.81,0,0,0,0-.86,1.24,1.24,0,0,0-1-.64q-.92-.11-1.83-.15a11.52,11.52,0,0,0-7,1.76,8.23,8.23,0,0,0-3.79,6.55h0a12.75,12.75,0,0,0,0,3C659.9,648.62,660.68,650.73,663,652ZM659.86,643a.35.35,0,0,1-.16.3Z" style="fill:#e0bdff"/><path d="M616.66,653.38c.09,2.74,1.81,4.25,4.74,4.21a12.24,12.24,0,0,0,6.44-1.82,3.75,3.75,0,0,0,1.14-.59c.94-.61.94-.61,1.1.3.07.34.14.73.63.72s1.09.18,1.4-.47a.84.84,0,0,0,.07-.26.75.75,0,0,0,.05-.26q0-7.68,0-15.36c0-.61-.27-.89-1-.82-1.11.1-1.32.27-1.32,1.28q0,6.3,0,12.6h0a36.91,36.91,0,0,1-3.39,2h0a17.68,17.68,0,0,1-3.84.83c-1.35.06-2.54-.16-3.21-1.26a4.56,4.56,0,0,1-.45-1.54c0-3.73,0-7.46,0-11.19a5.62,5.62,0,0,0,0-.82c-.11-.8-.83-.57-1.43-.53s-.88.3-.87.85c0,2.18,0,4.37,0,6.56h0C616.66,649.65,616.6,651.52,616.66,653.38Z" style="fill:#e0bdff"/><path d="M653,653.19c0,.76.47.85,1.2.79s1.07-.32,1.06-1c0-2.73,0-5.47,0-8.2,0-2.41,0-4.81,0-7.22,0-.73-.41-.84-1.11-.76s-1.15.25-1.14,1c0,2,0,4,0,6h0C653,646.92,653,650.05,653,653.19Z" style="fill:#e0bdff"/><path d="M664.67,666.86c-.53.22-1,.47-1.57.71l-4.88,2.15h0L651.91,672l-.13,0-6.11,1.78c-1.8.49-3.64.72-5.42,1.29h0a136.51,136.51,0,0,1-13.56,1.81h0l-6.14.26h0L613.6,677h0c-2.57-.22-5.14-.41-7.67-.78-1.58-.23-3.15-.48-4.72-.72-3.69-.75-7.3-1.68-10.86-2.73-1.1-.4-2.21-.78-3.3-1.19s-2-.77-3-1.16a1,1,0,0,0-1.15.28c-.32.39-.14.72.14,1a1.65,1.65,0,0,0,.36.28c1.21.77,2.4,1.58,3.65,2.31a54.1,54.1,0,0,0,11,5h0a16.38,16.38,0,0,0,2.64.89,53.91,53.91,0,0,0,7.87,1.82h0a39.83,39.83,0,0,0,4.38.64,57.37,57.37,0,0,0,7.89.39,27.88,27.88,0,0,0,5.54-.23h0a2.81,2.81,0,0,0,.49,0,67.1,67.1,0,0,0,10.94-1.65,45.7,45.7,0,0,0,7.13-1.89h0c1.72-.3,3.25-1.21,4.92-1.68h0a37.71,37.71,0,0,0,5.77-2.48,3.32,3.32,0,0,0,1-.38c1.6-.76,3.12-1.67,4.64-2.57a36.67,36.67,0,0,0,5-3.29c.61-.48.86-1.06.43-1.62A1.48,1.48,0,0,0,664.67,666.86Z" style="fill:#e0bdff"/><path d="M637,655.3a13.16,13.16,0,0,0,4,.39,11.74,11.74,0,0,0,5.21-1.12h0a4.66,4.66,0,0,0,2-1.4c1.73-1.81,2-5.25-.89-6.56a13.43,13.43,0,0,0-1.82-.62c-1.7-.43-3.47-.71-5.1-1.3-2.25-.81-2.48-3.14-.47-4.71a10.84,10.84,0,0,1,4.41-.83,28.43,28.43,0,0,1,3.07.23c.39,0,.85,0,1-.43s.22-.94-.38-1.15a4.26,4.26,0,0,0-.93-.25,18.39,18.39,0,0,0-4-.2,8.54,8.54,0,0,0-4.19,1.37h0c-3.05,1.92-3.4,5.52-.68,7.26a10.83,10.83,0,0,0,3.48,1.17,21.66,21.66,0,0,1,4.43,1.24,1.93,1.93,0,0,1,1.16,1.85,3.4,3.4,0,0,1-1.59,2.73c-2.82,1.21-5.6,1-8.37.6-.38-.06-.79-.23-1.1.13a1.06,1.06,0,0,0-.13,1.08C636.16,655.17,636.59,655.22,637,655.3Z" style="fill:#e0bdff"/><path d="M586.12,659.33c0-2,0-3.92,0-5.88h0c0-2,0-3.93,0-5.9a1.17,1.17,0,0,1,.66-1.16c.75-.41,1.48-.86,2.21-1.29a8.57,8.57,0,0,0,.9-.28,10.5,10.5,0,0,1,3.51-.74,2.66,2.66,0,0,1,2.93,1.61,5.84,5.84,0,0,1,.33,2.24V658.3a1.59,1.59,0,0,0,.14,1c1.06.45,2.08.11,2.08-.73,0-2.08,0-4.15,0-6.23h0c0-2,0-4.07,0-6.11a1.25,1.25,0,0,1,.55-1.06c.6-.47,1.34-.74,2-1.17a19.29,19.29,0,0,1,4.29-1.15c2.21-.18,3.37.59,3.7,2.5.15.88.08,1.78.15,2.66,0,3.05,0,6.1,0,9.15,0,.38-.19.91.35,1a1.77,1.77,0,0,0,1.73-.36h0a.81.81,0,0,0,.15-.59c0-4.12,0-8.26,0-12.38a4,4,0,0,0-4.19-3.93,12.81,12.81,0,0,0-7,2h0a7.18,7.18,0,0,0-1.57,1c-.39.3-.63.36-.92-.06a3.45,3.45,0,0,0-2.25-1.51c-2.81-.56-5.38.34-7.87,1.77-.32.19-.65.35-1,.56-.87.57-.88.57-1-.32-.05-.48-.16-.86-.85-.84-1,0-1.24.22-1.24,1.15v15.05a1.27,1.27,0,0,0,.15.86C585.41,661.05,586.12,660.63,586.12,659.33Z" style="fill:#e0bdff"/><path d="M654.2,633.2a1.66,1.66,0,0,0,1.65-1.69,1.39,1.39,0,0,0-1.7-1.41,1.93,1.93,0,0,0-1.7,1.8A1.41,1.41,0,0,0,654.2,633.2Z" style="fill:#e0bdff"/><ellipse cx="397.27" cy="525.58" rx="11.98" ry="2.37" style="fill:#cad3e2"/><ellipse cx="512.31" cy="587.45" rx="57.59" ry="14.12" style="fill:#efc0ff"/><ellipse cx="512.31" cy="587.45" rx="15.34" ry="3.76" style="fill:#fff"/><path d="M605.25,418.06s12.18,21.06,7.67,30.08c0,0-16.78,60.48-23.1,89.29a51.29,51.29,0,0,0,.89,25.57c2.15,7.31,4.93,15.73,6.86,17.93l-.78,8.9L581.92,587l-14.08-35.18s9-9,6.76-29.31,4.51-54.1,4.51-54.1l4.51-20.29L567.06,413Z" style="fill:#f0be9d"/><path d="M574.6,407.56s9.25,27.75,12.45,42.45a20.46,20.46,0,0,1-1.27,12.54l-37.95,87.29a23,23,0,0,0,0,18.25l7.65,17.84-13.31,6.76-15.53-40.5a76.75,76.75,0,0,0,7-18.85c.15-.62.28-1.22.39-1.79,2.26-11.27,6.77-56.36,27.06-69.88a190.28,190.28,0,0,0-18-31.56Z" style="fill:#fec9a7"/><path d="M479.92,143.81s-1.17-15.78,2.21-20.28c1.82-2.44,5-2,7.52-1.53a4.58,4.58,0,0,1,3.7,4.74c-.32,6.11-1.33,16.25-4.41,19.33,0,0,0,34.58,5.8,43.84.68,1.1,1.38,2.17,1.95,3.33,4.36,9,22.79,44.75,46.35,56.52l-19.88,21.88s-24.63-20.1-44.51-70.92a36.2,36.2,0,0,1-2.48-15C476.8,172.77,478.25,147.16,479.92,143.81Z" style="fill:#fec9a7"/><polygon points="570.09 236.24 572.35 247.51 563.33 263.29 547.55 270.05 545.3 249.76 556.57 236.24 570.09 236.24" style="fill:#f0be9d"/><path d="M569.24,256.22s19.42-74.25,17.07-98.29a7.52,7.52,0,0,0-2.47-4.91c-3-2.63-9-6.49-16.09-3.54a1.61,1.61,0,0,1-2.19-1.7c.33-2.72,1.86-6.78,7.58-9.17a14.44,14.44,0,0,1,10.72-.06c5.85,2.27,14.82,7.3,13.28,16.54,0,0,4.51,101.44-22.54,117.22l-9-11.27,3.66-4.82" style="fill:#fec9a7"/><path d="M522.75,270.05s12.58,46.12-.67,65.58a41.1,41.1,0,0,0-3.67,6.32c-4.59,10.34-14,37.42,2.09,58.85l27,36.07s11.27-27.05,58.61-18c0,0-20.56-32.91-28.3-77.1-.57-3.27-1.21-6.52-1.89-9.76-1.37-6.56-3.06-21.35,5.39-34.88,0,0,11.28-15.78-13.52-49.59L556.57,261l-20.29-20.29S529.52,272.31,522.75,270.05Z" style="fill:#bb96ff"/><path d="M583.62,213.7s0,38.32-24.8,27.05c0,0-20.29-22.55-4.51-40.58C554.31,200.17,574.6,177.63,583.62,213.7Z" style="fill:#fec9a7"/><path d="M569.24,256.22c-1.43-6.23-4.22-8.09-9.27-19.88A135.7,135.7,0,0,1,555.08,223a19.08,19.08,0,0,1-.86-6.32c.2-6,2.14-17.15,13.62-18.79,1.4-.52,6.35-2.22,8.46,0,.9.94.88,2.18.84,6.81a14.13,14.13,0,0,0,1.4,5.75c.6,1.4.88,1.53,1.44,3a19.75,19.75,0,0,1,1.14,5,26.42,26.42,0,0,1,.24,6.61c-.29,2.46-.71,3.25-2.45,8s-5.93,16.23-2.61,19c1.72,1.4,3.83-1.2,7,0,4.82,1.79,3.77,9,7.57,10.65,5.81,2.55,17.61-10.15,16.34-12.06-1-1.52-10.14,4.07-12,1.61-1.5-1.93,3.46-6.09,3-11.86-.2-2.52-1.54-6.07-7-10.11,1.65-1.76,3.62-4.44,3.25-7.39-.58-4.54-6.2-5.56-6.86-10.2-.53-3.77,2.92-5.2,3.61-9.2.54-3.18-.66-7.91-8.44-14.74a7.94,7.94,0,0,1-1.94-2.58c-1.67-3.54-3.77-5.5-6-6.53-5.55-2.59-8.06,2.55-18.22,1.63-4.34-.39-8.83-1.78-13.77.71a8.78,8.78,0,0,0-1.5.88c-4.08,3-5.07,8.67-5.21,12.85a9,9,0,0,0,.79,4c2.41,5.49,1.91,8.36.81,10-2,2.86-5.69,1.64-8.71,5.09a10.6,10.6,0,0,0-1.87,10.45c1.62,4.18,6.23,6.94,11.39,6.66-2.34,1.62-5,4.06-5.11,7.12-.16,4.75,6,6.75,9,13.54a20.59,20.59,0,0,1,1.07,12.06c-6,4.18-7.1,6.19-6.7,7.23.88,2.32,9.11-3.55,15.92.63,5.84,3.58,5.15,11.94,7.92,12C565.06,284.32,572.31,269.66,569.24,256.22Z" style="fill:#846d7f"/><path d="M554.56,583.88s-8.5,11.68-15.45-.14c0,0-8.18-14.56-8.56-28.17,0,0-.8-9.33-.52-11.72,0,0-7.57,1.07-7.3,12.53l1.74,30.38,3.53,0,0-23.3s2,10.09,2.86,17.27a20.3,20.3,0,0,0,6,12.34c3.86,3.68,11.45,3,21.63,5a.35.35,0,0,0,.43-.37C558.75,596.36,558.09,591.84,554.56,583.88Z" style="fill:#f1e3ff"/><path d="M597.57,580.93s-8.51,11.68-15.45-.14c0,0-8.18-14.56-8.56-28.16,0,0-.8-9.33-.53-11.72,0,0-7.57,1.06-7.29,12.53l1.74,30.37,3.52,0,0-23.3s2,10.09,2.87,17.27a20.24,20.24,0,0,0,6,12.34c3.85,3.69,11.45,3,21.63,5a.35.35,0,0,0,.43-.36C601.75,593.41,601.1,588.89,597.57,580.93Z" style="fill:#f1e3ff"/><path d="M203.25,696.67l58.32-77.3a17.16,17.16,0,0,1,3.25-3.29c10.43-8.07,61.93-47.61,73.15-51.35l43,8.34S382.41,587,339.36,605L287.41,624.8a14.78,14.78,0,0,0-8.11,7.45c-3.65,7.63-15,24.44-50.28,53.42-4.4,3.62-9.49,9.82-14.66,13.78C214.36,699.45,203.25,706.39,203.25,696.67Z" style="fill:#f0be9d"/><path d="M230.42,681.49s-.48,2.85.75,4.18h0s-6.88,15.48-21.8,23.47h0s-9.8,7.42-12.79-6.08h0l9.85-10.6Z" style="fill:#f0be9d"/><path d="M313,556.4s-74,40.79-76.38,50c0,0-5.15-2.58.65,76.46a41.85,41.85,0,0,1-2.9,18.68l-4.07,10.09s12,18.16,21.59-15c0,0,4.91-44.18,4.82-67.33a18.64,18.64,0,0,1,9.29-16.2l69.22-40.07Z" style="fill:#fec9a7"/><polygon points="347.69 442.52 343.52 467.52 343.52 486.96 356.02 486.96 376.85 457.8 371.3 421.69 347.69 442.52" style="fill:#f0be9d"/><path d="M333.8,527.24,331,538.35l23.61,8.33,23-4.72a54.84,54.84,0,0,1-2.17-16.11c0-9.72-25-2.78-25-2.78l-16.67,4.17" style="fill:#fec9a7"/><path d="M331,537a23.87,23.87,0,0,0-2.77,9.72,21.47,21.47,0,0,0,0,2.78c-10.43,6-18.91,7.17-25,6.94-8.52-.32-14.45-3.39-19.45,0-4.33,2.94-7.24,9-5.55,12.5,1.52,3.19,5.65,2.11,9.72,5.56,5.15,4.35,5.07,11.59,5.56,13.88,1.5,7.15,18.76,15,91.66,16.67,0-1.51,0-4,0-7,.09-27.3,1.29-33.31-1.39-43,0,0-1.39-8.33-6.95-13.89C376.85,541.12,344.91,546.68,331,537Z" style="fill:#f27390"/><path d="M343.52,449.46s-15.77,11.31-28,36.75c0,0-12.26,29.67-36.79,25.43l-29.79-7.06s-14-1.42-17.52,4.24c-3.53,4.76-2.95,8.59-3,12.56a3,3,0,0,0,4.3,2.67c2.07-1.08,4.47-2.5,7-4a19.84,19.84,0,0,1,18.79-.59,179.41,179.41,0,0,0,18.59,8.14,27.15,27.15,0,0,0,18.1,0c12.94-4.58,38.28-16.09,46-37.87Z" style="fill:#fec9a7"/><path d="M375.46,450.85s-13.88,33.33-29.16,31.95c0,0-1.39-20.84,4.17-27.78v-8.33l-5.56,1.39-2.78,2.77S331,478.63,326.86,482.8c0,0-5.56,9.72,4.16,19.44,0,0,5.56,19.44,2.78,25l41.66,1.39a132,132,0,0,1,22.22-63.89S381,449.46,375.46,450.85Z" style="fill:#f27390"/><path d="M395.43,462.75a10.93,10.93,0,0,0-5.47-.05A10.34,10.34,0,0,0,385.7,465c-3.62,3.23-7.16,8.52-5.31,13a46,46,0,0,0,3.27,7.38c8.68,14.06,10.46,16.65,14.23,21,7.79,9,22.38,30.25,32.86,50.69.76,1.48,3.92,2.78,5.35,3.64a38.4,38.4,0,0,0,4.46,2.27l.12,0A20.43,20.43,0,0,0,460,561.14l7.1-4.74s2.78-6.94-5.55-4.17c0,0-8.08.74-13,.61a5.54,5.54,0,0,1-4.86-3.16C437,535.7,404.85,468.92,395.43,462.75Z" style="fill:#fec9a7"/><path d="M339.36,402.25s-11.11,44.44,12.49,43.05c0,0,15.28,0,20.84-20.83l1.39-18.06-13.89-12.5H349.08Z" style="fill:#fec9a7"/><path d="M369.85,412c10.71,1.38-10.37,25.67-5.37,34.72,5.62,10.14,38.26,9.29,45.64-5.56,5.69-11.44-6.1-26.24-22.82-47.22-3.77-4.73-11.21-13.05-21.66-15.09-.45-.08-.84-.14-1.16-.18-11.44-1.5-20.36,5-22.82,6.94-11.83,9.39-13.2,24-13.42,26.39a69.94,69.94,0,0,0,1.34,20.83c.83,3.4,2.15,7.24,1.34,12.5-.64,4.18-2.22,5.82-1.34,6.94,2.05,2.61,14.21-1.56,14.77-6.94.23-2.33-1.86-3.19-4-6.95-3.1-5.36-2.93-10.68-2.69-18.05.06-1.66.8-18.73,5.37-19.44C343,400.86,348.37,409.19,369.85,412Z" style="fill:#846d7f"/><path d="M230.27,711.63s8,11.15,14.65,0c0,0,7.88-13.73,8.36-26.62,0,0,.83-8.84.59-11.11,0,0,7.17,1.08,6.81,11.94l-1.91,28.78h-3.34l.24-22.09s-2,9.55-2.87,16.35A19.16,19.16,0,0,1,247,720.52c-3.74,3.51-9.88,7.32-19.77,9.26C227.25,729.78,223.75,730.86,230.27,711.63Z" style="fill:#8f7aa0"/><path d="M196.58,703.06s2,11.82,12,6.55c0,0,12-6.64,17.63-16,0,0,4.27-6.17,5-8,0,0,5.42,4,.72,11.89L218.66,718l-2.73-1.49,9.15-16.26s-5.51,6.18-9,10.83a15.65,15.65,0,0,1-9.45,6c-4.48.93-11,1-19.91-2C186.75,715.15,183.45,714.38,196.58,703.06Z" style="fill:#8f7aa0"/></g></svg>