<svg id="Layer_1" data-name="Layer 1" xmlns="http://www.w3.org/2000/svg" viewBox="0 0 800 600"><title>illu1_1</title><path d="M52.31,409.64c-5.21-37.82,4.58-91.12,39.09-120.52,18.81-16,35.36-16.74,59.72-43.62,7.28-8,19.43-21.71,27.55-42.47,11.36-29.06,4.09-44.55,9.18-66.57,8.06-34.82,39.9-55,65.43-71.17C356.58-.2,495.35,35.76,506.85,38.89,546.6,49.7,636,74.14,696.24,162.86,713.82,188.66,769.56,278.76,741,389c-4.53,17.5-22.56,83.3-82.64,132-57.07,46.27-118.82,48.69-239.89,51.65-127.67,3.1-219.28,4.06-296.14-57.4C100.08,497.44,59.85,464.29,52.31,409.64Z" style="fill:#fff;isolation:isolate"/><g id="_1" data-name=" 1"><path d="M52.31,409.64c-5.21-37.82,4.58-91.12,39.09-120.52,18.81-16,35.36-16.74,59.72-43.62,7.28-8,19.43-21.71,27.55-42.47,11.36-29.06,4.09-44.55,9.18-66.57,8.06-34.82,39.9-55,65.43-71.17C356.58-.2,495.35,35.76,506.85,38.89,546.6,49.7,636,74.14,696.24,162.86,713.82,188.66,769.56,278.76,741,389c-4.53,17.5-22.56,83.3-82.64,132-57.07,46.27-118.82,48.69-239.89,51.65-127.67,3.1-219.28,4.06-296.14-57.4C100.08,497.44,59.85,464.29,52.31,409.64Z" style="fill:#c6ddfe;opacity:0.2800000011920929;isolation:isolate"/><g style="opacity:0.8999999761581421"><rect x="504.24" y="215.67" width="6.79" height="56.03" rx="1.75" style="fill:#c6ddfe"/><rect x="278.3" y="171.77" width="3.81" height="18.45" rx="1.75" style="fill:#c6ddfe"/><rect x="278.15" y="205.54" width="4.3" height="32.1" rx="1.75" style="fill:#c6ddfe"/><rect x="278.23" y="248.89" width="4.09" height="32.38" rx="1.75" style="fill:#c6ddfe"/><rect x="280.46" y="110.81" width="227.46" height="462.27" rx="29.93" style="fill:#fff"/><rect x="372.24" y="124.61" width="31.76" height="6.45" rx="2.97" style="fill:#e6e8ec"/><circle cx="412.47" cy="127.84" r="3.66" style="fill:#e6e8ec"/></g><path d="M475.77,122.85h-26V126a14.88,14.88,0,0,1-14.88,14.88h-83A14.88,14.88,0,0,1,337,126h0v-3.13H312.56a18,18,0,0,0-18.05,18.05h0V543a18,18,0,0,0,18,18.06H475.8A18.07,18.07,0,0,0,493.86,543V140.91a18.06,18.06,0,0,0-18.06-18.06Z" style="fill:#4285f4"/><path d="M311.7,547.37l4.88,12.32s-5.62,4-9,.26l-5.72-10.62Z" style="fill:#ebc0c2"/><path d="M201.55,457.48l-9.73-9s3.34-6,8-4.11l9.76,7.14Z" style="fill:#ebc0c2"/><path d="M316.3,557c-.19,1.67-1.49,7-9.7,2.92a.57.57,0,0,0-.65.1c-.9.93-3.37,4.2-1.24,10.29a1.32,1.32,0,0,0,1.32.93l35.46-.09a3.21,3.21,0,0,0,3.2-3.18h0a3.19,3.19,0,0,0-3.08-3.23l-3.82-.16a5.42,5.42,0,0,1-1.54-.32l-19.41-7.55a.35.35,0,0,0-.49.14A.33.33,0,0,0,316.3,557Z" style="fill:#e4e4e4"/><path d="M195.6,452.92c-1.17-1.21-4.51-5.56,3.81-9.4a.56.56,0,0,0,.33-.57c-.17-1.33-1.15-5.31-7.24-7.42A1.32,1.32,0,0,0,191,436l-22.15,27.68a3.19,3.19,0,0,0,.47,4.47h0a3.18,3.18,0,0,0,4.45-.35l2.51-2.88a4.86,4.86,0,0,1,1.22-1l18.05-10.4a.35.35,0,0,0,.15-.47A.31.31,0,0,0,195.6,452.92Z" style="fill:#e4e4e4"/><path d="M256.52,414.4S241.3,425.66,240.59,470l-30.44-21.85-9.93,12s23.89,36.4,42.35,37.73c0,0,15.93,7.27,37.07-76.78Z" style="fill:#0057b8"/><path d="M271.09,413.08s-17.88,17.87-5.31,47c0,0,29.12,62.22,33.75,90.67h16.55S294.85,424.33,291.58,419Z" style="fill:#0065d6"/><path d="M352.46,333.86s-1.78-3.42,5-8.69c0,0,6.79-7,8.41-13.91,0,0,1.78-6-11.7,6.82a.47.47,0,0,1-.63,0c-.55-.45-1.1-1.7-1.1-5.63,0-.65-.93-.91-1.32-.62-1,.72-2.42,2.66-2.34,8.27,0,0-3.29,10.39-6.72,12.16Z" style="fill:#ebc0c2"/><path d="M188,380.85s-8.07-3-17.25,11.95c0,0-7.66.81-1.84-9.89l4.64-7.47s1.19-3.22-3.65-5c0,0-2.66-2.81,1.2-3.22,0,0,5.86,4,9.69,3.61l7.06.79" style="fill:#ebc0c2"/><path d="M343.88,324.41c-11.09,25.38-31.85,41.46-39.81,46.9a3.61,3.61,0,0,1-3.77.19c-13.59-7.39-25.07-5.81-31.13-4a20.58,20.58,0,0,0-6.08,3c-5.76,4.13-29.68,17.25-78-3.74v35.74s52.27,5.31,79.41-13.91v-.66a28.89,28.89,0,0,1-8,26.47l40.37,15.93c0-23.16,5.19-32,6.51-39.91l.11.86c47-11.25,58.9-47.65,58.9-47.65Z" style="fill:#fed141"/><path d="M297.38,345.65s6.73,7.47,8.21,11.94c0,0,2.25,4.49-8.21,6l1.49,7.47-12.72-2.25V348.61Z" style="fill:#ebc0c2"/><path d="M298.12,343.38s.75,8.21-5.23,9.71c0,0-4.49,1.5,1.49,3.74,0,0-2.73,8.21,2.92,12.2a1.23,1.23,0,0,1,.35,1.67c-1.33,1.93-6.07,5-23.45-1.15,0,0-9.76-4.18-2.37-13.9a23.28,23.28,0,0,0,1.6-2.32C276.23,348.76,286.63,333.79,298.12,343.38Z" style="fill:#2c4488"/><polygon points="560.58 524.28 563.02 536.5 566.95 536.5 607.03 536.5 611.91 524.28 560.58 524.28" style="fill:#c6defe"/><polygon points="570.36 565.84 565.46 536.5 604.92 536.5 599.69 565.84 570.36 565.84" style="fill:#b7d1fe"/><path d="M594,507.56s14.68-17.11,2.46-19.55a7.53,7.53,0,0,0-4.9,2.44s-2.44,0,0-4.88c0,0,7.34-9.79-2.44-14.68,0,0-4.88-2.44-9.78,4.89,0,0-2.44,2.45-2.44-2.44,0,0,7.34-12.22,4.88-17.12,0,0-2.44-4.88-7.33-2.44,0,0-2.45.89-4.65,5,0,0-3,.89-1.6-3.59,0,0,5.22-17.47-1.77-19.67,0,0-5.41-3-7.81,3.6,0,0-2.89,2.24-3.09-4.28,0,0-2.5-6-8-4.82,0,0-8,1,2.89,14.3,0,0,3.4,3.2-1.33,3.2,0,0-6.09-.91-3.59,5.8,0,0,2.65,4.39,9.79,6.9,0,0,2.8,2.19-3,3.39,0,0-6.09.69-3.49,6.8,0,0,3.49,7,13.79,7.19,0,0,4.41,2-1.33,3.6,0,0-8.3-.16-5.9,5.89,0,0,.53,3.13,11,6.64,0,0,3.45,3.34-2.81,3.86,0,0-9.72-2.19-9.93,1.88,0,0-2.5,5.11,10.55,8.76Z" style="fill:#ffc954"/><path d="M584.68,512.65s-9.86-39-25.36-60.34c0,0,19.9,50.23,19,60.7Z" style="fill:#bf973f"/><path d="M570.36,524.28s-14.68-17.11-2.46-19.55a7.58,7.58,0,0,1,4.9,2.44s2.44,0,0-4.9c0,0-7.34-9.76,2.44-14.59,0,0,4.88-2.45,9.78,4.89,0,0,2.44,2.44,2.44-2.45,0,0-7.34-12.23-4.88-17.11,0,0,2.44-4.88,7.33-2.44,0,0,2.45.89,4.65,5,0,0,3,.9,1.6-3.58,0,0-5.22-17.48,1.77-19.67,0,0,5.41-3,7.8,3.59,0,0,2.9,2.25,3.1-4.28,0,0,2.5-6,7.9-4.82,0,0,8,1-2.9,14.31,0,0-3.39,3.19,1.33,3.19,0,0,6.09-.9,3.6,5.8,0,0-2.66,4.4-9.8,6.89,0,0-2.8,2.2,3,3.4,0,0,6.09.7,3.49,6.81,0,0-3.49,7-13.79,7.19,0,0-4.4,2,1.33,3.6,0,0,8.31-.16,5.91,5.89,0,0-.53,3.13-11,6.64,0,0-3.45,3.33,2.82,3.86,0,0,9.71-2.21,9.91,1.87,0,0,2.51,5.12-10.54,8.77Z" style="fill:#689df6"/><path d="M581.69,524.58s9.86-39,25.36-60.34c0,0-19.9,50.23-19,60.7Z" style="fill:#3264b7;opacity:0.5899999737739563;isolation:isolate"/><g style="opacity:0.5"><polygon points="118.42 500.38 119.94 508.01 122.4 508.01 147.4 508.01 150.45 500.38 118.42 500.38" style="fill:#d5d9ff"/><polygon points="124.52 526.31 121.47 508.01 146.09 508.01 142.82 526.31 124.52 526.31" style="fill:#b7c9fe"/><path d="M139.28,490s9.14-10.62,1.53-12.19a4.72,4.72,0,0,0-3.06,1.52s-1.52,0,0-3.05c0,0,4.58-6.11-1.52-9.16,0,0-3.06-1.52-6.11,3.05,0,0-1.52,1.53-1.52-1.52,0,0,4.57-7.62,3.05-10.62a3.35,3.35,0,0,0-4.46-1.59l-.12.06a6.46,6.46,0,0,0-2.91,3.15s-1.89.56-1-2.24c0,0,3.25-10.91-1.11-12.28,0,0-3.37-1.87-4.87,2.24,0,0-1.81,1.4-1.93-2.65,0,0-1.56-3.76-4.94-3,0,0-5,.62,1.82,8.92,0,0,2.11,2-.82,2,0,0-3.8-.56-2.24,3.62a12,12,0,0,0,6.11,4.3s1.76,1.33-1.87,2.13a2.73,2.73,0,0,0-2.62,2.86,2.76,2.76,0,0,0,.43,1.37s2.19,4.37,8.62,4.5c0,0,2.74,1.25-.81,2.24,0,0-5.19-.1-3.69,3.68,0,0,.33,1.95,6.85,4.1,0,0,2.15,2.08-1.77,2.41,0,0-6-1.32-6.18,1.17,0,0-1.57,3.2,6.57,5.47Z" style="fill:#ffc954"/><path d="M133.47,493.12s-6.16-24.32-15.84-37.65c0,0,12.45,31.34,12,37.87Z" style="fill:#bf973f"/><path d="M124.57,500.38s-9.15-10.62-1.52-12.21a4.71,4.71,0,0,1,3,1.52s1.53,0,0-3.05c0,0-4.58-6.09,1.53-9.14,0,0,3.05-1.53,6.1,3.05,0,0,1.53,1.52,1.53-1.53,0,0-4.58-7.63-3-10.68a3.34,3.34,0,0,1,4.45-1.59l.12.06a6.46,6.46,0,0,1,2.91,3.15s1.88.56,1-2.24c0,0-3.25-10.9,1.12-12.28,0,0,3.37-1.87,4.85,2.26,0,0,1.82,1.39,1.94-2.66,0,0,1.57-3.75,4.94-3,0,0,5,.63-1.82,8.92,0,0-2.12,2,.81,2,0,0,3.81-.56,2.26,3.62a11.89,11.89,0,0,1-6.12,4.3s-1.75,1.33,1.87,2.13c0,0,3.81.44,2.18,4.24,0,0-2.18,4.37-8.6,4.49,0,0-2.75,1.25.81,2.26,0,0,5.19-.11,3.69,3.66,0,0-.34,2-6.85,4.11,0,0-2.15,2.09,1.76,2.41,0,0,6.05-1.33,6.19,1.18,0,0,1.56,3.18-6.64,5.46Z" style="fill:#4e73ef"/><path d="M131.59,500.56s6.16-24.31,15.84-37.65c0,0-12.45,31.35-12,37.88Z" style="fill:#355ae1"/></g><path d="M465.18,209.79h0a6.53,6.53,0,0,0-6.53-6.53H419a6.52,6.52,0,0,1-6.51-6.52h0a6.53,6.53,0,0,1,6.51-6.53h31.7a6.51,6.51,0,0,0,6.53-6.5h0a6.52,6.52,0,0,0-6.52-6.52h-104a6.52,6.52,0,0,0-6.52,6.52h0a6.51,6.51,0,0,0,6.52,6.51h16.79a6.53,6.53,0,0,1,6.51,6.53h0a6.51,6.51,0,0,1-6.51,6.52H330.28a6.54,6.54,0,0,0-6.52,6.53h0a6.51,6.51,0,0,0,6.52,6.51h53a6.53,6.53,0,0,1,6.53,6.53h0a6.52,6.52,0,0,1-6.51,6.52h-14.7a6.53,6.53,0,0,0-6.53,6.53h0a6.52,6.52,0,0,0,6.52,6.52h82.95a6.51,6.51,0,0,0,6.51-6.52h0a6.53,6.53,0,0,0-6.51-6.53H437.78a6.52,6.52,0,0,1-6.52-6.52h0a6.54,6.54,0,0,1,6.52-6.53h20.89a6.51,6.51,0,0,0,6.51-6.51Z" style="fill:snow;opacity:0.10000000149011612;isolation:isolate"/><path d="M479.1,504.26H426.16a6.51,6.51,0,0,1-6.51-6.51h0a6.51,6.51,0,0,1,6.5-6.53h45a6.52,6.52,0,0,0,6.52-6.52h0a6.53,6.53,0,0,0-6.51-6.53h-20.1a6.57,6.57,0,0,0-1.08-.1H436.26a6.52,6.52,0,0,1-6.51-6.52h0a6.52,6.52,0,0,1,6.51-6.52h20.89a6.53,6.53,0,0,0,0-13H390.94a6.53,6.53,0,0,1-6.53-6.51h0a6.52,6.52,0,0,1,6.52-6.52h58.25a6.5,6.5,0,0,0,6.51-6.51h0a6.51,6.51,0,0,0-6.5-6.53h-104a6.53,6.53,0,0,0-6.53,6.53h0a6.51,6.51,0,0,0,6.52,6.51H361.9a6.52,6.52,0,0,1,6.53,6.51h0a6.51,6.51,0,0,1-6.51,6.52h-33.1a6.53,6.53,0,0,0,0,13h52.91a6.52,6.52,0,0,1,6.52,6.52h0a6.52,6.52,0,0,1-6.5,6.53H367a6.64,6.64,0,0,0,.08,13.15h16.75a6.52,6.52,0,0,1,6.52,6.52h0a6.51,6.51,0,0,1-6.52,6.51H324.24a6.53,6.53,0,0,0-.59,13,5.81,5.81,0,0,0,.59,0h79.44a6.53,6.53,0,0,1,6.53,6.53h0a6.51,6.51,0,0,1-6.51,6.52h-28a6.53,6.53,0,0,0-.59,13h96.8a6.53,6.53,0,0,0,.59-13h-14.3a6.53,6.53,0,0,1-6.53-6.51h0a6.53,6.53,0,0,1,6.53-6.53H479.1a6.53,6.53,0,1,0,.59-13Z" style="fill:snow;opacity:0.10000000149011612;isolation:isolate"/><polygon points="386.67 254.87 351.04 284.89 368.55 288.01 350.05 321.24 392.73 284.74 371.65 280.99 386.67 254.87" style="fill:snow"/><g id="insurance"><path d="M393.8,199s7.61-26.37,36-23c0,0,26.65,3.42,27.53,32.64,0,0-8.3-7.31-20.46.91,0,0-8.75-14.19-23.75-3.6C413.08,205.9,406.71,194.49,393.8,199Z" style="fill:snow"/><path d="M426.12,199.9l-4.88,32.22a6,6,0,0,1-.9,2.43,5,5,0,0,1-5.77,2,4.75,4.75,0,0,1-3.63-5.66c0-.11.05-.22.08-.33l.09-.29" style="fill:none;stroke:snow;stroke-linecap:round;stroke-linejoin:round;stroke-width:2.75px"/><path d="M429.81,176c-15.31,7.72-16.68,30-16.68,30,15-10.62,23.76,3.6,23.76,3.6C441.94,183.58,429.81,176,429.81,176Z" style="fill:#c8dffa"/></g><g id="wifi"><rect x="416.98" y="329.61" width="20.62" height="15.17" transform="translate(-49.15 73.98) rotate(-9.36)" style="fill:snow"/><path d="M431.46,323.46a9.58,9.58,0,0,0-12.65,2" style="fill:none;stroke:snow;stroke-linecap:round;stroke-linejoin:round;stroke-width:1.7899999618530273px"/><path d="M434.26,318.68a13.51,13.51,0,0,0-19,2.24c-.11.13-.22.27-.32.41" style="fill:none;stroke:snow;stroke-linecap:round;stroke-linejoin:round;stroke-width:1.7899999618530273px"/><path d="M437,313.79a17.48,17.48,0,0,0-25.57,2.92" style="fill:none;stroke:snow;stroke-linecap:round;stroke-linejoin:round;stroke-width:1.7899999618530273px"/><path d="M413.34,345l29.93-4.94h0l7,42.27a9.56,9.56,0,0,1-7.87,11h0l-11.1,1.83a9.54,9.54,0,0,1-11-7.86h0l-7-42.27Z" style="fill:#c8dffa"/><rect x="419.18" y="332.73" width="5.51" height="1.61" transform="translate(-48.63 73.06) rotate(-9.36)" style="fill:#4285f4"/><rect x="428.33" y="331.22" width="5.51" height="1.61" transform="translate(-48.26 74.53) rotate(-9.36)" style="fill:#4285f4"/></g><g id="gas_tank" data-name="gas tank"><rect x="339.28" y="466.29" width="25.43" height="8.12" rx="0.97" transform="translate(-51.73 43.57) rotate(-6.6)" style="fill:#c8dffa"/><rect x="341.78" y="413.33" width="9.26" height="14.08" transform="translate(-46.02 42.6) rotate(-6.6)" style="fill:#c8dffa"/><rect x="332.54" y="414.78" width="2.72" height="14.08" transform="translate(-46.27 41.17) rotate(-6.6)" style="fill:#c8dffa"/><rect x="357.79" y="411.86" width="2.72" height="14.08" transform="translate(-45.77 44.06) rotate(-6.6)" style="fill:#c8dffa"/><path d="M335.74,422.73l21.92-2.54a8,8,0,0,1,8.83,7l3.66,31.64a8.79,8.79,0,0,1-7.72,9.74l-20.26,2.34a8.79,8.79,0,0,1-9.74-7.72l-3.66-31.64A8,8,0,0,1,335.74,422.73Z" style="fill:snow"/><path d="M330.79,410.73l28.28-3.27a2.41,2.41,0,0,1,2.67,2.12h0a2.41,2.41,0,0,1-2.12,2.67l-28.28,3.27a2.41,2.41,0,0,1-2.67-2.12h0A2.41,2.41,0,0,1,330.79,410.73Z" style="fill:snow"/><polygon points="329.95 441.72 331.34 453.73 368.98 449.02 367.65 437.55 329.95 441.72" style="fill:#c8dffa"/></g><path d="M474.94,547.46a4.18,4.18,0,0,1,.91-8.31h0l.16-1.39h0a4.18,4.18,0,0,1,.7-8.33l.22,0h0l.32-2.85h0a4.17,4.17,0,1,1,.92-8.29h0l.27-2.37h0a4.17,4.17,0,1,1,.92-8.29h0l.27-2.66-82.82-9.14-.27,2.4v.2a4.18,4.18,0,1,1-.93,8.3l-.25,2.36a4.18,4.18,0,0,1-.91,8.31l-.32,2.85a4.17,4.17,0,1,1-.92,8.29h0l-.16,1.4a4.18,4.18,0,0,1-.91,8.31l-.39,3.46,82.83,9.16.38-3.48Z" style="fill:snow"/><rect x="423.35" y="502.73" width="36.99" height="43.54" transform="translate(-128.05 906.02) rotate(-83.69)" style="fill:#c8dffa"/><path d="M418.83,533.78l21.6,2.52a5.22,5.22,0,0,0,5.8-4.56v0l1.7-14.5a5.23,5.23,0,0,0-4.58-5.79h0l-21.61-2.55Z" style="fill:#96c4fa"/><circle cx="432.71" cy="535.58" r="4.72" style="fill:#5678d9"/><path d="M432.1,533.63a2.1,2.1,0,1,1-1.41,2.66,2.11,2.11,0,0,1,1.41-2.66Z" style="fill:#f3f4f5"/><g style="opacity:0.10000000149011612"><path d="M431.51,534.71a1.67,1.67,0,0,0-.57,1,1.18,1.18,0,0,1,.17-1.1,2.44,2.44,0,0,1,.27-.29l.33-.25a1.23,1.23,0,0,1,1.09,0,1.9,1.9,0,0,0-.58.2A2.79,2.79,0,0,0,431.51,534.71Z" style="fill:#000100"/></g><path d="M435.73,509.25l-5.66-.66a1,1,0,0,0-1.05.66l-1.33,4,9.29,1.07-.36-4.22A1,1,0,0,0,435.73,509.25Z" style="fill:#96c4fa"/><path d="M439.77,514l4,.47a3,3,0,0,1,2.66,3.37h0l-.46,4h0L439,521h0l.81-7Z" style="fill:#5678d9"/><rect x="430.94" y="513.44" width="7.03" height="7.03" transform="translate(-129.4 888.53) rotate(-83.34)" style="fill:#5678d9"/><rect x="422.43" y="512.45" width="7.03" height="7.03" transform="translate(-135.94 879.2) rotate(-83.34)" style="fill:#5678d9"/><rect x="444.32" y="526.07" width="2.43" height="2.43" transform="translate(-129.87 908.66) rotate(-83.34)" style="fill:#c8dffa"/><g style="opacity:0.10000000149011612"><path d="M434.53,513.7l-2.94-.34-.33,2.85a2.91,2.91,0,0,1,3.26-2.51Z" style="fill:#313133"/></g><g style="opacity:0.10000000149011612"><path d="M430.58,520l6.94.81.56-4.77S436.87,520.83,430.58,520Z" style="fill:#313133"/></g><g style="opacity:0.10000000149011612"><path d="M426,512.71l-2.94-.35-.33,2.85A2.91,2.91,0,0,1,426,512.7Z" style="fill:#313133"/></g><g style="opacity:0.10000000149011612"><path d="M422.09,519.05l6.93.81.56-4.78S428.38,519.79,422.09,519.05Z" style="fill:#313133"/></g><line x1="421.39" y1="511.9" x2="419.04" y2="531.94" style="fill:none"/><g style="opacity:0.10000000149011612"><line x1="418.97" y1="531.92" x2="419.49" y2="527.42" style="fill:none"/></g><g style="opacity:0.10000000149011612"><path d="M442.89,514.68l-2.95-.34-.33,2.85a2.9,2.9,0,0,1,3.25-2.51Z" style="fill:#313133"/></g><g style="opacity:0.10000000149011612"><path d="M442,521.38l4,.47.32-2.75S445.62,521.81,442,521.38Z" style="fill:#313133"/></g><path d="M446.62,528.43h0a.15.15,0,0,1-.15-.17h0l.19-1.64a.15.15,0,0,1,.17-.14h0a.15.15,0,0,1,.15.17h0l-.19,1.64a.15.15,0,0,1-.17.14Z" style="fill:#5d66d3"/><path d="M116,382.21l.53,3.18a1.81,1.81,0,0,0,1.51,1.52l3.19.53a1.83,1.83,0,0,1,0,3.62l-3.19.52a1.83,1.83,0,0,0-1.51,1.52l-.53,3.18a1.83,1.83,0,0,1-3.62,0l-.52-3.18a1.85,1.85,0,0,0-1.53-1.52l-3.17-.52a1.83,1.83,0,0,1,0-3.62l3.17-.53a1.84,1.84,0,0,0,1.53-1.52l.52-3.18a1.83,1.83,0,0,1,3.62,0Z" style="fill:#fff"/><path d="M290.13,121.52l.53,3.19a1.85,1.85,0,0,0,1.52,1.51l3.17.52a1.84,1.84,0,0,1,0,3.63l-3.17.52a1.85,1.85,0,0,0-1.52,1.51l-.53,3.19a1.83,1.83,0,0,1-3.62,0L286,132.4a1.85,1.85,0,0,0-1.51-1.51l-3.17-.52a1.84,1.84,0,0,1,0-3.63l3.17-.52a1.85,1.85,0,0,0,1.51-1.51l.53-3.19a1.83,1.83,0,0,1,3.62,0Z" style="fill:#f9fffe"/><path d="M622.94,391.76l.69,4.21a2.43,2.43,0,0,0,2,2l4.2.69a2.44,2.44,0,0,1,0,4.8l-4.2.69a2.41,2.41,0,0,0-2,2l-.69,4.19a2.43,2.43,0,0,1-4.79,0l-.69-4.19a2.44,2.44,0,0,0-2-2l-4.2-.69a2.43,2.43,0,0,1,0-4.8l4.2-.69a2.44,2.44,0,0,0,2-2l.69-4.21a2.43,2.43,0,0,1,4.79,0Z" style="fill:#fff"/><path d="M707,343.71l.69,4.21a2.44,2.44,0,0,0,2,2l4.21.69a2.43,2.43,0,0,1,0,4.79l-4.21.69a2.43,2.43,0,0,0-2,2l-.69,4.2a2.44,2.44,0,0,1-4.8,0l-.69-4.2a2.42,2.42,0,0,0-2-2l-4.19-.69a2.43,2.43,0,0,1,0-4.79l4.19-.69a2.43,2.43,0,0,0,2-2l.69-4.21a2.43,2.43,0,0,1,4.8,0Z" style="fill:#ffe9bb"/><path d="M230.74,265.51l.69,4.21a2.47,2.47,0,0,0,2,2l4.19.7a2.43,2.43,0,0,1,0,4.79l-4.19.75a2.44,2.44,0,0,0-2,2l-.7,4.2a2.43,2.43,0,0,1-4.79,0l-.69-4.2a2.45,2.45,0,0,0-2-2l-4.21-.69a2.43,2.43,0,0,1,0-4.79l4.21-.69a2.44,2.44,0,0,0,2-2l.69-4.21a2.43,2.43,0,0,1,4.83-.07Z" style="fill:#fee38d"/><circle cx="143.57" cy="213.73" r="5.64" style="fill:#c8dffa"/><circle cx="245.62" cy="199.9" r="5.64" style="fill:#c8dffa"/><circle cx="548.11" cy="330.08" r="5.64" style="fill:#c8dffa"/><circle cx="479.48" cy="85.94" r="5.64" style="fill:#ffdf98"/><circle cx="548.11" cy="199.29" r="5.64" style="fill:#ffe9bb"/><circle cx="598.72" cy="156.44" r="5.64" style="fill:#f9fffe"/><circle cx="614.9" cy="297.72" r="5.64" style="fill:#f9fffe"/><circle cx="179.23" cy="339.38" r="5.64" style="fill:#fffffe"/></g></svg>