<svg xmlns="http://www.w3.org/2000/svg" xmlns:xlink="http://www.w3.org/1999/xlink" viewBox="0 0 700 500"><defs><style>.cls-1{fill:none;}.cls-2{fill:#2e73e6;}.cls-3{isolation:isolate;}.cls-4{mix-blend-mode:soft-light;}.cls-5{fill:#c6ddfe;opacity:0.28;}.cls-6{fill:#99c3fe;}.cls-7{fill:#c6defe;}.cls-8{fill:#b7d1fe;}.cls-9{fill:#ffc954;}.cls-10{fill:#bf973f;}.cls-11{fill:#689df6;}.cls-12{fill:#3264b7;opacity:0.59;}.cls-13{opacity:0.85;}.cls-14{clip-path:url(#clip-path);}.cls-15{fill:#80b4ff;}.cls-16{fill:#ebc0c2;}.cls-17{fill:#e4e4e4;}.cls-18{fill:#0057b8;}.cls-19{fill:#0065d6;}.cls-20{fill:#2c4488;}.cls-21{fill:#dbb3b5;}.cls-22{fill:#fed141;}.cls-23{fill:#c4deff;}.cls-24{fill:#abcdff;}.cls-25{fill:#72a8ff;}.cls-26{fill:#82b2ff;}.cls-27{fill:#4477cf;}.cls-28{fill:#649af4;}.cls-29,.cls-38{fill:#fff;}.cls-30{fill:#ffe9bb;}.cls-31{fill:#c8dffa;}.cls-32{fill:#ffdf98;}.cls-33{fill:#f9fffe;}.cls-34,.cls-37{fill:#317af4;}.cls-34{opacity:0.7;}.cls-35{fill:#f5b941;}.cls-36{clip-path:url(#clip-path-2);}.cls-38{font-size:98.77px;font-family:JioType-Black, JioType;font-weight:800;}</style><clipPath id="clip-path"><polygon class="cls-1" points="238.87 343.52 320.59 313.41 391.56 343.52 315.21 371.48 238.87 343.52"/></clipPath><clipPath id="clip-path-2"><circle class="cls-2" cx="407.13" cy="168.04" r="90.01"/></clipPath></defs><title>jiomoney_2</title><g class="cls-3"><g id="_2_final" data-name="2_final"><path class="cls-5" d="M59.15,241.43c-.71-20.65-2.87-83.19,42.66-129.08,26.91-27.13,58.5-36.35,70.71-39.29,33-7.93,59.88-2.37,70.72,0C264,77.6,272.47,83.7,294.87,93.27c14.3,6.1,53.51,22.85,90.82,26.77,55.75,5.86,62.74-21.58,125.07-17.22,21.29,1.48,49.44,3.81,76.32,23.42,32.66,23.82,43.18,58.35,45.66,66.93,21.75,75.18-38.51,149.11-54,168.08-81,99.36-206.35,106.47-231.23,107.3C312,469.74,243.31,466,176.12,425.35,159,415,128.39,396,101.81,359.29,90.54,343.73,61.25,302.06,59.15,241.43Z"/><polygon class="cls-6" points="238.87 343.52 320.59 313.41 391.56 343.52 315.21 371.48 238.87 343.52"/><polygon class="cls-7" points="513.53 376.94 515.25 385.54 518.02 385.54 546.21 385.54 549.65 376.94 513.53 376.94"/><polygon class="cls-8" points="520.41 406.18 516.97 385.54 544.72 385.54 541.05 406.18 520.41 406.18"/><path class="cls-9" d="M537.05,365.22s10.31-12,1.72-13.76a5.33,5.33,0,0,0-3.44,1.72s-1.72,0,0-3.44c0,0,5.16-6.88-1.72-10.32,0,0-3.44-1.72-6.88,3.44,0,0-1.72,1.72-1.72-1.72,0,0,5.16-8.6,3.44-12,0,0-1.72-3.44-5.16-1.72,0,0-1.73.63-3.28,3.55,0,0-2.14.63-1.12-2.53,0,0,3.68-12.29-1.25-13.84,0,0-3.79-2.11-5.48,2.54,0,0-2,1.57-2.18-3,0,0-1.76-4.24-5.56-3.39,0,0-5.63.7,2,10.05,0,0,2.39,2.25-.91,2.25,0,0-4.29-.63-2.54,4.08,0,0,1.9,3.1,6.9,4.86,0,0,2,1.54-2.11,2.39,0,0-4.29.49-2.46,4.78,0,0,2.46,4.92,9.7,5.06,0,0,3.1,1.41-.91,2.53,0,0-5.85-.11-4.16,4.15,0,0,.37,2.2,7.71,4.63,0,0,2.43,2.35-2,2.71,0,0-6.83-1.54-7,1.32,0,0-1.76,3.6,7.42,6.17Z"/><path class="cls-10" d="M530.49,368.76s-6.93-27.41-17.84-42.45c0,0,14,35.34,13.4,42.7Z"/><path class="cls-11" d="M520.41,376.94s-10.32-12-1.72-13.76a5.33,5.33,0,0,1,3.44,1.72s1.72,0,0-3.44c0,0-5.16-6.87,1.72-10.31,0,0,3.44-1.72,6.88,3.44,0,0,1.72,1.72,1.72-1.72,0,0-5.16-8.6-3.44-12,0,0,1.72-3.44,5.16-1.72,0,0,1.72.63,3.28,3.54,0,0,2.14.63,1.12-2.52,0,0-3.68-12.29,1.25-13.84,0,0,3.79-2.11,5.48,2.53,0,0,2,1.57,2.18-3,0,0,1.76-4.23,5.56-3.39,0,0,5.62.7-2,10.06,0,0-2.39,2.25.91,2.25,0,0,4.29-.64,2.53,4.08,0,0-1.89,3.09-6.89,4.85,0,0-2,1.55,2.11,2.39,0,0,4.29.49,2.46,4.78,0,0-2.46,4.93-9.7,5.07,0,0-3.1,1.4.91,2.53,0,0,5.85-.12,4.16,4.14,0,0-.37,2.21-7.71,4.63,0,0-2.43,2.35,2,2.72,0,0,6.83-1.55,7,1.32,0,0,1.76,3.6-7.42,6.17Z"/><path class="cls-12" d="M528.39,377.16s6.94-27.42,17.84-42.45c0,0-14,35.33-13.39,42.7Z"/><g class="cls-13"><polygon class="cls-7" points="116.14 331.11 117.36 337.25 119.34 337.25 139.46 337.25 141.92 331.11 116.14 331.11"/><polygon class="cls-8" points="121.05 351.98 118.59 337.25 138.4 337.25 135.78 351.98 121.05 351.98"/><path class="cls-9" d="M132.92,322.74s7.37-8.6,1.23-9.82a3.82,3.82,0,0,0-2.46,1.22s-1.22,0,0-2.45c0,0,3.69-4.91-1.22-7.37,0,0-2.46-1.22-4.92,2.46,0,0-1.22,1.23-1.22-1.23,0,0,3.68-6.14,2.45-8.59a2.69,2.69,0,0,0-3.68-1.23,5.18,5.18,0,0,0-2.34,2.53s-1.53.45-.8-1.8c0,0,2.62-8.78-.89-9.88,0,0-2.71-1.51-3.92,1.8,0,0-1.45,1.13-1.55-2.14,0,0-1.26-3-4-2.42,0,0-4,.5,1.46,7.18,0,0,1.7,1.6-.66,1.6,0,0-3.06-.45-1.8,2.91a9.62,9.62,0,0,0,4.92,3.47s1.4,1.1-1.51,1.71c0,0-3.06.35-1.76,3.41,0,0,1.76,3.51,6.93,3.61,0,0,2.21,1-.65,1.81,0,0-4.17-.08-3,3,0,0,.26,1.57,5.51,3.3,0,0,1.73,1.68-1.42,1.94,0,0-4.87-1.1-5,.95,0,0-1.26,2.57,5.3,4.4Z"/><path class="cls-10" d="M128.24,325.27s-5-19.57-12.73-30.31c0,0,10,25.23,9.56,30.49Z"/><path class="cls-11" d="M121.05,331.11s-7.37-8.6-1.23-9.82a3.79,3.79,0,0,1,2.45,1.22s1.23,0,0-2.45c0,0-3.68-4.91,1.23-7.37,0,0,2.46-1.22,4.91,2.46,0,0,1.23,1.23,1.23-1.23,0,0-3.68-6.14-2.46-8.59a2.69,2.69,0,0,1,3.69-1.23,5.18,5.18,0,0,1,2.34,2.53s1.52.45.8-1.8c0,0-2.63-8.78.89-9.88,0,0,2.71-1.51,3.91,1.8,0,0,1.46,1.13,1.56-2.14,0,0,1.26-3,4-2.42,0,0,4,.5-1.46,7.18,0,0-1.71,1.6.65,1.6,0,0,3.07-.45,1.81,2.91a9.62,9.62,0,0,1-4.92,3.47s-1.4,1.1,1.51,1.71c0,0,3.06.35,1.75,3.41,0,0-1.75,3.51-6.92,3.61,0,0-2.21,1,.65,1.81,0,0,4.17-.08,3,3,0,0-.27,1.57-5.51,3.3,0,0-1.73,1.68,1.42,1.94,0,0,4.87-1.1,5,1,0,0,1.26,2.57-5.3,4.4Z"/><path class="cls-12" d="M126.74,331.26s5-19.57,12.74-30.3c0,0-10,25.22-9.56,30.48Z"/></g><g class="cls-14"><polyline class="cls-15" points="314.46 371.48 238.12 343.52 314.59 313.41 314.46 371.48"/></g><path class="cls-16" d="M290,403l-8.73-3.07s.47-4.81,4-4.87l8.22,1.87Z"/><path class="cls-17" d="M285,401.7c-1.08-.45-4.43-2.3-.17-7.07a.39.39,0,0,0,0-.46c-.46-.78-2.2-3-6.7-2.75a1,1,0,0,0-.85.7L270.78,416a2.24,2.24,0,0,0,1.54,2.74h0a2.23,2.23,0,0,0,2.75-1.47l.82-2.55a3.19,3.19,0,0,1,.5-1l8.68-11.68A.24.24,0,0,0,285,401.7Z"/><path class="cls-18" d="M314.46,356.58s-15.27,3.67,1.83,42.43l-24.11-5.35-3.39,11.14S308,417.2,322,418.49a9.42,9.42,0,0,0,9.76-6.23c3.46-9.76,8.55-31.48-1.47-57.84Z"/><path class="cls-16" d="M263,388.23l-6.78-6.29s2.33-4.22,5.59-2.87l6.8,5Z"/><path class="cls-17" d="M258.82,385c-.82-.84-3.15-3.88,2.66-6.56a.38.38,0,0,0,.22-.4c-.11-.89-.8-3.66-5.05-5.18a.94.94,0,0,0-1.06.3l-15.47,19.33a2.23,2.23,0,0,0,.32,3.13h0a2.23,2.23,0,0,0,3.11-.26l1.76-2a3.38,3.38,0,0,1,.85-.7l12.61-7.26A.25.25,0,0,0,258.82,385Z"/><path class="cls-19" d="M303.83,350.74s-12.34,3.71-12.07,46.07l-23.12-16.28-7.54,8.88s18.1,27.13,32.17,28.12c0,0,18.21.42,26-62.46Z"/><path class="cls-16" d="M352.76,270.53s-.15-6,11.82-8.72c0,0,2.29-4.87-6.1-3.46l-6,1.35s-2.4.06-2.49-3.55c0,0-1.26-2.37-2.41.06,0,0,1.32,4.78.18,7.22l-1.08,4.84"/><path class="cls-20" d="M320.45,312.68s1.92-2.47-2.67-8.21c0,0-7.17-12-15.18-9.15a9.68,9.68,0,0,0-6.78,9.09s-2.71,13,.62,15.44c0,0,.74,3,6.9,2.18,0,0,4.43-2.71,6-2.71,0,0,4.15-2.38,7.14-2.34a2.86,2.86,0,0,0,2.16-1A7.28,7.28,0,0,0,320.45,312.68Z"/><path class="cls-21" d="M313.94,315.12l3.26,3.22v7.74l-7.95,1-3.74-4.86s1.21-3,0-8.51S313.94,315.12,313.94,315.12Z"/><path class="cls-22" d="M361.57,274.43l-19.18-8.89s7.95,38.29-23.38,49.55l-3.92,1.12s5.13,9.35-3.64,9.12a5.39,5.39,0,0,1-4.32-2.28,7.57,7.57,0,0,1-1.24-3.18s-24.58,12.89-51.95-5.13l.31,22.76s14.33,9.49,47.42-2c0,0,4.17,10.67-2.38,18.64,0,0,26.5,5.08,32.55,1.51,0,0-7.64-18.8-1.92-28.05C329.92,327.63,366.75,292.74,361.57,274.43Z"/><path class="cls-16" d="M301.51,306.16s10.64,4.2,11.49-.33c0,0,2.95,7.47.57,10.42a4.13,4.13,0,0,1-4.35.74S304.06,315.59,301.51,306.16Z"/><path class="cls-20" d="M318.68,316a12.44,12.44,0,0,0,1.34-1.28,13.39,13.39,0,0,0,.67-1.2s1.36-3.76-2.32-9c0,0-7.76-12-15.77-9.19a10.22,10.22,0,0,0-7.53,9.19s-1.2,11.68.8,16.41a3.13,3.13,0,0,0,2.31,1.79,26.37,26.37,0,0,0,4.49.41,5,5,0,0,0,4.74-3.12,5.23,5.23,0,0,0,.15-3.42,1.31,1.31,0,0,0-.34-.55l-3-2.82-3.1-4.67.34-5.58,7.61,1.19,3.88,1.68a7.53,7.53,0,0,1,1.5,4.93c-.08.82.11,1.33,0,2.88-.13,1.78-1.15,2-.1,3.22C315.31,317.72,317.52,317.09,318.68,316Z"/><path class="cls-16" d="M254.09,326.17a18.91,18.91,0,0,0-14.69.65,1.05,1.05,0,0,1-.9.15c-1.14-.5-3.43-1.83.66-5.8,0,0,4.23-5.71,15.09-3.1v7.11"/><polygon class="cls-23" points="315.21 469.32 238.87 441.37 238.87 343.52 315.21 371.48 315.21 469.32"/><polygon class="cls-24" points="391.56 441.37 315.21 469.32 315.21 371.48 391.56 343.52 391.56 441.37"/><polygon class="cls-25" points="224.24 374.03 239.06 343.52 315.21 371.48 300.39 401.98 224.24 374.03"/><polygon class="cls-26" points="409.18 377.03 391.56 343.52 315.21 371.48 333.03 404.98 409.18 377.03"/><path class="cls-27" d="M347.21,457.78s6-20.25,20.7-25.4l4.54-.61s-9.1,3.91-15.44,22.53Z"/><path class="cls-27" d="M440.64,486.47s5.34-1.29,7.25-8.9l8.66-4.57S454.61,480.91,440.64,486.47Z"/><path class="cls-28" d="M367.91,432.38s16.67-4.15,31.74,19.77c0,0,4.49,7.2,5.68,9.84,0,0,13.37,27.14,32.16,25.29,0,0,5.17-.64,7.58-3.74,0,0-10.75,1.16-23.22-15,0,0-6-7.07-8-11.85,0,0-10.08-23.8-30.14-26.71C383.7,430,377.39,428.92,367.91,432.38Z"/><path class="cls-27" d="M282.51,457.78s-6-20.25-20.71-25.4l-4.53-.61s9.09,3.91,15.44,22.53Z"/><path class="cls-27" d="M189.07,486.47s-5.34-1.29-7.24-8.9L173.17,473S175.1,480.91,189.07,486.47Z"/><path class="cls-28" d="M261.8,432.38s-16.66-4.15-31.73,19.77c0,0-4.49,7.2-5.68,9.84,0,0-13.37,27.14-32.17,25.29,0,0-5.17-.64-7.57-3.74,0,0,10.75,1.16,23.22-15,0,0,6-7.07,8-11.85,0,0,10.09-23.8,30.15-26.71C246,430,252.32,428.92,261.8,432.38Z"/><path class="cls-28" d="M415.49,410.25S426.71,420.07,442,406l-8-5.46S427,409.47,415.49,410.25Z"/><path class="cls-27" d="M391.19,406.25a23.78,23.78,0,0,1,16.1-.29s5.83,2.82,8.2,4.29a54.65,54.65,0,0,0-11.71-6.68s-6.44-3.25-12.59-2.48Z"/><path class="cls-28" d="M215.16,411s-21.1,9.88-23.52-13.83l8.4-4.93S199.06,409.71,215.16,411Z"/><path class="cls-27" d="M239.46,407a23.78,23.78,0,0,0-16.1-.29s-5.83,2.82-8.2,4.29a54.65,54.65,0,0,1,11.71-6.68s6.43-3.25,12.59-2.48Z"/><path class="cls-29" d="M193,267l.39,2.4a1.38,1.38,0,0,0,1.14,1.14l2.4.4a1.38,1.38,0,0,1,0,2.73l-2.4.39a1.4,1.4,0,0,0-1.14,1.15l-.39,2.39a1.39,1.39,0,0,1-2.74,0l-.39-2.39a1.4,1.4,0,0,0-1.14-1.15l-2.4-.39a1.38,1.38,0,0,1,0-2.73l2.4-.4a1.38,1.38,0,0,0,1.14-1.14l.39-2.4A1.39,1.39,0,0,1,193,267Z"/><path class="cls-29" d="M269.38,213.89l.39,2.39a1.4,1.4,0,0,0,1.14,1.15l2.4.39a1.38,1.38,0,0,1,0,2.73l-2.4.4a1.38,1.38,0,0,0-1.14,1.14l-.39,2.4a1.39,1.39,0,0,1-2.74,0l-.39-2.4a1.38,1.38,0,0,0-1.14-1.14l-2.4-.4a1.38,1.38,0,0,1,0-2.73l2.4-.39a1.4,1.4,0,0,0,1.14-1.15l.39-2.39A1.39,1.39,0,0,1,269.38,213.89Z"/><path class="cls-29" d="M448,297.31l.53,3.16A1.8,1.8,0,0,0,450,302l3.17.52a1.84,1.84,0,0,1,0,3.62l-3.17.52a1.8,1.8,0,0,0-1.5,1.5l-.53,3.17a1.83,1.83,0,0,1-3.61,0l-.52-3.17a1.82,1.82,0,0,0-1.51-1.5l-3.16-.52a1.84,1.84,0,0,1,0-3.62l3.16-.52a1.81,1.81,0,0,0,1.51-1.51l.52-3.16A1.83,1.83,0,0,1,448,297.31Z"/><path class="cls-30" d="M582.57,273.82l.52,3.16a1.85,1.85,0,0,0,1.51,1.51l3.17.52a1.83,1.83,0,0,1,0,3.61l-3.17.52a1.85,1.85,0,0,0-1.51,1.51l-.52,3.17a1.83,1.83,0,0,1-3.61,0l-.52-3.17a1.85,1.85,0,0,0-1.51-1.51l-3.16-.52a1.83,1.83,0,0,1,0-3.61l3.16-.52a1.85,1.85,0,0,0,1.51-1.51l.52-3.16A1.83,1.83,0,0,1,582.57,273.82Z"/><path class="cls-31" d="M375.34,310.77l.52,3.17a1.84,1.84,0,0,0,1.51,1.51l3.16.52a1.83,1.83,0,0,1,0,3.61l-3.16.52a1.83,1.83,0,0,0-1.51,1.51l-.52,3.16a1.83,1.83,0,0,1-3.61,0l-.52-3.16a1.84,1.84,0,0,0-1.51-1.51l-3.17-.52a1.83,1.83,0,0,1,0-3.61l3.17-.52a1.85,1.85,0,0,0,1.51-1.51l.52-3.17A1.83,1.83,0,0,1,375.34,310.77Z"/><circle class="cls-30" cx="128.93" cy="177.12" r="4.25"/><circle class="cls-31" cx="214.94" cy="177.74" r="4.25"/><circle class="cls-31" cx="510.77" cy="255.33" r="4.25"/><circle class="cls-32" cx="262.05" cy="271.07" r="4.25"/><circle class="cls-32" cx="552.05" cy="151.07" r="4.25"/><circle class="cls-30" cx="382.52" cy="267.55" r="4.25"/><circle class="cls-33" cx="600.85" cy="214.2" r="4.25"/><circle class="cls-33" cx="395.31" cy="199.28" r="4.25"/><circle class="cls-29" cx="260.06" cy="149.93" r="4.25"/><path class="cls-34" d="M488.55,106.7l-.91,2.17a9.93,9.93,0,0,0,8.49,13.75l2.34.16a7.36,7.36,0,0,1,5.08,12.14L502,136.7a9.94,9.94,0,0,0,3.82,15.7l2.19.88a7.36,7.36,0,0,1,1.07,13.12l-2,1.22a9.94,9.94,0,0,0-1.21,16.11l1.81,1.51a7.37,7.37,0,0,1-3,12.81l-2.29.54a9.93,9.93,0,0,0-6.13,14.95l1.25,2a7.36,7.36,0,0,1-6.84,11.24l-2.35-.19a9.94,9.94,0,0,0-10.45,12.32l.57,2.29a7.36,7.36,0,0,1-10,8.58l-2.17-.91a9.94,9.94,0,0,0-13.75,8.49l-.16,2.35a7.36,7.36,0,0,1-12.14,5.07l-1.79-1.53a9.93,9.93,0,0,0-15.69,3.83l-.88,2.18a7.37,7.37,0,0,1-13.12,1.08l-1.22-2a9.93,9.93,0,0,0-16.11-1.22l-1.51,1.81a7.36,7.36,0,0,1-12.81-3l-.54-2.29a9.93,9.93,0,0,0-14.95-6.13l-2,1.25a7.36,7.36,0,0,1-11.25-6.84l.2-2.34a10,10,0,0,0-12.33-10.46l-2.28.58a7.36,7.36,0,0,1-8.58-10l.91-2.17a9.94,9.94,0,0,0-8.49-13.75l-2.35-.16a7.36,7.36,0,0,1-5.08-12.14l1.54-1.78a9.94,9.94,0,0,0-3.83-15.7l-2.18-.88A7.37,7.37,0,0,1,304.82,170l2-1.22a9.93,9.93,0,0,0,1.22-16.11l-1.81-1.51a7.36,7.36,0,0,1,3-12.81l2.29-.54a9.94,9.94,0,0,0,6.13-15l-1.25-2a7.36,7.36,0,0,1,6.84-11.24l2.34.19a9.93,9.93,0,0,0,10.45-12.32l-.57-2.29a7.36,7.36,0,0,1,10-8.58l2.17.91A9.94,9.94,0,0,0,361.4,79l.16-2.35A7.36,7.36,0,0,1,373.7,71.6l1.78,1.53a9.94,9.94,0,0,0,15.7-3.83l.88-2.18A7.36,7.36,0,0,1,405.17,66l1.23,2a9.93,9.93,0,0,0,16.11,1.22L424,67.46a7.35,7.35,0,0,1,12.8,3l.55,2.29a9.93,9.93,0,0,0,14.95,6.13l2-1.25a7.36,7.36,0,0,1,11.24,6.84l-.19,2.34A9.94,9.94,0,0,0,477.68,97.3l2.28-.58A7.37,7.37,0,0,1,488.55,106.7Z"/><circle class="cls-35" cx="407.13" cy="168.04" r="90.01"/><circle class="cls-2" cx="407.13" cy="168.04" r="90.01"/><g class="cls-36"><circle class="cls-37" cx="413.08" cy="141.75" r="90.01"/></g><text class="cls-38" transform="matrix(0.99, 0.14, -0.14, 0.99, 355.32, 195.28)">%</text></g></g></svg>