<svg xmlns="http://www.w3.org/2000/svg" viewBox="0 0 700 500"><defs><style>.cls-1{isolation:isolate;}.cls-15,.cls-2{fill:#c6ddfe;}.cls-2{opacity:0.28;}.cls-3{fill:#c6defe;}.cls-4{fill:#b7d1fe;}.cls-5{fill:#ffc954;}.cls-6{fill:#bf973f;}.cls-7{fill:#689df6;}.cls-8{fill:#3264b7;opacity:0.59;}.cls-9{opacity:0.5;}.cls-10{fill:#d5d9ff;}.cls-11{fill:#b7c9fe;}.cls-12{fill:#4e73ef;}.cls-13{fill:#355ae1;}.cls-14{opacity:0.9;}.cls-16,.cls-25{fill:#fff;}.cls-17{fill:#e6e8ec;}.cls-18{fill:none;stroke:#689df6;stroke-miterlimit:10;stroke-width:4px;}.cls-19{fill:#f9fffe;}.cls-20{fill:#fee38d;}.cls-21{fill:#c8dffa;}.cls-22{fill:#ffdf98;}.cls-23{fill:#ffe9bb;}.cls-24{fill:#317af4;}.cls-25{font-size:17px;font-family:JioType-Black, JioType;font-weight:800;letter-spacing:-0.05em;}.cls-26{letter-spacing:0.02em;}.cls-27{fill:#ebc0c2;}.cls-28{fill:#e4e4e4;}.cls-29{fill:#0057b8;}.cls-30{fill:#0065d6;}.cls-31{fill:#fed141;}.cls-32{fill:#bf9d31;opacity:0.16;}.cls-33{fill:#2c4488;}.cls-34{mix-blend-mode:soft-light;}</style></defs><title>jiomoney_3</title><g class="cls-1"><g id="_3" data-name="3"><path class="cls-2" d="M86.48,324.55c-3.93-28.5,3.41-68.66,29.41-90.81,14.18-12.09,26.65-12.62,45-32.87,5.49-6.06,14.64-16.36,20.76-32,8.56-21.9,3.08-33.57,6.92-50.16,6.07-26.24,30.06-41.44,49.3-53.62C315.75,15.73,420.31,42.83,429,45.19c29.92,8.17,97.31,26.56,142.7,93.41,21.05,31,29.87,60,32.49,70.16,3.89,15.19,13.21,53.43,1.24,100.23-2.62,10.28-16.58,62.44-62.27,99.46-43,34.87-89.53,36.69-180.76,38.92-96.2,2.35-165.23,3.06-223.14-43.25C122.47,390.72,92.15,365.73,86.48,324.55Z"/><polygon class="cls-3" points="485.53 406.6 487.37 415.81 490.33 415.81 520.53 415.81 524.21 406.6 485.53 406.6"/><polygon class="cls-4" points="492.9 437.92 489.21 415.81 518.94 415.81 515 437.92 492.9 437.92"/><path class="cls-5" d="M510.71,394s11.06-12.89,1.85-14.73a5.71,5.71,0,0,0-3.69,1.84s-1.84,0,0-3.68c0,0,5.53-7.37-1.84-11.06,0,0-3.68-1.84-7.37,3.69,0,0-1.84,1.84-1.84-1.84,0,0,5.53-9.21,3.68-12.9,0,0-1.84-3.68-5.52-1.84,0,0-1.85.67-3.51,3.8,0,0-2.29.67-1.2-2.71,0,0,3.93-13.16-1.34-14.82,0,0-4.07-2.26-5.88,2.71,0,0-2.18,1.69-2.33-3.22,0,0-1.88-4.54-6-3.63,0,0-6,.75,2.18,10.77,0,0,2.56,2.41-1,2.41,0,0-4.59-.68-2.71,4.37,0,0,2,3.31,7.38,5.2,0,0,2.11,1.65-2.26,2.56,0,0-4.59.52-2.63,5.12,0,0,2.63,5.27,10.39,5.42,0,0,3.32,1.51-1,2.71,0,0-6.26-.12-4.45,4.44,0,0,.4,2.36,8.26,5,0,0,2.6,2.52-2.12,2.91,0,0-7.32-1.65-7.48,1.42,0,0-1.88,3.85,7.95,6.6Z"/><path class="cls-6" d="M503.69,397.84s-7.43-29.36-19.11-45.47c0,0,15,37.85,14.35,45.74Z"/><path class="cls-7" d="M492.9,406.6s-11.06-12.89-1.85-14.73a5.71,5.71,0,0,1,3.69,1.84s1.84,0,0-3.69c0,0-5.53-7.36,1.84-11,0,0,3.68-1.84,7.37,3.69,0,0,1.84,1.84,1.84-1.85,0,0-5.53-9.21-3.68-12.89,0,0,1.84-3.68,5.52-1.84,0,0,1.85.67,3.51,3.79,0,0,2.29.68,1.2-2.7,0,0-3.93-13.17,1.34-14.82,0,0,4.07-2.26,5.87,2.71,0,0,2.19,1.69,2.34-3.23,0,0,1.88-4.53,6-3.63,0,0,6,.76-2.18,10.78,0,0-2.56,2.41,1,2.41,0,0,4.59-.68,2.71,4.37,0,0-2,3.31-7.38,5.19,0,0-2.11,1.66,2.26,2.56,0,0,4.59.53,2.63,5.13,0,0-2.63,5.27-10.39,5.42,0,0-3.32,1.51,1,2.71,0,0,6.26-.12,4.45,4.44,0,0-.4,2.36-8.26,5,0,0-2.6,2.51,2.12,2.91,0,0,7.32-1.66,7.47,1.41,0,0,1.89,3.86-7.94,6.61Z"/><path class="cls-8" d="M501.44,406.83s7.43-29.36,19.11-45.47c0,0-15,37.85-14.35,45.74Z"/><g class="cls-9"><polygon class="cls-10" points="132.36 388.59 133.51 394.34 135.36 394.34 154.2 394.34 156.5 388.59 132.36 388.59"/><polygon class="cls-11" points="136.96 408.13 134.66 394.34 153.21 394.34 150.75 408.13 136.96 408.13"/><path class="cls-5" d="M148.08,380.75s6.89-8,1.15-9.19a3.56,3.56,0,0,0-2.3,1.15s-1.15,0,0-2.3c0,0,3.45-4.6-1.15-6.9,0,0-2.3-1.15-4.6,2.3,0,0-1.15,1.15-1.15-1.15,0,0,3.45-5.74,2.3-8a2.52,2.52,0,0,0-3.45-1.15,4.84,4.84,0,0,0-2.19,2.37s-1.43.42-.74-1.69c0,0,2.45-8.22-.84-9.25,0,0-2.54-1.41-3.67,1.69,0,0-1.36,1.05-1.45-2,0,0-1.18-2.83-3.72-2.27,0,0-3.76.47,1.37,6.72,0,0,1.59,1.51-.62,1.51,0,0-2.86-.42-1.69,2.73a9.07,9.07,0,0,0,4.61,3.24s1.32,1-1.41,1.6a2.07,2.07,0,0,0-1.65,3.19s1.65,3.29,6.49,3.39c0,0,2.07.94-.61,1.69,0,0-3.91-.08-2.78,2.77,0,0,.25,1.47,5.16,3.09,0,0,1.62,1.57-1.33,1.82,0,0-4.56-1-4.66.88,0,0-1.18,2.41,4.95,4.12Z"/><path class="cls-6" d="M143.7,383.12s-4.64-18.32-11.93-28.37c0,0,9.38,23.62,9,28.54Z"/><path class="cls-12" d="M137,388.59s-6.9-8-1.15-9.2a3.56,3.56,0,0,1,2.3,1.15s1.15,0,0-2.3c0,0-3.45-4.59,1.15-6.89,0,0,2.3-1.15,4.6,2.3,0,0,1.15,1.15,1.15-1.15,0,0-3.45-5.75-2.3-8.05a2.52,2.52,0,0,1,3.45-1.15,4.84,4.84,0,0,1,2.19,2.37s1.42.42.74-1.69c0,0-2.45-8.21.84-9.25,0,0,2.54-1.41,3.66,1.7,0,0,1.37,1.05,1.46-2,0,0,1.18-2.83,3.72-2.26,0,0,3.76.47-1.37,6.72,0,0-1.6,1.5.61,1.5,0,0,2.87-.42,1.7,2.73a9,9,0,0,1-4.61,3.24s-1.32,1,1.41,1.6c0,0,2.87.33,1.64,3.2,0,0-1.64,3.29-6.48,3.38,0,0-2.07.94.61,1.7,0,0,3.91-.08,2.78,2.76,0,0-.25,1.48-5.16,3.1,0,0-1.62,1.57,1.33,1.81,0,0,4.56-1,4.66.89,0,0,1.18,2.4-5,4.12Z"/><path class="cls-13" d="M142.29,388.73s4.64-18.32,11.93-28.37c0,0-9.38,23.62-9,28.54Z"/></g><g class="cls-14"><rect class="cls-15" x="436.08" y="175.06" width="5.12" height="42.22" rx="1.32"/><rect class="cls-15" x="265.83" y="141.98" width="2.87" height="13.9" rx="1.32"/><rect class="cls-15" x="265.72" y="167.43" width="3.24" height="24.19" rx="1.32"/><rect class="cls-15" x="265.78" y="200.09" width="3.08" height="24.4" rx="1.32"/><rect class="cls-16" x="267.46" y="96.05" width="171.39" height="348.32" rx="22.55"/><rect class="cls-17" x="336.62" y="106.45" width="23.93" height="4.86" rx="2.24"/><circle class="cls-17" cx="366.93" cy="108.88" r="2.76"/></g><path class="cls-2" d="M414.63,105.12H395v2.36a11.21,11.21,0,0,1-11.21,11.21H321.27a11.21,11.21,0,0,1-11.21-11.21h0v-2.36H291.65a13.6,13.6,0,0,0-13.6,13.6h0v303a13.59,13.59,0,0,0,13.6,13.61h123a13.61,13.61,0,0,0,13.61-13.61V118.73A13.61,13.61,0,0,0,414.63,105.12Z"/><path class="cls-7" d="M372.81,288.91v-4.06h-12.2v-4.09h4.07v-4.08h4v-4.08h-4v-4.09h4v-8.13h-4l0,0v-4h12.16v4h-4v4.07h16.24v4h4.08v-4h4.06v8.11h8.11v28.45H376.88v-4h4v-8.17l4.11,0V293h8.13v4h8.09v-8.07h-4v4h-4.06v-8.1h-4.08v4H385v-4h-4.07v4H372.8Zm0-8.19H385V268.59H372.83Zm24.36-4h-4v4h4Z"/><path class="cls-7" d="M328.06,248.21H324v-8.1H320v8.07h-4.08v-4H311.8v12.14h-4.06v12.19h-4.06V232H324V236h4.09v4.1h4v4h-4v4.05Zm-16.3-12.15h-4v4h4Z"/><path class="cls-7" d="M405.31,227.85H376.9v-28.4h28.41Zm-4.07-4.06V203.51H381v20.28Z"/><path class="cls-7" d="M332.08,227.85h-28.4v-28.4h28.4ZM328,223.79V203.51H307.75v20.28Z"/><path class="cls-7" d="M303.69,272.65h28.4v28.41h-28.4ZM328,297V276.74H307.75V297Z"/><path class="cls-7" d="M336.2,264.48h-4.08v-4.06H324v-4.08h8.08V252.3h-4v-4.07h8.17v-4h4.06v4.07h8.08v4.05h-8.07v4.06h4.06v4h4.06v-4h8.09v4h-4v8.12h-4.06v-4.07h-8.16l0,0v-4h-4.09v4Z"/><path class="cls-7" d="M372.8,232h4.06v8.1h4.05V232H385v12.17l0,0H381v8.15h-4.1v-8.11h-8.08v4.06h4v4H360.64V248.2h4v-8.14h4.07V236h4.06v-4.06Z"/><path class="cls-7" d="M340.25,264.48v4.07h4.05V284.8h-4v4.08h4V293h-4v8.13h-4V280.77h4v-4h-4V264.48l0,0h4.09Z"/><path class="cls-7" d="M356.5,207.51v4.06h12.21v4.09h4.07v4.06h-4v4.08l-4.08,0v-8.11h-4.05v8.11h-4.1v4.05h-4.05V223.8h-4.08v-4h8.1V215.7h-4v-8.17h4Z"/><path class="cls-7" d="M393.18,252.31v-4.06h8.06v-4.08h-4V232h4v8.08h4v12.21h-4v4h4v8.13h-4v-4h-4.08V252.3h-4.05Z"/><path class="cls-7" d="M344.32,223.82h4.08v4.07h4.08V236h-4.08v-4h-4.05v4h-4.11v4h-4.05v-4h-8.12V232h12.21v-4.1l0,0h4.09V223.8Z"/><path class="cls-7" d="M340.27,227.87h-4v-8.12h4V215.7h-4v-4.06h12.14v4h-4.05v8.17l0,0h-4.09v4.09Z"/><path class="cls-7" d="M360.61,280.76h-4.06v4h-4v-8.09h4v-4.06h-4v-4.08h8.16v4.06h4v4.08h-4.07v4.08Z"/><path class="cls-7" d="M332.12,264.48v4H319.93v-8.1H324v4.08h8.15Z"/><path class="cls-7" d="M348.42,301.07V288.94h8.08v4h-4v8.13Z"/><path class="cls-7" d="M364.68,293v-4.06h8.13V293h4.06V297h-8.1V293h-4.08Z"/><path class="cls-7" d="M389.07,252.29l4.1,0h0c0,3.64,0,7.29,0,10.94v1.24h-4.08V260.4H385v-4h4.08v-4.07Z"/><path class="cls-7" d="M364.69,203.44h-4.07v4.07H356.5l0,0v-4.06h-4v-4h12.19v4Z"/><path class="cls-7" d="M368.73,223.82h4.07V232h-4.06v-8.12Z"/><path class="cls-7" d="M385,244.16h4.08v8.13H385c0-2.71,0-5.43,0-8.15Z"/><path class="cls-7" d="M348.36,207.51h-4v-8.06h4Z"/><path class="cls-7" d="M315.82,260.4v4.06h-4v-4h4Z"/><path class="cls-7" d="M319.93,260.42l-4.11,0h0v-4.05h4.07v4.08Z"/><path class="cls-7" d="M389.08,244.16v-4h4v4h-4Z"/><path class="cls-7" d="M393.12,232v4h-4v-4Z"/><path class="cls-7" d="M368.73,203.46v4h-4v-4l4.06,0Z"/><path class="cls-7" d="M340.24,203.51v4h-4v-4Z"/><path class="cls-7" d="M368.74,203.48v-4h4v4h-4Z"/><path class="cls-7" d="M364.66,293v4h-4v-4h4Z"/><path class="cls-7" d="M319.93,256.36v-4H324v4h-4.05Z"/><path class="cls-7" d="M360.59,223.8h4.09V236h-4.06v4h-8.16v-4h4.05v-4h4.08Z"/><path class="cls-7" d="M344.32,236h4.08v8.1h-4.08Z"/><path class="cls-7" d="M352.5,244.18h4v8.06h-4Z"/><path class="cls-7" d="M364.66,260.41v4h-4v-4h4Z"/><path class="cls-7" d="M385,252.28v4.08h-4.09v-4.08Z"/><path class="cls-7" d="M380.9,276.67h-4v-4h4Z"/><path class="cls-7" d="M397.17,219.72H385V207.58h12.13Z"/><path class="cls-7" d="M324,219.72H311.81V207.58H324Z"/><path class="cls-7" d="M311.81,292.93V280.79h12.13v12.14Z"/><polyline class="cls-18" points="291.95 198.2 291.95 187.91 302.8 187.91"/><polyline class="cls-18" points="415.8 198.2 415.8 187.91 404.95 187.91"/><polyline class="cls-18" points="415.8 300.91 415.8 311.2 404.95 311.2"/><polyline class="cls-18" points="291.95 300.91 291.95 311.2 302.8 311.2"/><path class="cls-19" d="M247.75,282.22l.4-2.4a1.38,1.38,0,0,1,1.14-1.14l2.39-.39a1.39,1.39,0,0,0,0-2.74l-2.39-.39a1.38,1.38,0,0,1-1.14-1.14l-.4-2.4a1.38,1.38,0,0,0-2.73,0l-.4,2.4a1.38,1.38,0,0,1-1.14,1.14l-2.39.39a1.39,1.39,0,0,0,0,2.74l2.39.39a1.38,1.38,0,0,1,1.14,1.14l.4,2.4A1.38,1.38,0,0,0,247.75,282.22Z"/><path class="cls-16" d="M436.19,82.5l.52-3.17a1.84,1.84,0,0,1,1.51-1.51l3.16-.52a1.83,1.83,0,0,0,0-3.61l-3.16-.52a1.83,1.83,0,0,1-1.51-1.51l-.52-3.16a1.83,1.83,0,0,0-3.61,0l-.53,3.16a1.82,1.82,0,0,1-1.5,1.51l-3.17.52a1.83,1.83,0,0,0,0,3.61l3.17.52a1.83,1.83,0,0,1,1.5,1.51l.53,3.17A1.83,1.83,0,0,0,436.19,82.5Z"/><path class="cls-20" d="M217,183.72l.52-3.17A1.85,1.85,0,0,1,219,179l3.16-.52a1.83,1.83,0,0,0,0-3.61l-3.16-.52a1.85,1.85,0,0,1-1.51-1.51l-.52-3.16a1.83,1.83,0,0,0-3.61,0l-.52,3.16a1.85,1.85,0,0,1-1.51,1.51l-3.17.52a1.83,1.83,0,0,0,0,3.61l3.17.52a1.85,1.85,0,0,1,1.51,1.51l.52,3.17A1.83,1.83,0,0,0,217,183.72Z"/><circle class="cls-21" cx="156.5" cy="248.43" r="4.25"/><circle class="cls-16" cx="236.56" cy="122.05" r="4.25"/><circle class="cls-21" cx="456.14" cy="135.08" r="4.25"/><circle class="cls-21" cx="156.14" cy="155.08" r="4.25"/><circle class="cls-22" cx="534.65" cy="244.18" r="4.25"/><circle class="cls-23" cx="456.14" cy="233.62" r="4.25"/><circle class="cls-19" cx="494.27" cy="265.91" r="4.25"/><circle class="cls-19" cx="506.46" cy="159.45" r="4.25"/><rect class="cls-24" x="309.75" y="337.88" width="86.61" height="29.64" rx="1.86"/><text class="cls-25" transform="translate(336.26 357.91)">PA<tspan class="cls-26" x="22.07" y="0">Y</tspan></text><path class="cls-27" d="M276.69,448l.39,10s-5,1.44-6.46-2.07l-1.39-9Z"/><path class="cls-28" d="M294.43,465.64a3,3,0,0,0-1.15-3,5.71,5.71,0,0,0-2.76-1.22c-1.26-.21-3.36-.66-4.29-1.46l-8.32-5.37a.48.48,0,0,0-.59.05c-.81.71-3.18,2.73-4.26,2.66a2.63,2.63,0,0,1-2.44-1.23.2.2,0,0,0-.35,0c-.5.92-1.78,3.57-1.41,5.74a1.54,1.54,0,0,0,1.11,1.22l15.81,4.1.16,0c.63.09,4.88.64,7.32-.24A1.82,1.82,0,0,0,294.43,465.64Z"/><path class="cls-27" d="M204.81,439.21l-9.37-3.46s.58-5.17,4.38-5.18l8.85,2.15Z"/><path class="cls-28" d="M199.35,437.75c-1.16-.5-4.74-2.56-.07-7.64a.42.42,0,0,0,.06-.49c-.48-.84-2.32-3.32-7.18-3.07a1,1,0,0,0-.94.74L183.82,453a2.41,2.41,0,0,0,1.62,3h0a2.4,2.4,0,0,0,3-1.54l.92-2.73a3.54,3.54,0,0,1,.56-1.05l9.55-12.46A.26.26,0,0,0,199.35,437.75Z"/><path class="cls-29" d="M247.3,395.39s21.74-6,30.3-6.62a6.57,6.57,0,0,1,4.45,1.3c3.07,2.34,8.08,8.1,4.94,19.59l-7.66,38.64H267.24s-1-28.36,1.68-35.51c0,0-19.65,14.36-31.52,5.28l-8.46-20.52Z"/><path class="cls-30" d="M228.15,386.33l23.69,8.53L261,447.71c-1.62,9.28-9.08,8.27-9.08,8.27-4.24,1.82-48-15.33-48-15.33l4-11c10.89-.81,30.26,4.11,30.26,4.11l-8.27-18.38S218.46,395.85,228.15,386.33Z"/><polygon class="cls-30" points="227.81 386.69 230.81 383.7 245.3 390.57 240.81 400.15 227.81 386.69"/><path class="cls-31" d="M230.15,383.33c3.35,3.61,22.38,13.55,22.38,13.55-.75-6.26,14.76-25.67,14.76-25.67s-3.77-13.67-7.53-17.78c0,0-4-7.53-6.55-8,0,0-12.13,3.52-13.3,16.43a27.77,27.77,0,0,1-9.76,21.51"/><path class="cls-32" d="M265.83,367.12C261.22,349,255.54,349,255.54,349c-10,.73-9.83,9.63-9,14.39a14,14,0,0,0,1.73,4.74l9.06,15.57,4.62-5.95Z"/><path class="cls-27" d="M310.27,357.65s.35-2.88,6.83-3.27c0,0,7.2-1.48,11.14-5.09,0,0,3.64-3-10.18-.72a.36.36,0,0,1-.4-.25c-.15-.52,0-1.53,1.7-4,.28-.41-.2-1-.57-1-.93,0-2.65.67-5,4.16,0,0-6.46,5.07-9.34,4.72Z"/><path class="cls-31" d="M247.5,362.53c-.74-4.25-1-12,6.24-14a6.05,6.05,0,0,1,6.21,1.83c2,2.27,4.55,6.8,6.84,15.81a1.3,1.3,0,0,0,1.84.84l41.56-20.62v24s-46.95,19.4-51.35,13.34l-9.68-16.64A13.77,13.77,0,0,1,247.5,362.53Z"/><path class="cls-27" d="M264.4,333.76s2.53,7.14,2.28,10.7c0,0,.27,3.77-7.45,1.79l-1.11,5.64-8.21-5.23,5.82-14.05Z"/><path class="cls-33" d="M264.14,331.88s-.22,6.22-4.83,6.77c0,0-3.5.7.76,2.94,0,0-2.81,5.88,1,9.39a.93.93,0,0,1,.11,1.28c-1.16,1.32-5,3.18-17.42-3.07,0,0-6.9-4-.46-10.6.49-.51,1-1,1.41-1.59C247.26,333.85,256.44,323.64,264.14,331.88Z"/></g></g></svg>